<?xml version="1.0" encoding="UTF-8"?>
<svg width="39px" height="39px" viewBox="0 0 39 39" version="1.1" xmlns="http://www.w3.org/2000/svg" xmlns:xlink="http://www.w3.org/1999/xlink">
    <!-- Generator: Sketch 42 (36781) - http://www.bohemiancoding.com/sketch -->
    <title>noun_896857_cc</title>
    <desc>Created with Sketch.</desc>
    <defs></defs>
    <g id="Website" stroke="none" stroke-width="1" fill="none" fill-rule="evenodd">
        <g id="Internal-page-Final-1" transform="translate(-195.000000, -491.000000)">
            <g id="address" transform="translate(195.000000, 491.000000)">
                <g id="noun_896857_cc">
                    <rect id="Rectangle-43" fill="#FFFFFF" x="0" y="0" width="39" height="39" rx="8"></rect>
                    <g id="Group" transform="translate(8.000000, 5.637820)" fill-rule="nonzero" fill="#000000">
                        <path d="M11,0 C6.57157362,0 2.97297297,3.62247243 2.97297297,8.02702703 C2.97297297,10.7787989 3.96643946,13.922048 5.55574324,16.6951014 C4.08098841,17.0683855 2.82186746,17.5940112 1.85810811,18.2466216 C0.754445405,18.9939378 0,19.969727 0,21.1081081 C0,21.9112865 0.382181919,22.6528946 0.984797297,23.2635135 C1.58741268,23.8741027 2.41779911,24.3806676 3.40962838,24.8057432 C5.39328692,25.6558649 8.05776697,26.1621622 11,26.1621622 C13.9422333,26.1621622 16.6067128,25.6558649 18.5903716,24.8057432 C19.5822009,24.3806676 20.4125873,23.8741027 21.0152027,23.2635135 C21.6178181,22.6528946 22,21.9112865 22,21.1081081 C22,19.969727 21.2455555,18.9939378 20.1418919,18.2466216 C19.1781319,17.5940112 17.9190122,17.0683855 16.4442568,16.6951014 C18.0335605,13.922048 19.027027,10.7787989 19.027027,8.02702703 C19.027027,3.62247243 15.4284267,0 11,0 Z M11,1.18918919 C14.7812116,1.18918919 17.8378378,4.26885027 17.8378378,8.02702703 C17.8378378,12.4325924 14.72944,18.4616865 11,21.2381757 C7.27056,18.4616865 4.16216216,12.4325924 4.16216216,8.02702703 C4.16216216,4.26885027 7.21878865,1.18918919 11,1.18918919 Z M11,3.56756757 C8.54415368,3.56756757 6.54054054,5.57117892 6.54054054,8.02702703 C6.54054054,10.4828751 8.54415368,12.4864865 11,12.4864865 C13.4558463,12.4864865 15.4594595,10.4828751 15.4594595,8.02702703 C15.4594595,5.57117892 13.4558463,3.56756757 11,3.56756757 Z M11,4.75675676 C12.8131609,4.75675676 14.2702703,6.21386432 14.2702703,8.02702703 C14.2702703,9.84018973 12.8131609,11.2972973 11,11.2972973 C9.18683908,11.2972973 7.72972973,9.84018973 7.72972973,8.02702703 C7.72972973,6.21386432 9.18683908,4.75675676 11,4.75675676 Z M6.21537162,17.7635135 C7.46451854,19.6736299 8.98840235,21.3459558 10.6655405,22.4923986 C10.8673781,22.6296959 11.1326219,22.6296959 11.3344595,22.4923986 C13.0115976,21.3459558 14.5354815,19.6736299 15.7846284,17.7635135 C17.3200592,18.1183075 18.6015075,18.6413111 19.472973,19.2314189 C20.3920714,19.8537514 20.8108108,20.5020973 20.8108108,21.1081081 C20.8108108,21.5363649 20.610942,21.9709243 20.160473,22.4273649 C19.7100039,22.8838054 19.0170236,23.3368122 18.1258446,23.71875 C16.3434866,24.4826257 13.8045157,24.972973 11,24.972973 C8.1954843,24.972973 5.65651335,24.4826257 3.87415541,23.71875 C2.98297643,23.3368122 2.28999605,22.8838054 1.83952703,22.4273649 C1.389058,21.9709243 1.18918919,21.5363649 1.18918919,21.1081081 C1.18918919,20.5020973 1.60792768,19.8537514 2.52702703,19.2314189 C3.39849341,18.6413111 4.67993989,18.1183075 6.21537162,17.7635135 Z" id="Shape"></path>
                    </g>
                </g>
            </g>
        </g>
    </g>
</svg>