<?xml version="1.0" encoding="UTF-8"?>
<svg width="41px" height="41px" viewBox="0 0 41 41" version="1.1" xmlns="http://www.w3.org/2000/svg" xmlns:xlink="http://www.w3.org/1999/xlink">
    <!-- Generator: Sketch 42 (36781) - http://www.bohemiancoding.com/sketch -->
    <title>Group</title>
    <desc>Created with Sketch.</desc>
    <defs></defs>
    <g id="Website" stroke="none" stroke-width="1" fill="none" fill-rule="evenodd">
        <g id="Internal-page-Final-1" transform="translate(-574.000000, -490.000000)">
            <g id="Group-5" transform="translate(574.000000, 489.000000)">
                <g id="Group" transform="translate(0.000000, 0.637820)">
                    <rect id="Rectangle-2" fill="#FFFFFF" x="0" y="0.36218" width="41" height="41" rx="8"></rect>
                    <path d="M9.83238624,9.00003773 C8.8269691,9.09895173 8.01955455,9.93738645 8,10.9553892 C8.21964909,17.8551635 10.304769,23.4106874 14.0937499,27.2142479 C17.8827308,31.0178368 23.3218754,33.0120311 30.0738636,32.9999454 C31.1818182,33.0050882 31.9453727,32.0243768 31.9659091,31.0356654 C31.9771182,29.4053844 31.9891727,27.7712177 32,26.142851 C32,25.0052257 31.0158827,24.2670278 30.1079545,24.2589136 C28.7094257,24.2646278 26.75957,23.7321437 25.1818181,23.3214306 C24.9124402,23.2532308 24.61199,23.3405734 24.4147727,23.5446299 L21.8153409,26.1874794 C18.6838808,24.2174851 17.2495508,22.7659179 15.3210226,19.5893042 L17.903409,16.9732432 C18.112419,16.7616924 18.2005317,16.4279619 18.1249999,16.1339599 C17.6997826,14.4664048 16.9988463,12.2936911 17.1107954,10.767904 C16.9999999,9.57673035 15.9211045,8.99365775 15.0653408,9.00005202 C13.2438226,9.00002345 11.3917535,9.00007488 9.83238651,9.00003773 L9.83238624,9.00003773 Z M9.84089533,10.7143185 L15.0994181,10.7143185 C15.3636363,10.7195756 15.3636363,10.7195756 15.4914635,10.9732463 C15.4428881,12.8123524 16.0190626,14.670287 16.4119181,16.0982315 L13.7016908,18.8660806 C13.4376663,19.1346884 13.3817108,19.5997328 13.5738499,19.928589 C15.905049,23.8873146 17.6338536,25.6439381 21.5170318,28.017817 C21.8224836,28.2038164 22.2432118,28.1501594 22.4971454,27.8928173 L25.2329409,25.0981968 C26.7167818,25.4909386 28.4970884,25.9799371 30.1164636,25.9731943 C30.2338618,25.9963371 30.3494818,26.1704795 30.3636227,26.1874794 L30.3295318,31.0267511 C30.2726218,31.1662364 30.3636364,31.2909218 30.0227136,31.2856646 C23.6034172,31.2856646 18.6498445,29.4089558 15.227259,25.9731943 C11.7953572,22.5280614 9.84557533,17.4652132 9.63634987,10.8928894 C9.63636378,10.7195842 9.63636378,10.7195842 9.84089533,10.7143185 L9.84089533,10.7143185 Z" id="Shape" fill="#000000" fill-rule="nonzero"></path>
                </g>
            </g>
        </g>
    </g>
</svg>