<?xml version="1.0" encoding="UTF-8"?>
<svg width="39px" height="39px" viewBox="0 0 39 39" version="1.1" xmlns="http://www.w3.org/2000/svg" xmlns:xlink="http://www.w3.org/1999/xlink">
    <!-- Generator: Sketch 42 (36781) - http://www.bohemiancoding.com/sketch -->
    <title>Group</title>
    <desc>Created with Sketch.</desc>
    <defs></defs>
    <g id="Website" stroke="none" stroke-width="1" fill="none" fill-rule="evenodd">
        <g id="Internal-page-Final-1" transform="translate(-915.000000, -491.000000)" fill-rule="nonzero" fill="#FFFFFF">
            <g id="noun_467225_cc" transform="translate(915.000000, 491.000000)">
                <g id="Group">
                    <g id="Shape">
                        <path d="M31.5,0 L7.5,0 C3.4,0 0,3.4 0,7.5 L0,31.5 C0,35.6 3.4,39 7.5,39 L31.5,39 C35.6,39 39,35.6 39,31.5 L39,7.5 C39,3.4 35.7,0 31.5,0 Z M21.2,13.1 L21.2,16.5 L25.9,16.5 L25.9,19.4 L21.2,19.4 L21.2,31 L17.7,31 L17.7,19.4 L13.6,19.4 L13.6,16.5 L17.7,16.5 L17.7,12.5 C17.7,10.2 19.5,8.3 21.7,8.3 L25.9,8.3 L25.9,11.4 L22.7,11.4 C21.9,11.4 21.2,12.2 21.2,13.1 Z"></path>
                    </g>
                </g>
            </g>
        </g>
    </g>
</svg>