<?xml version="1.0" encoding="UTF-8"?>
<svg width="41px" height="41px" viewBox="0 0 41 41" version="1.1" xmlns="http://www.w3.org/2000/svg" xmlns:xlink="http://www.w3.org/1999/xlink">
    <!-- Generator: Sketch 42 (36781) - http://www.bohemiancoding.com/sketch -->
    <title>Group</title>
    <desc>Created with Sketch.</desc>
    <defs></defs>
    <g id="Website" stroke="none" stroke-width="1" fill="none" fill-rule="evenodd">
        <g id="Internal-page-Final-1" transform="translate(-574.000000, -569.000000)">
            <g id="Group-5" transform="translate(574.000000, 569.000000)">
                <g id="noun_272720_cc">
                    <g id="Group">
                        <rect id="Rectangle-2" fill="#FFFFFF" x="0" y="0" width="41" height="41" rx="8"></rect>
                        <path d="M33.2777778,18.1111111 L31.1111111,18.1111111 L31.1111111,13.0555556 C31.1111111,12.8640222 31.0351333,12.6802889 30.8996444,12.5448 L26.5663111,8.21146667 C26.4308222,8.07597778 26.2470889,8 26.0555556,8 L11.6111111,8 C11.2121556,8 10.8888889,8.32326667 10.8888889,8.72222222 L10.8888889,18.1111111 L8.72222222,18.1111111 C8.32326667,18.1111111 8,18.4343778 8,18.8333333 L8,28.9444444 C8,29.3434 8.32326667,29.6666667 8.72222222,29.6666667 L10.8888889,29.6666667 L10.8888889,33.2777778 C10.8888889,33.6767333 11.2121556,34 11.6111111,34 L30.3888889,34 C30.7878444,34 31.1111111,33.6767333 31.1111111,33.2777778 L31.1111111,29.6666667 L33.2777778,29.6666667 C33.6767333,29.6666667 34,29.3434 34,28.9444444 L34,18.8333333 C34,18.4343778 33.6767333,18.1111111 33.2777778,18.1111111 Z M26.7777778,10.4659556 L28.6451556,12.3333333 L26.7777778,12.3333333 L26.7777778,10.4659556 Z M12.3333333,9.44444444 L25.3333333,9.44444444 L25.3333333,13.7777778 L29.6666667,13.7777778 L29.6666667,18.1111111 L12.3333333,18.1111111 L12.3333333,9.44444444 Z M29.6666667,32.5555556 L12.3333333,32.5555556 L12.3333333,29.6666667 L29.6666667,29.6666667 L29.6666667,32.5555556 Z M32.5555556,28.2222222 L9.44444444,28.2222222 L9.44444444,19.5555556 L32.5555556,19.5555556 L32.5555556,28.2222222 Z" id="Shape" fill="#000000" fill-rule="nonzero"></path>
                        <text id="FAX" font-family="Roboto-Black, Roboto" font-size="7" font-weight="700" letter-spacing="0.699999988" fill="#000000">
                            <tspan x="14" y="27">FA</tspan>
                            <tspan x="23.6646484" y="27" letter-spacing="0.48999998">X</tspan>
                        </text>
                    </g>
                </g>
            </g>
        </g>
    </g>
</svg>