<?xml version="1.0" encoding="UTF-8"?>
<svg width="41px" height="41px" viewBox="0 0 41 41" version="1.1" xmlns="http://www.w3.org/2000/svg" xmlns:xlink="http://www.w3.org/1999/xlink">
    <!-- Generator: Sketch 42 (36781) - http://www.bohemiancoding.com/sketch -->
    <title>Group 5</title>
    <desc>Created with Sketch.</desc>
    <defs></defs>
    <g id="Website" stroke="none" stroke-width="1" fill="none" fill-rule="evenodd">
        <g id="Internal-page-Final-1" transform="translate(-915.000000, -570.000000)">
            <g id="Group-5" transform="translate(915.000000, 570.000000)">
                <rect id="Rectangle-2" fill="#FFFFFF" x="0" y="0" width="41" height="41" rx="8"></rect>
                <path d="M30.9166667,12 L10.0833333,12 C8.94444444,12 8,12.9633333 8,14.125 L8,26.875 C8,28.0366667 8.94444444,29 10.0833333,29 L30.9166667,29 C32.0555556,29 33,28.0366667 33,26.875 L33,14.125 C33,12.9633333 32.0555556,12 30.9166667,12 Z M30,14 L20,23 L11,14 L30,14 Z M10.2195122,26.7488372 L10.195122,26.7767442 L10,27 L10,15 L10.1707317,15.1953488 L10.195122,15.2232558 L16,21 L10.2195122,26.7488372 Z M10,28 L10.1917808,27.8064516 L16.8493151,22 L19.5616438,24.3778802 C19.6986301,24.4884793 19.8630137,24.5437788 20,24.5437788 C20.1369863,24.5437788 20.3287671,24.4884793 20.4383562,24.3778802 L23.1506849,22 L29.8082192,27.8064516 L30,28 L10,28 Z M31,27 L30.8292683,26.8041958 L30.804878,26.7762238 L25,20.986014 L30.804878,15.2237762 L30.8292683,15.1958042 L31,15 L31,27 Z" id="Shape" fill="#000000" fill-rule="nonzero"></path>
            </g>
        </g>
    </g>
</svg>