<svg xmlns:rdf="http://www.w3.org/1999/02/22-rdf-syntax-ns#" xmlns="http://www.w3.org/2000/svg" xml:space="preserve" height="29" width="460" version="1.1" xmlns:cc="http://creativecommons.org/ns#" xmlns:dc="http://purl.org/dc/elements/1.1/" viewBox="0 0 459.99989 29"><path style="fill:#315da6" d="m459.9999 14.50001-200-2.5v5zm-460 0 200-2.5v5zm227.2381-14.5 2.762 2.761906 2.7619-2.761906v5.523811l2.76194-2.761905v5.523811l-2.76194 2.761899-2.76194-2.761899-2.76194 2.761899-2.76193-2.761899v-5.523811l2.76193 2.761905v-5.523811zm-5.2547 4.56421-1.74954-1.749566v1.953054h-1.95302l1.74967 1.749418-1.76871 1.768595h5.52388v-5.523811zm-6.4834 12.69769 2.7618-2.761905-2.7618-2.761905h5.52374l-2.76194-2.761906h5.52388l2.76193 2.761906-2.76193 2.761905 2.76193 2.761906-2.76193 2.761904h-5.52388l2.76194-2.761905zm8.2856 3.45238h-5.52375l1.80228 1.802309-1.74954 1.749567h1.9529v1.952906l1.74966-1.749567 1.76845 1.768596zm8.9763 8.28571-2.7619-2.7619-2.762 2.7619v-5.523811l-2.76193 2.761906v-5.523811l2.76193-2.761905 2.76194 2.761905 2.76194-2.761905 2.76194 2.761905v5.523811l-2.76194-2.761906v5.523811zm8.9763-8.28572h-5.52387v5.523811l1.80227-1.80231 1.74967 1.749566v-1.953054h1.95289l-1.74967-1.749418zm2.7618-8.97619-2.7618 2.761905 2.7618 2.761906h-5.52374l2.76194 2.761904h-5.52387l-2.76194-2.761905 2.76194-2.761905-2.76194-2.761905 2.76194-2.761906h5.52387l-2.76194 2.761906zm-4.5642-5.25469 1.74953-1.749567h-1.95302v-1.952906l-1.74941 1.749574-1.76857-1.768602v5.523811h5.52387z"/></svg>
