<svg id="svg2" xmlns="http://www.w3.org/2000/svg" height="94" width="359" viewBox="0 0 359 93.999995">
 <g id="layer1" transform="translate(0,-958.3623)">
  <path id="path4314" d="m15.88281.08203125l-15.88281 31.73047 5.753906 3.35352 13.02734-26.0293 49.62109 25.91406.00977-.01758.22851.13282 12.95313-25.87891 49.33205 25.76367.0254-.04687.2773.16211 12.9395-25.85157 48.0898 25.11328 1.2656.73829 12.9844-25.94727 49.4629 25.83203.0020-.00195.2011.11719 12.9395-25.85157 49.2793 25.73633 3.082-5.90234-50.9707-26.61914-4.2012-2.447269-13.0371 26.04297-47.4121-24.75977-2.2031-1.283199-13.0098 25.99024-45.082-23.54297-4.2012-2.447269-13.0566 26.08594-45.90627-23.97461-3.625-2.111329-13.04297 26.05859-49.33398-25.76367v.0019562l-.50977-.2968750z" transform="translate(0,958.3623)" fill="#e1d9d4"/>
  <g id="text4346" fill="#625452">
   <path id="path4752" style="" d="m290.3882 1018.135q0-2.8777 1.04415-5.399 1.04414-2.5212 2.90323-4.4058 1.85909-1.8845 4.43126-2.9796t5.65367-1.0951q3.08151 0 5.65368 1.0951 2.59763 1.0951 4.45672 2.9796 1.85909 1.8846 2.87777 4.4058 1.04415 2.5213 1.04415 5.399 0 2.8778-1.01868 5.4245-.99321 2.5212-2.8523 4.4313-1.83363 1.8845-4.43126 2.9796-2.57217 1.0951-5.73008 1.0951-3.18337 0-5.781-1.0951-2.57217-1.0951-4.40579-2.9796-1.83363-1.8846-2.85231-4.4058-.99321-2.5467-.99321-5.45zm7.61463 0q0 1.5026.50934 2.7759.50934 1.2479 1.37522 2.1647.89134.9168 2.03736 1.4262 1.17148.5093 2.49576.5093 1.34976 0 2.49577-.4839 1.17148-.5093 2.01189-1.4261.86588-.9168 1.34975-2.1647.48388-1.2734.48388-2.8014 0-1.5789-.48388-2.8523-.48387-1.2733-1.34975-2.1647-.84041-.8913-2.01189-1.3497-1.14601-.4839-2.49577-.4584-1.32428-.025-2.49576.4584-1.14602.4584-2.03736 1.3497-.86588.8914-1.37522 2.1647-.50934 1.2734-.50934 2.8523zm36.08345 23.74h6.07916v-30.2429l-8.90846 5.3145v-13.3053l15.98169-9.40549 5.54389.0765v47.56269h6.11739v10.476h-24.81367v-10.476zm-67.30019-39.5645h19.01685v9.0792h-4.06089v40.9721h-10.9611l-20.83269-32.3551v23.3089h4.19295v9.0462h-18.98383v-9.0462h4.12692v-31.9259h-4.06089v-9.0792h15.12104l20.70063 32.7842v-23.705h-4.25899v-9.0792zm-87.87757.03h13.68549v5.7989h-2.67806l4.28067 7.3383 4.53372-7.3383h-3.05762v-5.7989h13.68548v5.7989h-2.36175l-9.51025 12.9053v7.4859h3.88002v5.7778h-14.25484v-5.7778h3.54262v-7.5703l-8.9409-12.8209h-2.80458v-5.7989zm-28.2988 0h16.9118q2.46718 0 4.40719.738 1.94001.7381 3.26849 1.9822 1.32848 1.2231 2.02435 2.8679.71696 1.6237.71696 3.395 0 1.6237-.35848 2.8467-.33739 1.2231-1.01217 2.172-.6537.9489-1.62371 1.6869-.97.717-2.21413 1.3074 1.07543.5483 1.89783 1.687.82239 1.1176 1.24413 2.91l1.07544 4.1542h2.63588l.0422 6.2206h-9.2783l-1.26522-7.5913q-.18979-1.3496-.59044-2.3196-.37957-.9911-1.03326-1.6026-.6537-.6326-1.60262-.9278-.92783-.2952-2.21414-.2952h-2.72022v6.9587h2.93109v5.7778h-13.24265v-5.7778h3.31066v-20.3912h-3.31066v-5.7989zm10.31156 5.7989v7.739h4.19632q1.20196 0 2.15087-.2109.97001-.232 1.64479-.6959.69587-.485 1.05435-1.2019.37957-.717.37957-1.7081 0-1.8556-1.32848-2.8889-1.32849-1.0333-3.9011-1.0333h-4.19632zm-28.65729 26.7384q-2.17197 0-4.15415-.5904-1.98218-.5905-3.71131-1.6659-1.70805-1.0755-3.12089-2.5726-1.39174-1.5183-2.38283-3.3529-.99109-1.8556-1.53935-3.9643-.54827-2.1087-.54827-4.4072t.54827-4.4072q.54826-2.1298 1.53935-3.9644.99109-1.8556 2.38283-3.3528 1.41284-1.5183 3.12089-2.5937 1.72913-1.0755 3.71131-1.6659t4.15415-.5904q2.17196 0 4.15415.5904 2.00326.5904 3.71131 1.6659 1.72914 1.0754 3.12089 2.5937 1.41283 1.4972 2.40392 3.3528 1.01217 1.8346 1.56044 3.9644.54826 2.1087.54826 4.4072 0 2.2774-.54826 4.4072-.54827 2.1087-1.56044 3.9643-.99109 1.8346-2.40392 3.3529-1.39175 1.4971-3.12089 2.5726-1.70805 1.0754-3.71131 1.6659-1.98219.5904-4.15415.5904zm0-6.6213q1.83457 0 3.35284-.7803 1.53935-.8013 2.63588-2.1508 1.09652-1.3707 1.68696-3.1631.61152-1.8135.61152-3.8378 0-2.0455-.61152-3.859-.61152-1.8134-1.72914-3.163-1.09652-1.3707-2.61479-2.1509-1.51827-.8013-3.33175-.8013-1.81349 0-3.33175.8013-1.51827.7802-2.61479 2.1509-1.09653 1.3496-1.72914 3.163-.61153 1.8135-.61153 3.859 0 2.0243.61153 3.8378.63261 1.7924 1.72914 3.1631 1.09652 1.3495 2.61479 2.1508 1.51826.7803 3.33175.7803zm-38.92667.2741h3.310665v-20.602h-3.880015v4.133h-6.874373v-9.7211h29.07902v9.7211h-6.91655v-4.133h-4.40719v20.602h3.37393v5.7778h-13.68549v-5.7778zm-17.27028-16.469q-1.180874-1.6869-2.129791-2.3828-.948917-.717-2.045443-1.0122-1.096525-.3163-2.298486-.3163-1.771311 0-3.289578.8013-1.518267.7802-2.635879 2.1509-1.096526 1.3496-1.729137 3.163-.632611 1.7924-.632611 3.8168 0 2.0454.611524 3.8589.632611 1.7924 1.729137 3.142 1.096525 1.3496 2.614792 2.1509 1.518267.7802 3.331752.7802 1.265222 0 2.361748-.4007 1.096525-.4217 1.982181-1.0965.906742-.6748 1.581528-1.5393.674785-.8857 1.054351-1.8346l6.790026 1.8978q-.653698 2.0665-1.91892 3.8379-1.265223 1.7502-3.057621 3.0365-1.771311 1.2863-4.006536 2.0243-2.214139.7381-4.786757.7381-2.171965 0-4.154146-.5904-1.982182-.5905-3.711319-1.6659-1.70805-1.0755-3.120881-2.5937-1.391744-1.5183-2.382835-3.3529-.991091-1.8556-1.539354-3.9643-.548262-2.1298-.548262-4.4283 0-3.4372 1.201961-6.4316 1.201961-3.0154 3.289577-5.2506 2.087617-2.2563 4.892192-3.5426 2.825663-1.3074 6.073067-1.3074 2.593705 0 4.365016.6537 1.771311.6326 3.901102 2.5304h4.723495v7.1274h-6.515893zm-34.77252 16.469h3.184142l-1.433918-4.597h-9.826559l-1.433918 4.597h3.373926v5.7778h-12.12505v-5.7778h2.382835l8.708946-26.1901h8.455901l8.519163 26.1901h2.319573v5.7778h-12.12504v-5.7778zm-6.410459-9.9953h6.452633l-3.247403-10.3959-3.20523 10.3959zm-34.32969-16.1948h24.73509v10.902h-6.853286v-4.4915h-7.570246v6.7267h6.558068v6.1363h-6.558068v6.9166h3.373925v5.7778h-13.68549v-5.7778h3.310665v-19.7796h-3.310665v-6.4105z"/>
  </g>
 </g>
</svg>
