<?xml version="1.0" encoding="UTF-8"?>
<svg width="82px" height="82px" viewBox="0 0 82 82" version="1.1" xmlns="http://www.w3.org/2000/svg" xmlns:xlink="http://www.w3.org/1999/xlink">
    <!-- Generator: Sketch 42 (36781) - http://www.bohemiancoding.com/sketch -->
    <title>noun_674421_cc</title>
    <desc>Created with Sketch.</desc>
    <defs></defs>
    <g id="Website" stroke="none" stroke-width="1" fill="none" fill-rule="evenodd">
        <g id="Final-concept" transform="translate(-771.000000, -892.000000)">
            <g id="services" transform="translate(278.000000, 893.000000)">
                <g id="data" transform="translate(468.000000, 0.000000)">
                    <g id="noun_674421_cc" transform="translate(26.000000, 0.000000)">
                        <ellipse id="Oval-3" stroke="#FFFFFF" fill="#3f9dff" stroke-width="2" cx="40" cy="40" rx="40" ry="40"></ellipse>
                        <g id="Group" transform="translate(21.000000, 21.000000)" fill="#FFFFFF">
                            <path d="M22.5276316,27.1648649 C22.5276316,27.5756757 22.1684211,27.9351351 21.7578947,27.9351351 L6.26052632,27.9351351 C5.85,27.9351351 5.49078947,27.5756757 5.49078947,27.1648649 C5.49078947,26.7540541 5.85,26.3945946 6.26052632,26.3945946 L21.7578947,26.3945946 C22.1684211,26.3945946 22.5276316,26.7540541 22.5276316,27.1648649 Z M30.3276316,20.5405405 L6.20921053,20.5405405 C5.79868421,20.5405405 5.43947368,20.9 5.43947368,21.3108108 C5.43947368,21.7216216 5.79868421,22.0810811 6.20921053,22.0810811 L30.3276316,22.0810811 C30.7381579,22.0810811 31.0973684,21.7216216 31.0973684,21.3108108 C31.0973684,20.9 30.7894737,20.5405405 30.3276316,20.5405405 Z M30.3276316,14.6864865 L6.20921053,14.6864865 C5.79868421,14.6864865 5.43947368,15.0459459 5.43947368,15.4567568 C5.43947368,15.8675676 5.79868421,16.227027 6.20921053,16.227027 L30.3276316,16.227027 C30.7381579,16.227027 31.0973684,15.8675676 31.0973684,15.4567568 C31.0973684,15.0459459 30.7894737,14.6864865 30.3276316,14.6864865 Z M30.3276316,8.83243243 L6.20921053,8.83243243 C5.79868421,8.83243243 5.43947368,9.19189189 5.43947368,9.6027027 C5.43947368,10.0135135 5.79868421,10.372973 6.20921053,10.372973 L30.3276316,10.372973 C30.7381579,10.372973 31.0973684,10.0135135 31.0973684,9.6027027 C31.0973684,9.19189189 30.7894737,8.83243243 30.3276316,8.83243243 Z M21.6039474,34.8162162 L6.67105263,34.8162162 C4.00263158,34.8162162 1.84736842,32.6594595 1.84736842,29.9891892 L1.84736842,6.77837838 C1.84736842,4.10810811 4.00263158,1.95135135 6.67105263,1.95135135 L29.9171053,1.95135135 C32.5855263,1.95135135 34.7407895,4.10810811 34.7407895,6.77837838 L34.7407895,21.6702703 C34.7407895,22.0810811 35.1,22.4405405 35.5105263,22.4405405 C35.9210526,22.4405405 36.2802632,22.0810811 36.2802632,21.6702703 L36.2802632,6.77837838 C36.2802632,3.28648649 33.4065789,0.410810811 29.9171053,0.410810811 L6.67105263,0.410810811 C3.18157895,0.410810811 0.307894737,3.28648649 0.307894737,6.77837838 L0.307894737,30.0405405 C0.307894737,33.5324324 3.18157895,36.4081081 6.67105263,36.4081081 L21.5526316,36.4081081 C21.9631579,36.4081081 22.3223684,36.0486486 22.3223684,35.6378378 C22.3223684,35.227027 22.0144737,34.8162162 21.6039474,34.8162162 Z M30.7381579,31.0675676 L30.7381579,31.427027 C30.7381579,31.6837838 31.4052632,32.1972973 32.5342105,32.1972973 C33.6631579,32.1972973 34.3302632,31.6837838 34.3302632,31.427027 L34.3302632,31.0675676 C33.8171053,31.272973 33.2013158,31.427027 32.5342105,31.427027 C31.8671053,31.427027 31.2513158,31.272973 30.7381579,31.0675676 Z M32.5342105,28.3459459 C31.4052632,28.3459459 30.7381579,28.8594595 30.7381579,29.1162162 C30.7381579,29.372973 31.4052632,29.8864865 32.5342105,29.8864865 C33.6631579,29.8864865 34.3302632,29.372973 34.3302632,29.1162162 C34.3302632,28.8594595 33.6118421,28.3459459 32.5342105,28.3459459 Z M38.9486842,31.427027 C38.9486842,34.9702703 36.075,37.8459459 32.5342105,37.8459459 C28.9934211,37.8459459 26.1197368,34.9702703 26.1197368,31.427027 C26.1197368,27.8837838 28.9934211,25.0081081 32.5342105,25.0081081 C36.075,25.0081081 38.9486842,27.8837838 38.9486842,31.427027 Z M35.8697368,29.1162162 C35.8697368,27.8324324 34.3815789,26.8054054 32.5342105,26.8054054 C30.6868421,26.8054054 29.1986842,27.8324324 29.1986842,29.1162162 L29.1986842,33.7378378 C29.1986842,35.0216216 30.6868421,36.0486486 32.5342105,36.0486486 C34.3815789,36.0486486 35.8697368,35.0216216 35.8697368,33.7378378 L35.8697368,29.1162162 Z M30.7381579,33.3783784 L30.7381579,33.7378378 C30.7381579,33.9945946 31.4052632,34.5081081 32.5342105,34.5081081 C33.6631579,34.5081081 34.3302632,33.9945946 34.3302632,33.7378378 L34.3302632,33.3783784 C33.8171053,33.5837838 33.2013158,33.7378378 32.5342105,33.7378378 C31.8671053,33.7378378 31.2513158,33.5837838 30.7381579,33.3783784 Z" id="Shape"></path>
                        </g>
                    </g>
                </g>
            </g>
        </g>
    </g>
</svg>
