<?xml version="1.0" encoding="UTF-8"?>
<svg width="82px" height="82px" viewBox="0 0 82 82" version="1.1" xmlns="http://www.w3.org/2000/svg" xmlns:xlink="http://www.w3.org/1999/xlink">
    <!-- Generator: Sketch 42 (36781) - http://www.bohemiancoding.com/sketch -->
    <title>Group</title>
    <desc>Created with Sketch.</desc>
    <defs></defs>
    <g id="Website" stroke="none" stroke-width="1" fill="none" fill-rule="evenodd">
        <g id="Final-concept" transform="translate(-311.000000, -1082.000000)">
            <g id="services" transform="translate(278.000000, 893.000000)">
                <g id="maps" transform="translate(21.000000, 190.000000)">
                    <g id="noun_665675_cc" transform="translate(13.000000, 0.000000)">
                        <g id="Group">
                            <g>
                                <circle id="Oval-4" stroke="#FFFFFF" stroke-width="2" fill="#3f9dff" cx="40" cy="40" r="40"></circle>
                                <path d="M62.45076,52.5432308 L47.89452,29.8849231 C48.02792,29.2936923 48.10382,28.7541538 48.10382,28.2884615 C48.10382,23.1833846 43.9652,19.0309231 38.87852,19.0309231 C33.79138,19.0309231 29.65276,23.1838462 29.65276,28.2884615 C29.65276,29.4210769 30.08976,30.976 30.7609,32.6998462 L28.65594,34.7449231 L18.46556,34.7855385 C18.06582,34.7869231 17.69874,35.0070769 17.50784,35.3596923 C17.3174,35.7123077 17.33396,36.1410769 17.55016,36.4784615 L32.78536,60.1946154 C32.98684,60.508 33.33322,60.6976923 33.70536,60.6976923 L33.7095,60.6976923 L44.3401,60.6547692 C44.34378,60.6547692 44.347,60.6533846 44.34976,60.6533846 C44.43486,60.652 44.5172,60.6386154 44.59862,60.6183077 C44.623,60.6123077 44.646,60.6053846 44.66946,60.5970769 C44.73478,60.5763077 44.79688,60.5490769 44.85714,60.5163077 C44.87462,60.5066154 44.89302,60.4992308 44.90958,60.4886154 C44.97628,60.4470769 45.0393,60.4009231 45.09634,60.3450769 L51.3436,54.2767692 L61.53352,54.2356923 C61.93326,54.2338462 62.3008,54.0141538 62.49124,53.6615385 C62.68306,53.3089231 62.6665,52.8801538 62.45076,52.5432308 Z M38.87852,21.1964615 C42.77518,21.1964615 45.94504,24.3773846 45.94504,28.288 C45.94504,31.3276923 41.45682,39.3607692 38.87852,43.6133846 C36.30022,39.3607692 31.81108,31.3281538 31.81108,28.288 C31.81154,24.3773846 34.98186,21.1964615 38.87852,21.1964615 Z M37.96772,46.2483077 C38.16552,46.5607692 38.50914,46.75 38.87852,46.75 C39.2479,46.75 39.59152,46.5607692 39.78932,46.2483077 C40.0828,45.7844615 41.16196,44.0633846 42.45088,41.8147692 L49.499,53.0130769 L44.53284,57.8366154 L30.50744,36.0026154 L31.67998,34.8635385 C33.9556,39.8523077 37.40514,45.3598462 37.96772,46.2483077 Z M20.47208,36.9732308 L28.50598,36.9413846 L34.11936,45.6801538 L42.33358,58.4670769 L34.30014,58.4989231 L20.47208,36.9732308 Z M51.50138,52.0803077 L43.75176,39.7692308 C43.72462,39.7263077 43.69196,39.6893846 43.66022,39.6515385 C44.90268,37.3706154 46.17136,34.8381538 47.03386,32.5996923 L59.52792,52.0475385 L51.50138,52.0803077 Z" id="Shape" fill="#FFFFFF"></path>
                                <path d="M44.18692,28.2829231 C44.18692,25.3466154 41.8055,22.9576923 38.87898,22.9576923 C35.952,22.9576923 33.57058,25.3466154 33.57058,28.2829231 C33.57058,31.2192308 35.952,33.6086154 38.87898,33.6086154 C41.8055,33.6086154 44.18692,31.2196923 44.18692,28.2829231 Z M35.7289,28.2829231 C35.7289,26.5410769 37.14202,25.1236923 38.87852,25.1236923 C40.61502,25.1236923 42.02814,26.5410769 42.02814,28.2829231 C42.02814,30.0247692 40.61548,31.4426154 38.87852,31.4426154 C37.14156,31.4426154 35.7289,30.0252308 35.7289,28.2829231 Z" id="Shape" fill="#FFFFFF"></path>
                            </g>
                        </g>
                    </g>
                </g>
            </g>
        </g>
    </g>
</svg>
