<?xml version="1.0" encoding="UTF-8"?>
<svg width="82px" height="82px" viewBox="0 0 82 82" version="1.1" xmlns="http://www.w3.org/2000/svg" xmlns:xlink="http://www.w3.org/1999/xlink">
    <!-- Generator: Sketch 42 (36781) - http://www.bohemiancoding.com/sketch -->
    <title>Group</title>
    <desc>Created with Sketch.</desc>
    <defs></defs>
    <g id="Website" stroke="none" stroke-width="1" fill="none" fill-rule="evenodd">
        <g id="Final-concept" transform="translate(-301.000000, -893.000000)">
            <g id="services" transform="translate(278.000000, 893.000000)">
                <g id="contact" transform="translate(0.000000, 1.000000)">
                    <g id="noun_738684_cc" transform="translate(24.000000, 0.000000)">
                        <g id="Group">
                            <ellipse id="Oval" stroke="#FFFFFF" stroke-width="2" fill="#3f9dff" cx="40" cy="40" rx="40" ry="40"></ellipse>
                            <g transform="translate(17.000000, 20.000000)" id="Shape" fill="#FFFFFF">
                                <path d="M24.0697556,0.212175 L11.96,0.212175 C5.36513333,0.212175 0,5.5970125 0,12.2154375 L0,15.4242 C0,20.5876375 3.27162222,25.1576 8.14097778,26.7970875 L8.31577778,26.8565375 L8.22326667,27.0164375 C7.58437778,28.1224125 6.71753333,29.8577375 5.57315556,32.321325 C5.39171111,32.7113375 5.47246667,33.17925 5.77606667,33.485725 C5.96722222,33.6774 6.23555556,33.7875875 6.51257778,33.7875875 C6.65926667,33.7875875 6.80493333,33.7558125 6.93271111,33.6963625 L20.5998222,27.427975 L24.0697556,27.427975 C30.6646222,27.427975 36.0297556,22.0431375 36.0297556,15.4247125 L36.0297556,12.21595 C36.0297556,5.5970125 30.6646222,0.212175 24.0697556,0.212175 Z M8.8642,30.24365 C9.66,28.6574625 10.2830444,27.5299625 10.5733556,27.1507125 L10.5907333,27.12765 L10.6157778,27.1127875 C10.8856444,26.9487875 11.0635111,26.6746 11.1033778,26.36095 C11.1734,25.8136 10.8028444,25.3093 10.2595333,25.2124375 C5.50773333,24.3791125 2.05875556,20.2622 2.05875556,15.4242 L2.05875556,12.2154375 C2.05875556,6.7347625 6.50031111,2.276525 11.9594889,2.276525 L24.0697556,2.276525 C29.5289333,2.276525 33.9704889,6.7347625 33.9704889,12.2154375 L33.9704889,15.4242 C33.9704889,20.904875 29.5289333,25.3631125 24.0697556,25.3631125 L20.3754444,25.3631125 C20.2297778,25.3631125 20.0815556,25.3954 19.9471333,25.4569 L8.671,30.62905 L8.8642,30.24365 Z"></path>
                                <path d="M36.1186889,7.4046 C36.4105333,8.1385 36.6395111,8.904175 36.7948889,9.6970125 C41.0171778,10.9265 43.9407333,14.787675 43.9407333,19.2167 L43.9407333,22.4254625 C43.9407333,27.26295 40.4917556,31.3798625 35.7394444,32.2137 C35.1966444,32.309025 34.8260889,32.8138375 34.8961111,33.3622125 C34.9364889,33.6758625 35.1138444,33.95005 35.3837111,34.11405 L35.4256222,34.15095 C35.7174667,34.533275 36.3405111,35.660775 37.1352889,37.2449125 L37.3284889,37.6292875 L26.0533778,32.4581625 C25.9199778,32.3966625 25.7717556,32.3638625 25.6245556,32.3638625 L21.9302444,32.3638625 C19.8842667,32.3638625 17.9318222,31.7283625 16.2533333,30.535775 L14.1317111,31.5090125 C16.3034222,33.3898875 19.0675111,34.4282125 21.9307556,34.4282125 L25.4006889,34.4282125 L39.0667778,40.6966 C39.1955778,40.75605 39.3412444,40.787825 39.4874222,40.787825 L39.4874222,40.787825 C39.7644444,40.787825 40.0327778,40.67815 40.2244444,40.48545 C40.5270222,40.1794875 40.6077778,39.711575 40.4263333,39.322075 C39.284,36.862075 38.4171556,35.1272625 37.7762222,34.0171875 L37.6837111,33.856775 L37.8585111,33.7978375 C42.7283778,32.1578375 46,27.587875 46,22.42495 L46,19.2161875 C46,13.371125 41.8482444,8.4167875 36.1186889,7.4046 Z"></path>
                                <path d="M8.86368889,11.6240125 C7.50771111,11.6240125 6.40422222,12.7305 6.40422222,14.0901625 C6.40422222,15.4503375 7.50771111,16.556825 8.86368889,16.556825 C10.2196667,16.556825 11.3231556,15.4503375 11.3231556,14.0901625 C11.3231556,12.7299875 10.2201778,11.6240125 8.86368889,11.6240125 Z"></path>
                                <path d="M27.1655556,11.6240125 C25.8095778,11.6240125 24.7060889,12.7305 24.7060889,14.0901625 C24.7060889,15.4503375 25.8095778,16.556825 27.1655556,16.556825 C28.5220444,16.556825 29.6250222,15.4503375 29.6250222,14.0901625 C29.6250222,12.7299875 28.5220444,11.6240125 27.1655556,11.6240125 Z"></path>
                                <path d="M18.0151333,11.6240125 C16.6591556,11.6240125 15.5556667,12.7305 15.5556667,14.0901625 C15.5556667,15.4503375 16.6591556,16.556825 18.0151333,16.556825 C19.3711111,16.556825 20.4746,15.4503375 20.4746,14.0901625 C20.4740889,12.7299875 19.3711111,11.6240125 18.0151333,11.6240125 Z"></path>
                            </g>
                        </g>
                    </g>
                </g>
            </g>
        </g>
    </g>
</svg>
