<?xml version="1.0" encoding="UTF-8"?>
<svg width="82px" height="82px" viewBox="0 0 82 82" version="1.1" xmlns="http://www.w3.org/2000/svg" xmlns:xlink="http://www.w3.org/1999/xlink">
    <!-- Generator: Sketch 42 (36781) - http://www.bohemiancoding.com/sketch -->
    <title>noun_641340_cc</title>
    <desc>Created with Sketch.</desc>
    <defs></defs>
    <g id="Website" stroke="none" stroke-width="1" fill="none" fill-rule="evenodd">
        <g id="Final-concept" transform="translate(-538.000000, -1082.000000)">
            <g id="services" transform="translate(278.000000, 893.000000)">
                <g id="water-bill" transform="translate(235.000000, 190.000000)">
                    <g id="noun_641340_cc" transform="translate(26.000000, 0.000000)">
                        <circle id="Oval-5" stroke="#FFFFFF" stroke-width="2" fill="#3f9dff" cx="40" cy="40" r="40"></circle>
                        <g id="Group" transform="translate(23.000000, 20.000000)" fill="#FFFFFF">
                            <g id="Shape">
                                <path d="M9.75112613,23.8090551 L2.00225225,23.8090551 C1.64752252,23.8090551 1.35585586,23.5104331 1.35585586,23.1472441 L1.35585586,15.2135827 C1.35585586,10.4759843 5.12387387,6.61811024 9.75112613,6.61811024 L22.0247748,6.61811024 C22.3795045,6.61811024 22.6711712,6.91673228 22.6711712,7.27992126 L22.6711712,15.2135827 C22.6711712,15.5767717 22.3795045,15.8753937 22.0247748,15.8753937 L11.0439189,15.8753937 C10.6891892,15.8753937 10.3975225,16.1740157 10.3975225,16.5372047 L10.3975225,23.1472441 C10.3975225,23.5104331 10.1058559,23.8090551 9.75112613,23.8090551 Z M2.64864865,22.4854331 L9.10472973,22.4854331 L9.10472973,16.5372047 C9.10472973,15.4395669 9.97184685,14.5517717 11.0439189,14.5517717 L21.3783784,14.5517717 L21.3783784,7.94173228 L9.75112613,7.94173228 C5.83333333,7.94173228 2.64864865,11.2023622 2.64864865,15.2135827 L2.64864865,22.4854331 Z"></path>
                                <path d="M25.8952703,17.1909449 L22.0168919,17.1909449 C21.6621622,17.1909449 21.3704955,16.8923228 21.3704955,16.5291339 L21.3704955,5.94822835 C21.3704955,5.58503937 21.6621622,5.28641732 22.0168919,5.28641732 L25.8952703,5.28641732 C26.25,5.28641732 26.5416667,5.58503937 26.5416667,5.94822835 L26.5416667,16.5291339 C26.5416667,16.9003937 26.25,17.1909449 25.8952703,17.1909449 Z M22.6632883,15.8673228 L25.2488739,15.8673228 L25.2488739,6.61003937 L22.6632883,6.61003937 L22.6632883,15.8673228 Z"></path>
                                <path d="M34.2905405,15.8673228 L25.8952703,15.8673228 C25.5405405,15.8673228 25.2488739,15.5687008 25.2488739,15.2055118 L25.2488739,7.27185039 C25.2488739,6.90866142 25.5405405,6.61003937 25.8952703,6.61003937 L34.2905405,6.61003937 C34.6452703,6.61003937 34.9369369,6.90866142 34.9369369,7.27185039 L34.9369369,15.2055118 C34.9369369,15.5767717 34.6531532,15.8673228 34.2905405,15.8673228 Z M26.5416667,14.5517717 L33.6441441,14.5517717 L33.6441441,7.94173228 L26.5416667,7.94173228 L26.5416667,14.5517717 L26.5416667,14.5517717 Z"></path>
                                <path d="M25.2488739,6.61003937 L22.6632883,6.61003937 C22.3085586,6.61003937 22.0168919,6.31141732 22.0168919,5.94822835 L22.0168919,0.661811024 C22.0168919,0.298622047 22.3085586,0 22.6632883,0 L25.2488739,0 C25.6036036,0 25.8952703,0.298622047 25.8952703,0.661811024 L25.8952703,5.94822835 C25.8952703,6.31948819 25.6036036,6.61003937 25.2488739,6.61003937 Z M23.3096847,5.29448819 L24.6024775,5.29448819 L24.6024775,1.32362205 L23.3096847,1.32362205 L23.3096847,5.29448819 Z"></path>
                                <path d="M31.365991,5.29448819 C31.231982,5.29448819 31.1058559,5.27834646 30.9718468,5.25413386 L25.1306306,4.0757874 C24.8310811,4.01122047 24.6103604,3.74488189 24.6103604,3.43011811 L24.6103604,1.86437008 C24.6103604,1.5496063 24.8310811,1.27519685 25.1306306,1.21870079 L30.9718468,0.0403543307 C32.3907658,-0.242125984 33.652027,1.03307087 33.652027,2.64724409 C33.6441441,4.10807087 32.6193694,5.29448819 31.365991,5.29448819 Z M25.8952703,2.88129921 L31.2162162,3.95472441 C31.8153153,4.0757874 32.3592342,3.43011811 32.3592342,2.64724409 C32.3592342,1.86437008 31.8231982,1.21062992 31.2162162,1.33976378 L25.8952703,2.41318898 L25.8952703,2.88129921 Z"></path>
                                <path d="M16.5540541,5.29448819 C15.2927928,5.29448819 14.268018,4.10807087 14.268018,2.64724409 C14.268018,1.04114173 15.5292793,-0.242125984 16.9481982,0.0403543307 L22.7894144,1.21870079 C23.088964,1.28326772 23.3096847,1.5496063 23.3096847,1.86437008 L23.3096847,3.42204724 C23.3096847,3.73681102 23.088964,4.01122047 22.7894144,4.06771654 L16.9481982,5.24606299 C16.8220721,5.27834646 16.6880631,5.29448819 16.5540541,5.29448819 Z M16.5540541,1.32362205 C16.018018,1.32362205 15.5608108,1.92893701 15.5608108,2.64724409 C15.5608108,3.43011811 16.1047297,4.0757874 16.7038288,3.95472441 L22.0247748,2.88129921 L22.0247748,2.40511811 L16.7038288,1.33169291 C16.6565315,1.33169291 16.6013514,1.32362205 16.5540541,1.32362205 Z"></path>
                                <path d="M11.0439189,26.4482283 L0.709459459,26.4482283 C0.35472973,26.4482283 0.0630630631,26.1496063 0.0630630631,25.7864173 L0.0630630631,23.1391732 C0.0630630631,22.7759843 0.35472973,22.4773622 0.709459459,22.4773622 L11.0439189,22.4773622 C11.3986486,22.4773622 11.6903153,22.7759843 11.6903153,23.1391732 L11.6903153,25.7864173 C11.6903153,26.1576772 11.3986486,26.4482283 11.0439189,26.4482283 Z M1.35585586,25.1326772 L10.3975225,25.1326772 L10.3975225,23.8090551 L1.35585586,23.8090551 L1.35585586,25.1326772 Z"></path>
                                <path d="M5.22635135,41 C2.38063063,41 0.0630630631,38.6271654 0.0630630631,35.7135827 C0.0630630631,32.9694882 4.28828829,28.4820866 4.76914414,27.973622 C5.01351351,27.7234252 5.44707207,27.7234252 5.69144144,27.973622 C6.1722973,28.4740157 10.3975225,32.9614173 10.3975225,35.7135827 C10.3975225,38.6271654 8.07995495,41 5.22635135,41 Z M5.22635135,29.3940945 C3.83108108,30.9437008 1.34797297,34.0429134 1.34797297,35.7055118 C1.34797297,37.8927165 3.09009009,39.676378 5.22635135,39.676378 C7.36261261,39.676378 9.10472973,37.8927165 9.10472973,35.7055118 C9.10472973,34.0429134 6.62162162,30.9437008 5.22635135,29.3940945 Z"></path>
                            </g>
                        </g>
                    </g>
                </g>
            </g>
        </g>
    </g>
</svg>
