<?xml version="1.0" encoding="UTF-8"?>
<svg width="46px" height="34px" viewBox="0 0 46 34" version="1.1" xmlns="http://www.w3.org/2000/svg" xmlns:xlink="http://www.w3.org/1999/xlink">
    <!-- Generator: Sketch 42 (36781) - http://www.bohemiancoding.com/sketch -->
    <title>Shape</title>
    <desc>Created with Sketch.</desc>
    <defs></defs>
    <g id="Website" stroke="none" stroke-width="1" fill="none" fill-rule="evenodd">
        <g id="Final-concept" transform="translate(-764.000000, -5027.000000)" fill="#FFFFFF">
            <g id="ureport" transform="translate(0.000000, 3934.000000)">
                <g id="report-details" transform="translate(709.000000, 152.000000)">
                    <g id="Group-4" transform="translate(23.000000, 930.000000)">
                        <path d="M33.5333333,11 C32.7015511,11 32,11.7064853 32,12.5441176 L32,40.3382507 C32,41.1758831 32.7015511,41.8823684 33.5333333,41.8823684 L63.4493056,41.8823684 C64.9503162,43.7601184 67.2514458,44.9706037 69.8222222,44.9706037 C74.3265933,44.9706037 78,41.271361 78,36.7353096 C78,33.696486 76.3537622,31.0368978 73.9111111,29.6098243 L73.9111111,12.5441176 C73.9111111,11.7064853 73.20956,11 72.3777778,11 L33.5333333,11 Z M34.0444444,13.0588235 L71.8666667,13.0588235 L71.8666667,28.7734272 C71.2114324,28.6021331 70.5294262,28.5000154 69.8222222,28.5000154 C69.1042849,28.5000154 68.4100427,28.597089 67.7458333,28.7734272 L60.3027778,21.5675551 C59.8105471,21.1842743 59.2199173,21.1917272 58.8493056,21.6318934 L49.7930556,31.7008169 L42.7013889,25.6530176 C42.3471684,25.3464074 41.7764516,25.3322015 41.4076389,25.6211059 L34.0444444,31.5078022 L34.0444444,13.0588235 Z M48.3555556,16.1470588 C46.1094318,16.1470588 44.2666667,18.0027846 44.2666667,20.2647059 C44.2666667,22.5266272 46.1094318,24.3823632 48.3555556,24.3823632 C50.6016793,24.3823632 52.4444444,22.5266272 52.4444444,20.2647059 C52.4444444,18.0027846 50.6016793,16.1470588 48.3555556,16.1470588 Z M48.3555556,18.2058824 C49.4967798,18.2058824 50.4,19.1154551 50.4,20.2647059 C50.4,21.4139566 49.4967798,22.3235294 48.3555556,22.3235294 C47.2143313,22.3235294 46.3111111,21.4139566 46.3111111,20.2647059 C46.3111111,19.1154551 47.2143313,18.2058824 48.3555556,18.2058824 Z M59.6479167,23.7872088 L65.6854167,29.6419934 C63.2701611,31.0760154 61.6444444,33.7171257 61.6444444,36.7353096 C61.6444444,37.8261772 61.8500389,38.8692801 62.2354167,39.8235449 L34.0444444,39.8235449 L34.0444444,34.1456699 L42.0145833,27.7601257 L49.2340278,33.9044272 C49.6290196,34.2413022 50.2850307,34.2037801 50.6395833,33.8239787 L59.6479167,23.7872088 L59.6479167,23.7872088 Z M69.8222222,30.558839 C73.2216733,30.558839 75.9555556,33.3119493 75.9555556,36.7353096 C75.9555556,40.1586699 73.2216733,42.9117801 69.8222222,42.9117801 C66.4227711,42.9117801 63.6888889,40.1586699 63.6888889,36.7353096 C63.6888889,33.3119493 66.4227711,30.558839 69.8222222,30.558839 Z M69.8222222,32.1029566 C69.2576489,32.1029566 68.8,32.5638243 68.8,33.1323684 L68.8,35.7058978 L66.2444444,35.7058978 C65.6798864,35.7058978 65.2222222,36.1667654 65.2222222,36.7353096 C65.2222222,37.3038537 65.6798864,37.7647213 66.2444444,37.7647213 L68.8,37.7647213 L68.8,40.3382507 C68.8,40.9067949 69.2576489,41.3676625 69.8222222,41.3676625 C70.3867956,41.3676625 70.8444444,40.9067949 70.8444444,40.3382507 L70.8444444,37.7647213 L73.4,37.7647213 C73.964558,37.7647213 74.4222222,37.3038537 74.4222222,36.7353096 C74.4222222,36.1667654 73.964558,35.7058978 73.4,35.7058978 L70.8444444,35.7058978 L70.8444444,33.1323684 C70.8444444,32.5638243 70.3867956,32.1029566 69.8222222,32.1029566 Z" id="Shape"></path>
                    </g>
                </g>
            </g>
        </g>
    </g>
</svg>