<?xml version="1.0" encoding="UTF-8"?>
<svg width="29px" height="34px" viewBox="0 0 29 34" version="1.1" xmlns="http://www.w3.org/2000/svg" xmlns:xlink="http://www.w3.org/1999/xlink">
    <!-- Generator: Sketch 42 (36781) - http://www.bohemiancoding.com/sketch -->
    <title>noun_769462_cc</title>
    <desc>Created with Sketch.</desc>
    <defs></defs>
    <g id="Website" stroke="none" stroke-width="1" fill="none" fill-rule="evenodd">
        <g id="Final-concept" transform="translate(-1188.000000, -5027.000000)" stroke-width="2" stroke="#FFFFFF">
            <g id="ureport" transform="translate(0.000000, 3934.000000)">
                <g id="report-details" transform="translate(709.000000, 152.000000)">
                    <g id="Group-5" transform="translate(438.000000, 930.000000)">
                        <g id="noun_769462_cc" transform="translate(42.000000, 12.000000)">
                            <g id="520---Add-Location-(interaction,-communication,-interface)">
                                <g id="Group">
                                    <g id="Shape">
                                        <g>
                                            <path d="M26.9998579,23.9545455 C26.9998579,27.8450455 23.8181211,31 19.8945947,31 C15.9710684,31 12.7893316,27.8450455 12.7893316,23.9545455 C12.7893316,20.0640455 15.9710684,16.9090909 19.8945947,16.9090909 C23.8181211,16.9090909 26.9998579,20.0640455 26.9998579,23.9545455 L26.9998579,23.9545455 Z"></path>
                                            <path d="M19.8945947,21.1363636 L19.8945947,26.7727273"></path>
                                            <path d="M22.7367,23.9545455 L17.0524895,23.9545455"></path>
                                            <path d="M15.6314368,11.2727273 C15.6314368,13.6075909 13.7229632,15.5 11.3682789,15.5 C9.01359474,15.5 7.10512105,13.6075909 7.10512105,11.2727273 C7.10512105,8.93786364 9.01359474,7.04545455 11.3682789,7.04545455 C13.7229632,7.04545455 15.6314368,8.93786364 15.6314368,11.2727273 L15.6314368,11.2727273 Z"></path>
                                            <path d="M12.7893316,23.9545455 C12.7893316,20.0640455 15.9710684,16.9090909 19.8945947,16.9090909 C20.3720684,16.9090909 20.8381737,16.9598182 21.2886474,17.0485909 C23.6944895,12.7762273 23.0635421,6.55227273 19.5961737,3.11409091 C17.3381211,0.875045455 14.3240684,-0.145136364 11.3682789,0.031 C8.41248947,-0.145136364 5.39843684,0.875045455 3.14038421,3.11409091 C-0.632510526,6.85522727 -1.05740526,13.8992727 2.14422632,18.1321818 L11.3682789,31 L13.8267,27.5702727 C13.1815421,26.5106364 12.7893316,25.2819091 12.7893316,23.9545455 L12.7893316,23.9545455 Z"></path>
                                        </g>
                                    </g>
                                </g>
                            </g>
                        </g>
                    </g>
                </g>
            </g>
        </g>
    </g>
</svg>