<?xml version="1.0" encoding="UTF-8"?>
<svg width="67px" height="67px" viewBox="0 0 67 67" version="1.1" xmlns="http://www.w3.org/2000/svg" xmlns:xlink="http://www.w3.org/1999/xlink">
    <!-- Generator: Sketch 42 (36781) - http://www.bohemiancoding.com/sketch -->
    <title>noun_518253_cc</title>
    <desc>Created with Sketch.</desc>
    <defs></defs>
    <g id="Website" stroke="none" stroke-width="1" fill="none" fill-rule="evenodd">
        <g id="Final-concept" transform="translate(-837.000000, -3364.000000)">
            <g id="city-govt" transform="translate(150.000000, 3132.000000)">
                <g id="noun_518253_cc" transform="translate(688.000000, 233.000000)">
                    <g id="Group" transform="translate(19.000000, 16.000000)" fill="#fff">
                        <g id="Shape">
                            <path d="M22.916129,17.9291339 C17.083871,16.0712598 10.9096774,16.0777559 5.07741935,17.9291339 C2.07096774,18.8840551 0.0451612903,21.6968504 0.0451612903,24.9253937 L0.0451612903,32.0840551 C0.0451612903,32.590748 0.451612903,33 0.95483871,33 L27.0387097,33 C27.5419355,33 27.9483871,32.590748 27.9483871,32.0840551 L27.9483871,24.9253937 C27.9483871,21.6968504 25.9290323,18.8840551 22.916129,17.9291339 Z M14,18.7541339 L15.1290323,19.8909449 L14.5419355,20.4625984 L13.4645161,20.4625984 L12.8709677,19.8909449 L14,18.7541339 Z M1.87096774,31.1681102 L1.87096774,24.9253937 C1.87096774,22.5023622 3.38064516,20.3911417 5.63225806,19.6765748 C7.62580645,19.0399606 9.66451613,18.6437008 11.716129,18.4683071 L10.9290323,19.2608268 C10.5677419,19.6246063 10.5741935,20.215748 10.9419355,20.5730315 L12.1096774,21.6968504 L10.6774194,29.0633858 C10.6193548,29.3622047 10.7096774,29.6740157 10.9290323,29.8883858 L12.2,31.1681102 L1.87096774,31.1681102 L1.87096774,31.1681102 Z M14,30.3885827 L12.5548387,28.9334646 L13.8451613,22.2944882 L14.1548387,22.2944882 L15.4451613,28.9334646 L14,30.3885827 Z M26.1290323,31.1681102 L15.8064516,31.1681102 L17.0774194,29.8883858 C17.2903226,29.6740157 17.3870968,29.3622047 17.3290323,29.0633858 L15.8967742,21.6968504 L17.0645161,20.5730315 C17.4322581,20.215748 17.4387097,19.6246063 17.0774194,19.2608268 L16.2903226,18.4683071 C18.3419355,18.6372047 20.3741935,19.0399606 22.3741935,19.6765748 C24.6258065,20.3911417 26.1354839,22.5023622 26.1354839,24.9253937 L26.1354839,31.1681102 L26.1290323,31.1681102 Z"></path>
                            <path d="M14,14.8175197 C17.7032258,14.8175197 20.716129,11.4915354 20.716129,7.40551181 C20.716129,3.31948819 17.7032258,0 14,0 C10.2967742,0 7.28387097,3.32598425 7.28387097,7.41200787 C7.28387097,11.4980315 10.2967742,14.8175197 14,14.8175197 Z M14,1.83188976 C16.6967742,1.83188976 18.8903226,4.33287402 18.8903226,7.40551181 C18.8903226,10.4781496 16.6967742,12.9791339 14,12.9791339 C11.3032258,12.9791339 9.10967742,10.4781496 9.10967742,7.40551181 C9.10967742,4.33287402 11.3032258,1.83188976 14,1.83188976 Z"></path>
                            <path d="M22.5935484,25.1917323 L19.8064516,25.1917323 C19.3032258,25.1917323 18.8967742,25.6009843 18.8967742,26.1076772 C18.8967742,26.6143701 19.3032258,27.023622 19.8064516,27.023622 L22.6,27.023622 C23.1032258,27.023622 23.5096774,26.6143701 23.5096774,26.1076772 C23.5032258,25.6009843 23.0967742,25.1917323 22.5935484,25.1917323 Z"></path>
                        </g>
                    </g>
                    <circle id="Oval-9" stroke="#fff" stroke-width="2" cx="32.5" cy="32.5" r="32.5"></circle>
                </g>
            </g>
        </g>
    </g>
</svg>
