<?xml version="1.0" encoding="UTF-8"?>
<svg width="67px" height="67px" viewBox="0 0 67 67" version="1.1" xmlns="http://www.w3.org/2000/svg" xmlns:xlink="http://www.w3.org/1999/xlink">
    <!-- Generator: Sketch 42 (36781) - http://www.bohemiancoding.com/sketch -->
    <title>noun_708823_cc</title>
    <desc>Created with Sketch.</desc>
    <defs></defs>
    <g id="Website" stroke="none" stroke-width="1" fill="none" fill-rule="evenodd">
        <g id="Final-concept" transform="translate(-228.000000, -3364.000000)">
            <g id="city-govt" transform="translate(150.000000, 3132.000000)">
                <g id="code" transform="translate(0.000000, 233.000000)">
                    <g id="noun_708823_cc" transform="translate(79.000000, 0.000000)">
                        <g id="Group" transform="translate(16.000000, 16.000000)" fill="#fff">
                            <g id="Shape">
                                <path d="M30.9293478,31.3177778 L30.9293478,31.5822222 L30.9293478,32.4511111 L18.5271739,32.4511111 L18.5271739,31.5822222 L18.5271739,31.3177778 L30.9293478,31.3177778 L30.9293478,31.3177778 Z M32.5271739,29.7311111 L16.9293478,29.7311111 L16.9293478,31.5444444 L14.8369565,31.5444444 L14.8369565,34 L34.6195652,34 L34.6195652,31.5822222 L32.5271739,31.5822222 L32.5271739,29.7311111 L32.5271739,29.7311111 Z"></path>
                                <path d="M29.4836957,13.7888889 C28.798913,13.1088889 27.8097826,12.9955556 27.0108696,13.3355556 L17.1956522,3.62666667 C17.576087,2.83333333 17.423913,1.85111111 16.7391304,1.17111111 L15.5597826,0 L5.89673913,9.59555556 L7.07608696,10.7666667 C7.49456522,11.1822222 8.06521739,11.4088889 8.63586957,11.4088889 C8.94021739,11.4088889 9.24456522,11.3333333 9.54891304,11.22 L13.0108696,14.6577778 L1.25543478,25.2355556 C0.684782609,25.7644444 0.380434783,26.4444444 0.342391304,27.2 C0.342391304,27.9555556 0.608695652,28.6733333 1.14130435,29.2022222 C1.67391304,29.7311111 2.35869565,29.9955556 3.08152174,29.9955556 L3.1576087,29.9955556 C3.91847826,29.9955556 4.64130435,29.6555556 5.13586957,29.0888889 L15.7880435,17.4155556 L19.25,20.8533333 C18.8695652,21.6466667 19.0217391,22.6288889 19.7065217,23.3088889 L20.8858696,24.48 L30.548913,14.8844444 L29.4836957,13.7888889 Z M8.14130435,9.59555556 L15.5597826,2.22888889 L15.6358696,2.26666667 C15.9021739,2.53111111 15.9021739,2.90888889 15.6358696,3.17333333 L9.0923913,9.67111111 C8.82608696,9.93555556 8.44565217,9.93555556 8.17934783,9.67111111 L8.14130435,9.59555556 Z M4.0326087,28.1066667 C3.80434783,28.3333333 3.5,28.4844444 3.19565217,28.4844444 C2.85326087,28.4844444 2.54891304,28.3711111 2.32065217,28.1444444 C2.0923913,27.9177778 1.97826087,27.6155556 1.97826087,27.2755556 C1.97826087,26.9355556 2.13043478,26.6333333 2.35869565,26.4444444 L14.1521739,15.7911111 L14.7608696,16.3955556 L4.0326087,28.1066667 Z M14.1902174,13.6 L14.1902174,13.6 L10.7663043,10.2 L16.1684783,4.83555556 L25.7554348,14.3555556 L20.3532609,19.72 L16.9293478,16.32 L16.9293478,16.32 L14.1902174,13.6 Z M20.9619565,22.3644444 L20.923913,22.2888889 C20.6576087,22.0244444 20.6576087,21.6466667 20.923913,21.3822222 L27.4293478,14.9222222 L27.4673913,14.8844444 C27.7336957,14.62 28.1141304,14.62 28.3804348,14.8844444 L28.4184783,14.9222222 L20.9619565,22.3644444 Z"></path>
                            </g>
                        </g>
                        <circle id="Oval-8" stroke="#fff" stroke-width="2" cx="32.5" cy="32.5" r="32.5"></circle>
                    </g>
                </g>
            </g>
        </g>
    </g>
</svg>
