<?xml version="1.0" encoding="UTF-8"?>
<svg width="32px" height="31px" viewBox="0 0 32 31" version="1.1" xmlns="http://www.w3.org/2000/svg" xmlns:xlink="http://www.w3.org/1999/xlink">
    <!-- Generator: Sketch 42 (36781) - http://www.bohemiancoding.com/sketch -->
    <title>Group</title>
    <desc>Created with Sketch.</desc>
    <defs></defs>
    <g id="Website" stroke="none" stroke-width="1" fill="none" fill-rule="evenodd">
        <g id="Final-concept" transform="translate(-195.000000, -5352.000000)" fill-rule="nonzero" fill="#FFFFFF">
            <g id="fb" transform="translate(195.000000, 5352.000000)">
                <g id="noun_40254_cc">
                    <g id="Group">
                        <path d="M28.747098,0 L2.42180828,0 C1.08721238,0 0,1.08124242 0,2.40860606 L0,28.5913157 C0,29.9187576 1.08721238,31 2.42180828,31 L15.8073581,31 L21.9934415,31 L28.7471768,31 C30.0816939,31 31.1689063,29.9187576 31.1689063,28.5913157 L31.1689063,2.40860606 C31.1689063,1.08124242 30.0816939,0 28.747098,0 Z M17.3947684,29.4343434 L17.3947684,18.0050505 L13.5380098,18.0050505 L13.5380098,15.1868687 L17.3947684,15.1868687 L17.3947684,11.1008182 C17.3947684,9.48623485 17.8582878,8.17069192 18.7477036,7.29635101 C19.6022511,6.45629798 20.8589248,6.01227778 22.3577871,6.01227778 C23.4111544,6.01227778 24.3211134,6.0637096 25.0294976,6.11404545 L25.0294976,8.59467172 L23.418868,8.59537626 C20.4184672,8.59537626 20.3856454,10.8121111 20.3856454,11.5406111 L20.3856454,15.1868687 L24.7335504,15.1868687 L24.3607042,18.0050505 L20.3857241,18.0050505 L20.3857241,29.4343434 L17.3947684,29.4343434 Z M29.5947191,28.5913157 C29.5947191,29.0553763 29.2136084,29.4343434 28.747098,29.4343434 L21.9599113,29.4343434 L21.9599113,19.5707071 L25.7449657,19.5707071 L26.5238735,13.6212121 L21.9599113,13.6212121 L21.9599113,11.5406111 C21.9599113,11.000303 22.0486167,10.6636869 22.2029658,10.4812879 C22.3828954,10.26875 22.8110743,10.1610328 23.4277621,10.1610328 L26.6037635,10.1596237 L26.6037635,4.71865404 L25.9041947,4.62839394 C25.547169,4.58118939 24.1205619,4.44662121 22.3464529,4.44662121 C20.4245278,4.44662121 18.8005176,5.04697222 17.6450642,6.18285606 C16.4497839,7.35788131 15.8205812,9.05849747 15.8205812,11.1008182 L15.8205812,13.6212121 L11.9638226,13.6212121 L11.9638226,19.5707071 L15.8205812,19.5707071 L15.8205812,29.4343434 L2.42180828,29.4343434 C1.9552192,29.4343434 1.57418719,29.0553763 1.57418719,28.5913157 L1.57418719,2.40860606 C1.57418719,1.94454545 1.9552192,1.56565657 2.42180828,1.56565657 L28.747098,1.56565657 C29.2136084,1.56565657 29.5947191,1.94454545 29.5947191,2.40860606 L29.5947191,28.5913157 Z" id="Shape"></path>
                    </g>
                </g>
            </g>
        </g>
    </g>
</svg>