<?xml version="1.0" encoding="UTF-8"?>
<svg width="77px" height="53px" viewBox="0 0 77 53" version="1.1" xmlns="http://www.w3.org/2000/svg" xmlns:xlink="http://www.w3.org/1999/xlink">
    <!-- Generator: Sketch 42 (36781) - http://www.bohemiancoding.com/sketch -->
    <title>noun_650236_cc</title>
    <desc>Created with Sketch.</desc>
    <defs></defs>
    <g id="Website" stroke="none" stroke-width="1" fill="none" fill-rule="evenodd">
        <g id="Final-concept" transform="translate(-1104.000000, -60.000000)" stroke-width="2" stroke="#fff">
            <g id="top-nav" transform="translate(0.000000, 47.000000)">
                <g id="Top-Nav" transform="translate(209.000000, 13.000000)">
                    <g id="Govt" transform="translate(837.000000, 2.000000)">
                        <g id="noun_650236_cc" transform="translate(59.000000, 0.000000)">
                            <g id="Group">
                                <rect id="Rectangle-path" x="10.295098" y="22.5490196" width="9.80490196" height="7.35294118"></rect>
                                <rect id="Rectangle-path" x="10.295098" y="34.8039216" width="9.80490196" height="7.35490196"></rect>
                                <rect id="Rectangle-path" x="25.004902" y="22.5490196" width="9.80098039" height="7.35294118"></rect>
                                <rect id="Rectangle-path" x="25.004902" y="34.8039216" width="9.80098039" height="7.35490196"></rect>
                                <rect id="Rectangle-path" x="39.7039216" y="22.5490196" width="9.80588235" height="7.35294118"></rect>
                                <rect id="Rectangle-path" x="39.7039216" y="34.8039216" width="9.80588235" height="7.35490196"></rect>
                                <rect id="Rectangle-path" x="54.4137255" y="22.5490196" width="9.8" height="7.35294118"></rect>
                                <rect id="Rectangle-path" x="54.4137255" y="34.8039216" width="9.8" height="7.35490196"></rect>
                                <polygon id="Shape" points="15.1960784 15.1960784 15.1960784 3.92156863 0.490196078 3.92156863 0.490196078 49.5098039 74.0196078 49.5098039 74.0196078 15.1960784 74.0196078 0.490196078 54.4098039 15.1960784 54.4098039 0.490196078 34.8058824 15.1960784 34.8058824 0.490196078"></polygon>
                            </g>
                        </g>
                    </g>
                </g>
            </g>
        </g>
    </g>
</svg>
