<?xml version="1.0" encoding="UTF-8"?>
<svg width="23px" height="31px" viewBox="0 0 23 31" version="1.1" xmlns="http://www.w3.org/2000/svg" xmlns:xlink="http://www.w3.org/1999/xlink">
    <!-- Generator: Sketch 42 (36781) - http://www.bohemiancoding.com/sketch -->
    <title>noun_223135_cc</title>
    <desc>Created with Sketch.</desc>
    <defs></defs>
    <g id="Website" stroke="none" stroke-width="1" fill="none" fill-rule="evenodd">
        <g id="Final-concept" transform="translate(-677.000000, -5352.000000)" fill-rule="nonzero" fill="#FFFFFF">
            <g id="loc" transform="translate(677.000000, 5352.000000)">
                <g id="noun_223135_cc">
                    <g id="Group">
                        <g id="Shape">
                            <path d="M11.625,31 C7.8275,31 0.645833333,30.32575 0.645833333,27.7708333 C0.645833333,25.3915833 6.90266667,24.7715833 8.8195,24.6385417 C9.15920833,24.617875 9.48341667,24.8826667 9.50795833,25.237875 C9.5325,25.5930833 9.265125,25.9017917 8.90733333,25.927625 C4.010625,26.2673333 1.9375,27.3833333 1.9375,27.7708333 C1.9375,28.334 5.332,29.7083333 11.625,29.7083333 C17.918,29.7083333 21.3125,28.334 21.3125,27.7708333 C21.3125,27.3833333 19.239375,26.2673333 14.3426667,25.927625 C13.9861667,25.9017917 13.7187917,25.594375 13.7420417,25.237875 C13.767875,24.8826667 14.0727083,24.6204583 14.4305,24.6385417 C16.3473333,24.7715833 22.6041667,25.3915833 22.6041667,27.7708333 C22.6041667,30.32575 15.4225,31 11.625,31 Z"></path>
                            <g transform="translate(2.583333, 0.000000)">
                                <path d="M9.04166667,12.9166667 C6.54875,12.9166667 4.52083333,10.88875 4.52083333,8.39583333 C4.52083333,5.90291667 6.54875,3.875 9.04166667,3.875 C11.5345833,3.875 13.5625,5.90291667 13.5625,8.39583333 C13.5625,10.88875 11.5345833,12.9166667 9.04166667,12.9166667 Z M9.04166667,5.16666667 C7.26045833,5.16666667 5.8125,6.61591667 5.8125,8.39583333 C5.8125,10.17575 7.26045833,11.625 9.04166667,11.625 C10.822875,11.625 12.2708333,10.17575 12.2708333,8.39583333 C12.2708333,6.61591667 10.822875,5.16666667 9.04166667,5.16666667 Z"></path>
                                <path d="M9.04166667,27.125 C8.68516667,27.125 8.39583333,26.8356667 8.39583333,26.4791667 C8.39583333,20.1512917 6.242625,17.9709583 4.16175,15.8616667 C2.58979167,14.2703333 0.966166667,12.62475 0.703958333,9.34004167 C0.669083333,9.04425 0.645833333,8.722625 0.645833333,8.39583333 C0.645833333,3.7665 4.41233333,0 9.04166667,0 C13.671,0 17.4375,3.7665 17.4375,8.39583333 C17.4375,8.71875 17.41425,9.03779167 17.379375,9.35166667 C17.1132917,12.628625 15.4909583,14.2729167 13.9215833,15.8616667 C11.8407083,17.9709583 9.6875,20.1512917 9.6875,26.4791667 C9.6875,26.8356667 9.39816667,27.125 9.04166667,27.125 Z M9.04166667,1.29166667 C5.12533333,1.29166667 1.9375,4.47820833 1.9375,8.39583333 C1.9375,8.67225 1.95816667,8.94479167 1.98916667,9.21345833 C2.2165,12.05125 3.54304167,13.395875 5.08141667,14.953625 C6.55908333,16.4506667 8.172375,18.084625 9.04166667,21.1639583 C9.91225,18.084625 11.5255417,16.4506667 13.0019167,14.953625 C14.539,13.395875 15.8668333,12.05125 16.092875,9.23670833 C16.092875,9.22895833 16.0941667,9.22120833 16.0941667,9.21345833 C16.1251667,8.94479167 16.1458333,8.67225 16.1458333,8.39583333 C16.1458333,4.47820833 12.958,1.29166667 9.04166667,1.29166667 Z"></path>
                            </g>
                        </g>
                    </g>
                </g>
            </g>
        </g>
    </g>
</svg>