<?xml version="1.0" encoding="UTF-8"?>
<svg width="31px" height="21px" viewBox="0 0 31 21" version="1.1" xmlns="http://www.w3.org/2000/svg" xmlns:xlink="http://www.w3.org/1999/xlink">
    <!-- Generator: Sketch 42 (36781) - http://www.bohemiancoding.com/sketch -->
    <title>noun_101719_cc</title>
    <desc>Created with Sketch.</desc>
    <defs></defs>
    <g id="Website" stroke="none" stroke-width="1" fill="none" fill-rule="evenodd">
        <g id="Final-concept" transform="translate(-195.000000, -5477.000000)" fill-rule="nonzero" fill="#FFFFFF">
            <g id="mail" transform="translate(195.000000, 5472.000000)">
                <g id="noun_101719_cc" transform="translate(0.000000, 5.000000)">
                    <g id="Group">
                        <path d="M28.4166667,0 L2.58333333,0 C1.17111111,0 0,1.19 0,2.625 L0,18.375 C0,19.81 1.17111111,21 2.58333333,21 L28.4166667,21 C29.8288889,21 31,19.81 31,18.375 L31,2.625 C31,1.19 29.8288889,0 28.4166667,0 Z M28,2 L27.760274,2.24290221 L15.5,13 L3.23972603,2.24290221 L3,2 L28,2 Z M2.29268293,17.6860465 L2.2601626,17.7209302 L2,18 L2,3 L2.22764228,3.24418605 L2.2601626,3.27906977 L10,10.5 L2.29268293,17.6860465 Z M3,20 L3.23972603,19.7419355 L11.5616438,12 L14.9520548,15.1705069 C15.1232877,15.3179724 15.3287671,15.3917051 15.5,15.3917051 C15.6712329,15.3917051 15.9109589,15.3179724 16.0479452,15.1705069 L19.4383562,12 L27.760274,19.7419355 L28,20 L3,20 Z M29,18 L28.7723577,17.7552448 L28.7398374,17.7202797 L21,10.4825175 L28.7398374,3.27972028 L28.7723577,3.24475524 L29,3 L29,18 Z" id="Shape"></path>
                    </g>
                </g>
            </g>
        </g>
    </g>
</svg>