<?xml version="1.0" encoding="UTF-8"?>
<svg width="82px" height="82px" viewBox="0 0 82 82" version="1.1" xmlns="http://www.w3.org/2000/svg" xmlns:xlink="http://www.w3.org/1999/xlink">
    <!-- Generator: Sketch 42 (36781) - http://www.bohemiancoding.com/sketch -->
    <title>noun_665675_cc</title>
    <desc>Created with Sketch.</desc>
    <defs></defs>
    <g id="Website" stroke="none" stroke-width="1" fill="none" fill-rule="evenodd">
        <g id="Final-concept" transform="translate(-311.000000, -1082.000000)">
            <g id="services" transform="translate(278.000000, 893.000000)">
                <g id="maps" transform="translate(21.000000, 190.000000)">
                    <g id="noun_665675_cc" transform="translate(13.000000, 0.000000)">
                        <g id="Group" transform="translate(17.000000, 19.000000)" fill="#FFFFFF">
                            <g id="Shape">
                                <path d="M45.45076,33.5432308 L30.89452,10.8849231 C31.02792,10.2936923 31.10382,9.75415385 31.10382,9.28846154 C31.10382,4.18338462 26.9652,0.0309230769 21.87852,0.0309230769 C16.79138,0.0309230769 12.65276,4.18384615 12.65276,9.28846154 C12.65276,10.4210769 13.08976,11.976 13.7609,13.6998462 L11.65594,15.7449231 L1.46556,15.7855385 C1.06582,15.7869231 0.69874,16.0070769 0.50784,16.3596923 C0.3174,16.7123077 0.33396,17.1410769 0.55016,17.4784615 L15.78536,41.1946154 C15.98684,41.508 16.33322,41.6976923 16.70536,41.6976923 L16.7095,41.6976923 L27.3401,41.6547692 C27.34378,41.6547692 27.347,41.6533846 27.34976,41.6533846 C27.43486,41.652 27.5172,41.6386154 27.59862,41.6183077 C27.623,41.6123077 27.646,41.6053846 27.66946,41.5970769 C27.73478,41.5763077 27.79688,41.5490769 27.85714,41.5163077 C27.87462,41.5066154 27.89302,41.4992308 27.90958,41.4886154 C27.97628,41.4470769 28.0393,41.4009231 28.09634,41.3450769 L34.3436,35.2767692 L44.53352,35.2356923 C44.93326,35.2338462 45.3008,35.0141538 45.49124,34.6615385 C45.68306,34.3089231 45.6665,33.8801538 45.45076,33.5432308 Z M21.87852,2.19646154 C25.77518,2.19646154 28.94504,5.37738462 28.94504,9.288 C28.94504,12.3276923 24.45682,20.3607692 21.87852,24.6133846 C19.30022,20.3607692 14.81108,12.3281538 14.81108,9.288 C14.81154,5.37738462 17.98186,2.19646154 21.87852,2.19646154 Z M20.96772,27.2483077 C21.16552,27.5607692 21.50914,27.75 21.87852,27.75 C22.2479,27.75 22.59152,27.5607692 22.78932,27.2483077 C23.0828,26.7844615 24.16196,25.0633846 25.45088,22.8147692 L32.499,34.0130769 L27.53284,38.8366154 L13.50744,17.0026154 L14.67998,15.8635385 C16.9556,20.8523077 20.40514,26.3598462 20.96772,27.2483077 Z M3.47208,17.9732308 L11.50598,17.9413846 L17.11936,26.6801538 L25.33358,39.4670769 L17.30014,39.4989231 L3.47208,17.9732308 Z M34.50138,33.0803077 L26.75176,20.7692308 C26.72462,20.7263077 26.69196,20.6893846 26.66022,20.6515385 C27.90268,18.3706154 29.17136,15.8381538 30.03386,13.5996923 L42.52792,33.0475385 L34.50138,33.0803077 Z"></path>
                                <path d="M27.18692,9.28292308 C27.18692,6.34661538 24.8055,3.95769231 21.87898,3.95769231 C18.952,3.95769231 16.57058,6.34661538 16.57058,9.28292308 C16.57058,12.2192308 18.952,14.6086154 21.87898,14.6086154 C24.8055,14.6086154 27.18692,12.2196923 27.18692,9.28292308 Z M18.7289,9.28292308 C18.7289,7.54107692 20.14202,6.12369231 21.87852,6.12369231 C23.61502,6.12369231 25.02814,7.54107692 25.02814,9.28292308 C25.02814,11.0247692 23.61548,12.4426154 21.87852,12.4426154 C20.14156,12.4426154 18.7289,11.0252308 18.7289,9.28292308 Z"></path>
                            </g>
                        </g>
                        <ellipse id="Oval-4" stroke="#FFFFFF" stroke-width="2" cx="40" cy="40" rx="40" ry="40"></ellipse>
                    </g>
                </g>
            </g>
        </g>
    </g>
</svg>