<?xml version="1.0" encoding="UTF-8"?>
<svg width="67px" height="67px" viewBox="0 0 67 67" version="1.1" xmlns="http://www.w3.org/2000/svg" xmlns:xlink="http://www.w3.org/1999/xlink">
    <!-- Generator: Sketch 42 (36781) - http://www.bohemiancoding.com/sketch -->
    <title>noun_614718_cc</title>
    <desc>Created with Sketch.</desc>
    <defs></defs>
    <g id="Website" stroke="none" stroke-width="1" fill="none" fill-rule="evenodd">
        <g id="Final-concept" transform="translate(-533.000000, -3367.000000)">
            <g id="city-govt" transform="translate(150.000000, 3132.000000)">
                <g id="budget" transform="translate(304.000000, 236.000000)">
                    <g id="noun_614718_cc" transform="translate(80.000000, 0.000000)">
                        <g id="Group" transform="translate(18.000000, 16.000000)" fill="#fff">
                            <g id="Shape">
                                <path d="M18.0101373,9.6611 L21.6305882,6.29226667 C21.7340784,6.19593333 21.8148235,6.0775 21.8682745,5.94716667 C22.3112353,4.84613333 21.7738824,3.5921 20.6713137,3.1501 L19.323098,2.60893333 C19.2321176,1.4093 18.2233725,0.4607 16.9962745,0.4607 L11.8041373,0.4607 C10.5781765,0.4607 9.56943137,1.4093 9.47958824,2.60893333 L8.13023529,3.1501 C7.02766667,3.59153333 6.49088235,4.84556667 6.93327451,5.94603333 C6.98558824,6.0775 7.06633333,6.19593333 7.17096078,6.29226667 L10.7914118,9.6611 L12.1106275,8.25236667 L8.71762745,5.09603333 C8.73411765,5.02633333 8.78188235,4.9657 8.85182353,4.93793333 L10.203451,4.39563333 L11.247451,6.32456667 L12.9487843,5.41053333 L11.5073137,2.74776667 L11.4686471,2.76873333 L11.4265686,2.6605 C11.4811569,2.50466667 11.6318431,2.3885 11.8041373,2.3885 L16.9962745,2.3885 C17.1748235,2.3885 17.3306275,2.51146667 17.3795294,2.67523333 L17.3306275,2.8203 L15.9278235,5.4111 L17.6291569,6.32513333 L18.6600784,4.4217 L19.9497255,4.9385 C20.0196667,4.96626667 20.0674314,5.0269 20.0839216,5.0966 L16.6909216,8.25293333 L18.0101373,9.6611 Z"></path>
                                <path d="M1.86282353,31.161 C4.14927451,33.7421667 8.03527451,33.7716333 8.20017647,33.7716333 L20.6025098,33.7716333 C20.7668431,33.7716333 24.6505686,33.7416 26.9375882,31.161 C28.2533922,29.6757667 28.7668627,27.6913 28.4626471,25.2631333 C27.409549,16.8747667 19.0723333,10.1104667 17.7565294,9.55003333 C17.1458235,9.28993333 15.5940392,9.23553333 14.4016275,9.23553333 C13.2092157,9.23553333 11.6574314,9.28993333 11.0455882,9.55003333 C9.73035294,10.1099 1.392,16.8747667 0.339470588,25.2637 C0.0341176471,27.6913 0.547019608,29.6757667 1.86282353,31.161 Z M2.25631373,25.5022667 C3.22809804,17.7672667 11.1132549,11.6574667 11.7865098,11.3288 C11.9951961,11.2602333 12.9436667,11.1627667 14.4010588,11.1627667 C15.858451,11.1627667 16.8063529,11.2602333 16.9877451,11.3174667 C17.6882941,11.6574667 25.5740196,17.7667 26.5446667,25.5017 C26.7766667,27.3552667 26.4224118,28.8286 25.4915686,29.8814667 C23.7834118,31.8149333 20.6337843,31.8449667 20.6013725,31.8449667 L8.20017647,31.8449667 C8.16776471,31.8449667 5.017,31.8149333 3.30884314,29.8814667 C2.37856863,28.8291667 2.02431373,27.3558333 2.25631373,25.5022667 Z"></path>
                                <path d="M13.5486863,28.3367333 L13.5486863,29.1215667 L15.4820196,29.1215667 L15.4820196,28.3135 C16.9058627,28.1531333 18.0209412,26.9574667 18.0209412,25.4954667 L18.0209412,24.2091333 C18.0209412,23.6016667 17.7519804,22.7074667 16.4685882,21.8948667 L16.0432549,21.7288333 L16.0512157,21.7078667 L15.4825882,21.4908333 L15.4825882,17.8851333 C15.8345686,18.0154667 16.0876078,18.3532 16.0876078,18.7504333 L16.0876078,19.3494 L18.0209412,19.3494 L18.0209412,18.751 C18.0209412,17.2878667 16.9058627,16.0916333 15.4820196,15.9307 L15.4820196,15.1934667 L13.5486863,15.1934667 L13.5486863,15.9074667 C12.015098,15.9562 10.7811765,17.2091 10.7811765,18.751 L10.7811765,20.0339333 C10.7811765,20.638 11.044451,21.5248333 12.2994118,22.3193 L12.8549608,22.5352 L12.8492745,22.5493667 L13.5486863,22.8185333 L13.5486863,26.4100667 C13.0812745,26.3636 12.7145098,25.9737333 12.7145098,25.4960333 L12.7145098,24.8948 L10.7811765,24.8948 L10.7811765,25.4960333 C10.7811765,27.0362333 12.015098,28.2868667 13.5486863,28.3367333 Z M13.2598235,20.6436667 C12.8589412,20.3745 12.7145098,20.1501 12.7145098,20.0339333 L12.7145098,18.751 C12.7145098,18.2716 13.0812745,17.8811667 13.5486863,17.8347 L13.5486863,20.7530333 L13.5441373,20.7519 L13.5441373,20.7519 L13.2598235,20.6436667 Z M15.5076078,23.5710667 C15.9318039,23.8555333 16.0876078,24.1054333 16.0876078,24.2097 L16.0876078,25.4960333 C16.0876078,25.8921333 15.8345686,26.2287333 15.4825882,26.3590667 L15.4825882,23.5608667 L15.5076078,23.5710667 Z"></path>
                            </g>
                        </g>
                        <circle id="Oval-9" stroke="#fff" stroke-width="2" cx="32.5" cy="32.5" r="32.5"></circle>
                    </g>
                </g>
            </g>
        </g>
    </g>
</svg>
