<?xml version="1.0" encoding="UTF-8"?>
<svg width="63px" height="51px" viewBox="0 0 63 51" version="1.1" xmlns="http://www.w3.org/2000/svg" xmlns:xlink="http://www.w3.org/1999/xlink">
    <!-- Generator: Sketch 42 (36781) - http://www.bohemiancoding.com/sketch -->
    <title>noun_750649_cc (1)</title>
    <desc>Created with Sketch.</desc>
    <defs></defs>
    <g id="Website" stroke="none" stroke-width="1" fill="none" fill-rule="evenodd">
        <g id="Final-concept" transform="translate(-578.000000, -64.000000)" fill="#fff">
            <g id="top-nav" transform="translate(0.000000, 47.000000)">
                <g id="Top-Nav" transform="translate(209.000000, 13.000000)">
                    <g id="News" transform="translate(310.000000, 4.000000)">
                        <g id="noun_750649_cc-(1)">
                            <g transform="translate(59.000000, 0.000000)">
                                <g id="Artboard-24">
                                    <path d="M53.851397,10.9559784 C53.851397,11.6857515 53.2675832,12.2773495 52.5474123,12.2773495 L23.9901478,12.2773495 C23.269977,12.2773495 22.6861632,11.6857515 22.6861632,10.9559784 C22.6861632,10.2262052 23.269977,9.63460722 23.9901478,9.63460722 L52.5474123,9.63460722 C53.2675832,9.63460722 53.851397,10.2262052 53.851397,10.9559784 Z M23.9901478,19.4722154 L32.5834069,19.4722154 C33.3035777,19.4722154 33.8873916,18.8806174 33.8873916,18.1508442 C33.8873916,17.4210711 33.3035777,16.8294731 32.5834069,16.8294731 L23.9901478,16.8294731 C23.269977,16.8294731 22.6861632,17.4210711 22.6861632,18.1508442 C22.6861632,18.8806174 23.269977,19.4722154 23.9901478,19.4722154 Z M23.9901478,26.6472607 L32.5834069,26.6472607 C33.3035777,26.6472607 33.8873916,26.0556627 33.8873916,25.3258895 C33.8873916,24.5961164 33.3035777,24.0045184 32.5834069,24.0045184 L23.9901478,24.0045184 C23.269977,24.0045184 22.6861632,24.5961164 22.6861632,25.3258895 C22.6861632,26.0556627 23.269977,26.6472607 23.9901478,26.6472607 Z M23.9901478,33.822306 L32.5834069,33.822306 C33.3035777,33.822306 33.8873916,33.230708 33.8873916,32.5009348 C33.8873916,31.7711617 33.3035777,31.1795637 32.5834069,31.1795637 L23.9901478,31.1795637 C23.269977,31.1795637 22.6861632,31.7711617 22.6861632,32.5009348 C22.6861632,33.230708 23.269977,33.822306 23.9901478,33.822306 Z M52.5474123,38.354609 L23.9901478,38.354609 C23.269977,38.354609 22.6861632,38.946207 22.6861632,39.6759801 C22.6861632,40.4057533 23.269977,40.9973513 23.9901478,40.9973513 L52.5474123,40.9973513 C53.2675832,40.9973513 53.851397,40.4057533 53.851397,39.6759801 C53.851397,38.946207 53.2675832,38.354609 52.5474123,38.354609 Z M53.851397,18.1442374 L53.851397,32.4877211 C53.851397,33.2174942 53.2675832,33.8090923 52.5474123,33.8090923 L39.8531215,33.8090923 C39.1329506,33.8090923 38.5491368,33.2174942 38.5491368,32.4877211 L38.5491368,18.1508442 C38.5491368,17.4210711 39.1329506,16.8294731 39.8531215,16.8294731 L52.5474123,16.8294731 C53.2675832,16.8294731 53.851397,17.4210711 53.851397,18.1508442 L53.851397,18.1442374 Z M51.2434276,19.4656085 L41.1571061,19.4656085 L41.1571061,31.16635 L51.2434276,31.16635 L51.2434276,19.4656085 Z M0.198947368,41.7703534 L0.198947368,16.0036161 C0.198947379,15.273843 0.782761203,14.682245 1.50293205,14.682245 C2.22310289,14.682245 2.80691672,15.273843 2.80691673,16.0036161 L2.80691673,41.7703534 C2.90977776,44.8203791 5.37958023,47.2390441 8.39123112,47.2390441 C11.402882,47.2390441 13.8726845,44.8203791 13.9755455,41.7703534 L13.9755455,2.08297114 C13.9755455,1.35319801 14.5593593,0.7616 15.2795302,0.7616 L61.2449901,0.7616 C61.965161,0.7616 62.5489748,1.35319801 62.5489748,2.08297114 L62.5489748,42.9463737 C62.5507154,44.8398798 61.8082978,46.656147 60.4857806,47.9938182 C59.1632634,49.3314895 57.3695227,50.0804413 55.5009376,50.075171 L8.39449108,50.075171 C3.86970736,50.0715277 0.202542749,46.3554675 0.198947368,41.7703534 L0.198947368,41.7703534 Z M14.3797808,47.4324287 L55.5009376,47.4324287 C56.6733292,47.4324287 57.7977028,46.9604882 58.6267088,46.1204287 C59.4557149,45.2803692 59.9214457,44.1410041 59.9214457,42.9529806 L59.9214457,3.40434228 L16.5900348,3.40434228 L16.5900348,41.7703534 C16.5922988,43.872933 15.8043261,45.8974788 14.3863007,47.4324287 L14.3797808,47.4324287 Z M7.0905064,16.2811041 L7.0905064,41.7505328 C7.0905064,42.4803059 7.67432022,43.071904 8.39449108,43.071904 C9.11466193,43.071904 9.69847576,42.4803059 9.69847576,41.7505328 L9.69847576,16.2811041 C9.69847576,15.5513309 9.11466193,14.9597329 8.39449108,14.9597329 C7.67432022,14.9597329 7.0905064,15.5513309 7.0905064,16.2811041 Z" id="Shape"></path>
                                </g>
                            </g>
                        </g>
                    </g>
                </g>
            </g>
        </g>
    </g>
</svg>
