<?xml version="1.0" encoding="UTF-8"?>
<svg width="82px" height="82px" viewBox="0 0 82 82" version="1.1" xmlns="http://www.w3.org/2000/svg" xmlns:xlink="http://www.w3.org/1999/xlink">
    <!-- Generator: Sketch 42 (36781) - http://www.bohemiancoding.com/sketch -->
    <title>noun_639645_cc</title>
    <desc>Created with Sketch.</desc>
    <defs></defs>
    <g id="Website" stroke="none" stroke-width="1" fill="none" fill-rule="evenodd">
        <g id="Final-concept" transform="translate(-1026.000000, -1082.000000)">
            <g id="services" transform="translate(278.000000, 893.000000)">
                <g id="parks" transform="translate(731.000000, 190.000000)">
                    <g id="noun_639645_cc" transform="translate(18.000000, 0.000000)">
                        <g id="Group" transform="translate(17.000000, 24.000000)" fill="#FFFFFF">
                            <g id="Shape">
                                <path d="M46,12.6469274 C46,11.8726257 45.2937008,11.4393855 44.6688976,11.0522346 C44.5240157,10.9600559 44.2976378,10.8217877 44.161811,10.7203911 C44.2614173,10.5636872 44.4334646,10.351676 44.542126,10.2041899 C44.9948819,9.64189944 45.5019685,8.99664804 45.2484252,8.27765363 C44.9858268,7.54944134 44.1889764,7.39273743 43.473622,7.25446927 C43.3015748,7.21759777 43.0389764,7.17150838 42.8759843,7.11620112 C42.9122047,6.94106145 43.0027559,6.68296089 43.0570866,6.50782123 C43.2925197,5.81648045 43.5551181,5.03296089 43.0661417,4.44301676 C42.5862205,3.85307263 41.7712598,3.98212291 41.0649606,4.10195531 C40.8838583,4.12960894 40.6212598,4.17569832 40.4492126,4.1849162 C40.4311024,4.00977654 40.4220472,3.73324022 40.4220472,3.55810056 C40.4129921,2.82067039 40.3948819,1.99106145 39.7429134,1.60391061 C39.0909449,1.21675978 38.3846457,1.62234637 37.7507874,1.9726257 C37.5968504,2.06480447 37.3523622,2.19385475 37.1893701,2.26759777 C37.107874,2.11089385 37.0173228,1.86201117 36.953937,1.69608939 C36.6913386,1.0047486 36.3925197,0.230446927 35.65,0.0921787709 C34.9165354,-0.0368715084 34.3822835,0.580726257 33.9204724,1.13379888 C33.7937008,1.27206704 33.6125984,1.49329609 33.4767717,1.61312849 C33.3409449,1.49329609 33.1598425,1.27206704 33.0330709,1.13379888 C32.5622047,0.589944134 32.0370079,-0.0368715084 31.3035433,0.0921787709 C30.5519685,0.22122905 30.2622047,1.0047486 29.9996063,1.69608939 C29.9362205,1.86201117 29.8456693,2.11089385 29.7641732,2.26759777 C29.6011811,2.19385475 29.365748,2.06480447 29.2027559,1.9726257 C28.5779528,1.62234637 27.8625984,1.21675978 27.2106299,1.60391061 C26.5586614,1.99106145 26.5405512,2.82067039 26.5314961,3.55810056 C26.5314961,3.7424581 26.5224409,4.00977654 26.5043307,4.1849162 C26.3232283,4.17569832 26.0606299,4.12960894 25.8885827,4.10195531 C25.1732283,3.99134078 24.3673228,3.8622905 23.8874016,4.44301676 C23.4074803,5.03296089 23.6700787,5.81648045 23.8964567,6.50782123 C23.9507874,6.68296089 24.0413386,6.94106145 24.0775591,7.11620112 C23.9055118,7.17150838 23.6519685,7.21759777 23.4799213,7.25446927 C22.773622,7.39273743 21.9677165,7.55865922 21.7051181,8.27765363 C21.4515748,8.99664804 21.9586614,9.63268156 22.4114173,10.2041899 C22.5291339,10.351676 22.692126,10.5636872 22.7917323,10.7203911 C22.6559055,10.8310056 22.4295276,10.9600559 22.2846457,11.0522346 C21.6598425,11.4301676 20.9535433,11.8634078 20.9535433,12.6469274 C20.9535433,13.4212291 21.6598425,13.8544693 22.2846457,14.2416201 C22.4295276,14.3337989 22.6559055,14.472067 22.7917323,14.5734637 C22.692126,14.7301676 22.5291339,14.9421788 22.4114173,15.0896648 C21.9586614,15.6519553 21.4515748,16.2972067 21.7051181,17.0162011 C21.9677165,17.7351955 22.7645669,17.9011173 23.4799213,18.0393855 C23.6519685,18.076257 23.9145669,18.1223464 24.0775591,18.1776536 C24.0413386,18.3527933 23.9507874,18.6108939 23.8964567,18.7860335 C23.6610236,19.4773743 23.3984252,20.2608939 23.8874016,20.850838 C24.3673228,21.4407821 25.1732283,21.3117318 25.8885827,21.1918994 C26.069685,21.1642458 26.3322835,21.1181564 26.5043307,21.1089385 C26.5224409,21.2840782 26.5314961,21.5606145 26.5314961,21.7357542 C26.5405512,22.4731844 26.5586614,23.3027933 27.2106299,23.6899441 C27.8625984,24.077095 28.5688976,23.6715084 29.2027559,23.3212291 C29.3566929,23.2290503 29.6011811,23.1 29.7641732,23.026257 C29.8456693,23.1829609 29.9362205,23.4318436 29.9996063,23.5977654 C30.207874,24.1600559 30.4433071,24.7776536 30.9232283,25.0634078 L30.9232283,32.926257 L32.4354331,32.926257 L32.4354331,21.4039106 L33.9476378,21.4039106 L33.9476378,32.9354749 L35.4598425,32.9354749 L35.4598425,25.2293296 L35.4688976,25.2293296 C35.5322835,25.2293296 35.5956693,25.2201117 35.6590551,25.2108939 C36.4106299,25.0818436 36.7003937,24.298324 36.9629921,23.6069832 C37.026378,23.4410615 37.1169291,23.1921788 37.1984252,23.0354749 C37.3614173,23.1092179 37.5968504,23.2382682 37.7598425,23.3304469 C38.3846457,23.6807263 39.1,24.0863128 39.7519685,23.699162 C40.403937,23.3120112 40.4220472,22.4824022 40.4311024,21.7449721 C40.4311024,21.5606145 40.4401575,21.2932961 40.4582677,21.1181564 C40.6393701,21.1273743 40.9019685,21.1734637 41.0740157,21.2011173 C41.7893701,21.3117318 42.5952756,21.4407821 43.0751969,20.8600559 C43.5551181,20.2701117 43.2925197,19.4865922 43.0661417,18.7952514 C43.011811,18.6201117 42.9212598,18.3620112 42.8850394,18.1868715 C43.0570866,18.1315642 43.3106299,18.0854749 43.4826772,18.0486034 C44.1889764,17.9103352 44.9948819,17.7444134 45.2574803,17.025419 C45.5110236,16.3064246 45.003937,15.6703911 44.5511811,15.0988827 C44.4334646,14.9513966 44.2704724,14.7393855 44.1708661,14.5826816 C44.3066929,14.472067 44.5330709,14.3430168 44.6779528,14.250838 C45.2937008,13.8544693 46,13.4212291 46,12.6469274 Z M43.8901575,12.9234637 C43.3106299,13.273743 42.7129921,13.6424581 42.6043307,14.2877095 C42.4956693,14.9421788 42.9393701,15.5044693 43.3649606,16.048324 C43.4464567,16.1497207 43.5641732,16.2972067 43.6547244,16.426257 C43.5007874,16.4631285 43.3106299,16.5 43.1838583,16.5276536 C42.5228346,16.6567039 41.8346457,16.7949721 41.5086614,17.3664804 C41.1826772,17.9379888 41.4090551,18.6201117 41.626378,19.274581 C41.6716535,19.4036313 41.7259843,19.5787709 41.7712598,19.7354749 C41.6173228,19.7170391 41.4271654,19.6893855 41.2913386,19.6709497 C40.6212598,19.5603352 39.9240157,19.4497207 39.4259843,19.8829609 C38.9279528,20.3069832 38.9188976,21.0259777 38.9007874,21.7173184 C38.9007874,21.8555866 38.8917323,22.049162 38.8826772,22.2058659 C38.7377953,22.1321229 38.5838583,22.049162 38.4661417,21.9846369 C37.8685039,21.6527933 37.2527559,21.302514 36.6370079,21.5329609 C36.030315,21.7541899 35.7767717,22.4178771 35.5322835,23.0631285 C35.5051181,23.1368715 35.4688976,23.2290503 35.4326772,23.3212291 L35.4326772,19.873743 L30.9051181,19.873743 L30.9051181,22.0307263 C30.7511811,21.8002793 30.5519685,21.6251397 30.280315,21.523743 C29.6645669,21.2932961 29.0488189,21.6435754 28.4511811,21.975419 C28.3334646,22.0399441 28.1704724,22.1321229 28.0346457,22.196648 C28.0255906,22.0307263 28.0165354,21.8463687 28.0165354,21.7081006 C28.0074803,21.0167598 27.9893701,20.2977654 27.4913386,19.873743 C26.9933071,19.4497207 26.296063,19.5603352 25.6259843,19.6617318 C25.4901575,19.6801676 25.3090551,19.7078212 25.1551181,19.726257 C25.2003937,19.5695531 25.2547244,19.3944134 25.3,19.2653631 C25.5173228,18.6108939 25.7527559,17.9287709 25.4177165,17.3572626 C25.0917323,16.7857542 24.4035433,16.647486 23.7425197,16.5184358 C23.6066929,16.4907821 23.4255906,16.4539106 23.2716535,16.4170391 C23.3622047,16.2879888 23.4799213,16.1405028 23.5614173,16.0391061 C23.996063,15.4952514 24.4397638,14.9329609 24.3220472,14.2784916 C24.2133858,13.6332402 23.615748,13.2645251 23.0362205,12.9142458 C22.9094488,12.8405028 22.7464567,12.7298883 22.6015748,12.6377095 C22.7374016,12.5455307 22.9094488,12.4349162 23.0362205,12.3611732 C23.615748,12.0108939 24.2133858,11.6421788 24.3220472,10.9969274 C24.4307087,10.3424581 23.9870079,9.7801676 23.5614173,9.23631285 C23.4799213,9.1349162 23.3622047,8.98743017 23.2716535,8.85837989 C23.4255906,8.82150838 23.6066929,8.78463687 23.7425197,8.75698324 C24.4035433,8.62793296 25.0917323,8.4896648 25.4177165,7.91815642 C25.7437008,7.34664804 25.5173228,6.66452514 25.3,6.01005587 C25.2547244,5.88100559 25.2003937,5.70586592 25.1551181,5.54916201 C25.3090551,5.56759777 25.4992126,5.5952514 25.6350394,5.61368715 C26.3051181,5.72430168 27.0023622,5.8349162 27.5003937,5.40167598 C27.9984252,4.97765363 28.0074803,4.25865922 28.0255906,3.56731844 C28.0255906,3.42905028 28.0346457,3.23547486 28.0437008,3.07877095 C28.1885827,3.15251397 28.3425197,3.23547486 28.4602362,3.3 C29.057874,3.63184358 29.673622,3.98212291 30.2893701,3.75167598 C30.896063,3.53044693 31.1496063,2.86675978 31.3940945,2.22150838 C31.4393701,2.0924581 31.511811,1.90810056 31.5751969,1.76061453 C31.6838583,1.87122905 31.8015748,2.00949721 31.8830709,2.11089385 C32.3358268,2.63631285 32.8066929,3.1801676 33.4586614,3.1801676 C34.119685,3.1801676 34.5814961,2.63631285 35.034252,2.11089385 C35.1248031,2.00949721 35.2334646,1.87122905 35.342126,1.76061453 C35.4055118,1.90810056 35.4779528,2.0924581 35.5232283,2.22150838 C35.7677165,2.86675978 36.0212598,3.53044693 36.6279528,3.75167598 C37.2437008,3.98212291 37.8594488,3.63184358 38.4570866,3.3 C38.5748031,3.23547486 38.7377953,3.14329609 38.873622,3.07877095 C38.8826772,3.24469274 38.8917323,3.42905028 38.8917323,3.56731844 C38.9007874,4.25865922 38.9188976,4.97765363 39.4169291,5.40167598 C39.9149606,5.82569832 40.6122047,5.7150838 41.2822835,5.61368715 C41.4181102,5.5952514 41.5992126,5.56759777 41.7531496,5.54916201 C41.707874,5.70586592 41.6535433,5.88100559 41.6082677,6.01005587 C41.3909449,6.66452514 41.1555118,7.34664804 41.4905512,7.91815642 C41.8165354,8.4896648 42.5047244,8.62793296 43.165748,8.75698324 C43.3015748,8.78463687 43.4826772,8.82150838 43.6366142,8.85837989 C43.546063,8.98743017 43.4283465,9.12569832 43.3468504,9.23631285 C42.9122047,9.7801676 42.4685039,10.3424581 42.5862205,10.9969274 C42.6948819,11.6421788 43.2925197,12.0108939 43.8720472,12.3611732 C43.9988189,12.4349162 44.161811,12.5455307 44.3066929,12.6377095 C44.1889764,12.7391061 44.0169291,12.8497207 43.8901575,12.9234637 Z"></path>
                                <path d="M31.3940945,8.31452514 L31.3940945,6.77513966 C29.5649606,6.77513966 28.0799213,8.28687151 28.0799213,10.1488827 L29.592126,10.1488827 C29.5830709,9.1349162 30.3980315,8.31452514 31.3940945,8.31452514 Z"></path>
                                <path d="M28.3334646,13.9097765 L28.2700787,13.9097765 L28.2972441,15.449162 C29.3114173,15.4583799 30.1173228,16.2418994 30.1354331,17.2558659 L31.6476378,17.2282123 C31.6114173,15.3846369 30.1354331,13.9097765 28.3334646,13.9097765 Z"></path>
                                <path d="M39.4440945,10.2041899 C38.6472441,9.80782123 37.7507874,9.74329609 36.9086614,10.0290503 L37.3885827,11.4854749 C37.8503937,11.3287709 38.3393701,11.3656425 38.7649606,11.5776536 C39.1996063,11.7988827 39.5165354,12.1768156 39.6704724,12.6377095 L41.1011811,12.149162 C40.8295276,11.2918994 40.2318898,10.6005587 39.4440945,10.2041899 Z"></path>
                                <path d="M20.3649606,18.3435754 L18.8527559,18.3435754 L18.8527559,19.8829609 L3.76692913,19.8829609 L3.76692913,18.3435754 L2.26377953,18.3435754 L2.26377953,26.022067 L0,26.022067 L0,30.6310056 L2.26377953,30.6310056 L2.26377953,32.9354749 L3.77598425,32.9354749 L3.77598425,30.6310056 L18.861811,30.6310056 L18.861811,32.9354749 L20.3740157,32.9354749 L20.3740157,30.6310056 L22.6377953,30.6310056 L22.6377953,26.022067 L20.3740157,26.022067 L20.3740157,18.3435754 L20.3649606,18.3435754 Z M3.76692913,21.4223464 L18.8527559,21.4223464 L18.8527559,22.952514 L3.76692913,22.952514 L3.76692913,21.4223464 Z M3.76692913,24.4918994 L18.8527559,24.4918994 L18.8527559,26.0312849 L3.76692913,26.0312849 L3.76692913,24.4918994 Z M21.1165354,27.5614525 L21.1165354,29.100838 L1.51220472,29.100838 L1.51220472,27.5614525 L21.1165354,27.5614525 Z"></path>
                            </g>
                        </g>
                        <ellipse id="Oval-7" stroke="#FFFFFF" stroke-width="2" cx="40" cy="40" rx="40" ry="40"></ellipse>
                    </g>
                </g>
            </g>
        </g>
    </g>
</svg>