<?xml version="1.0" encoding="UTF-8"?>
<svg width="67px" height="67px" viewBox="0 0 67 67" version="1.1" xmlns="http://www.w3.org/2000/svg" xmlns:xlink="http://www.w3.org/1999/xlink">
    <!-- Generator: Sketch 42 (36781) - http://www.bohemiancoding.com/sketch -->
    <title>Group 2</title>
    <desc>Created with Sketch.</desc>
    <defs></defs>
    <g id="Website" stroke="none" stroke-width="1" fill="none" fill-rule="evenodd">
        <g id="Final-concept" transform="translate(-388.000000, -3657.000000)">
            <g id="city-govt" transform="translate(150.000000, 3132.000000)">
                <g id="Group-2" transform="translate(239.000000, 526.000000)">
                    <g id="noun_603825_cc" transform="translate(14.363636, 16.363636)" fill="#fff">
                        <g id="Group">
                            <path d="M19.7417355,4.76010101 C19.7417355,7.38501111 21.8501529,9.52020202 24.4421488,9.52020202 C27.0341446,9.52020202 29.142562,7.38501111 29.142562,4.76010101 C29.142562,2.13519091 27.0341446,0 24.4421488,0 C21.8501529,0 19.7417355,2.13519091 19.7417355,4.76010101 Z M27.2623967,4.76010101 C27.2623967,6.33512323 25.9974215,7.61616162 24.4421488,7.61616162 C22.886876,7.61616162 21.6219008,6.33512323 21.6219008,4.76010101 C21.6219008,3.18507879 22.886876,1.9040404 24.4421488,1.9040404 C25.9974215,1.9040404 27.2623967,3.18507879 27.2623967,4.76010101 Z" id="Shape"></path>
                            <path d="M24.3248264,10.4722222 C19.5146116,10.4722222 15.7463843,12.929196 15.7463843,16.0655313 L15.7463843,17.6127545 C15.7463843,18.1386505 16.1671653,18.5647747 16.6864669,18.5647747 L31.9628099,18.5647747 C32.4821116,18.5647747 32.9028926,18.1386505 32.9028926,17.6127545 L32.9028926,16.0655313 C32.9028926,12.929196 29.1346653,10.4722222 24.3248264,10.4722222 Z M31.0227273,16.6603535 L17.6265496,16.6603535 L17.6265496,16.0651505 C17.6265496,14.0655273 20.6938512,12.3758818 24.3248264,12.3758818 C27.9558017,12.3758818 31.0227273,14.0659081 31.0227273,16.0655313 L31.0227273,16.6603535 Z" id="Shape"></path>
                            <path d="M16.4040661,33.0065404 C17.8066694,33.834798 19.405938,34.2727273 21.0292727,34.2727273 C23.4813843,34.2727273 25.7864669,33.3054747 27.5203554,31.5499495 C29.1726446,29.8766788 30.0826446,27.6516172 30.0826446,25.2848949 L30.0826446,24.7525253 C30.0826446,24.3557232 29.8397273,24.0004293 29.472719,23.8610535 L21.9520579,21.0049929 C21.6061074,20.8736141 21.2176653,20.959296 20.9570744,21.223196 L18.6880909,23.5209919 C15.5350537,21.2848869 12.8249835,18.5400222 10.6169174,15.3473273 L12.8859008,13.0495313 C13.1464917,12.7856313 13.2307231,12.3914949 13.1013678,12.0419131 L10.2811198,4.42575152 C10.1434917,4.05408283 9.79265289,3.80808081 9.40082645,3.80808081 L8.87513223,3.80808081 C6.53846281,3.80808081 4.34130165,4.72963636 2.6890124,6.40290707 C0.955123967,8.15881313 0,10.4935475 0,12.9764162 C0,14.6203646 0.432438017,16.2399414 1.25030992,17.6603556 C4.90271901,24.0011909 10.1427397,29.3077515 16.4040661,33.0065404 Z M1.88016529,12.9764162 C1.88016529,11.0019263 2.63937603,9.14548687 4.01828926,7.74906364 C5.28627273,6.4653596 6.96225207,5.74525152 8.74991322,5.71288283 L11.1283223,12.1363535 L8.73637603,14.5590545 C8.41938017,14.8796949 8.37011983,15.3827424 8.61867769,15.7601232 C11.1828471,19.6554091 14.4336529,22.9474949 18.280095,25.5442253 C18.6531198,25.7963202 19.1498595,25.7460535 19.4661033,25.4250323 L21.8584256,23.0027121 L28.2013512,25.4113232 C28.1697645,27.2216848 27.4583099,28.9189465 26.1907025,30.2030313 C24.8121653,31.5998354 22.9790041,32.3686869 21.0292727,32.3686869 C19.7383512,32.3686869 18.4666074,32.0202475 17.3512934,31.3614495 C11.3697355,27.8279313 6.36360744,22.7586141 2.87439669,16.7007192 C2.22423554,15.5716232 1.88016529,14.2837303 1.88016529,12.9764162 Z" id="Shape"></path>
                        </g>
                    </g>
                    <circle id="Oval-10" stroke="#fff" stroke-width="2" cx="32.5" cy="32.5" r="32.5"></circle>
                </g>
            </g>
        </g>
    </g>
</svg>
