<?xml version="1.0" encoding="UTF-8"?>
<svg width="67px" height="67px" viewBox="0 0 67 67" version="1.1" xmlns="http://www.w3.org/2000/svg" xmlns:xlink="http://www.w3.org/1999/xlink">
    <!-- Generator: Sketch 42 (36781) - http://www.bohemiancoding.com/sketch -->
    <title>noun_693907_cc</title>
    <desc>Created with Sketch.</desc>
    <defs></defs>
    <g id="Website" stroke="none" stroke-width="1" fill="none" fill-rule="evenodd">
        <g id="Final-concept" transform="translate(-990.000000, -3657.000000)">
            <g id="city-govt" transform="translate(150.000000, 3132.000000)">
                <g id="noun_693907_cc" transform="translate(841.000000, 526.000000)">
                    <g id="Group" transform="translate(13.000000, 19.000000)" fill="#fff">
                        <g id="Shape">
                            <path d="M9.1675,22.8643729 C8.70734375,22.8643729 8.33382812,23.2413446 8.33382812,23.7084859 C8.33382812,24.1731751 8.70734375,24.5511751 9.1675,24.5511751 C9.62773437,24.5511751 10.000625,24.1731751 10.000625,23.7084859 C10.000625,23.2413446 9.62773437,22.8643729 9.1675,22.8643729 Z"></path>
                            <path d="M38.4790625,15.794452 C37.0350781,14.4541695 34.5327344,14.4133559 29.634375,14.4120904 C29.2474219,13.8189492 28.4296875,12.7259209 27.0759375,11.6402486 C25.6295312,10.481096 23.3152344,9.1420791 20,8.67493785 L20,6.82314124 C20,6.35718644 19.6271875,5.97910734 19.1669531,5.97910734 L15.8321875,5.97910734 C15.3719531,5.97910734 14.9985156,6.35718644 14.9985156,6.82314124 L14.9985156,8.67493785 C11.6832812,9.1420791 9.3653125,10.4798305 7.91703125,11.6377966 C6.5596875,12.7233898 5.73882812,13.8164972 5.35,14.4090056 L2.50109375,14.4090056 C2.28015625,14.4090056 2.06835937,14.4979887 1.91210937,14.6561808 L0.245390625,16.3431412 C0.089140625,16.5013333 0.00125,16.7163955 0.00125,16.9399209 L0.00125,22.8643729 C0.00125,23.1003955 0.09828125,23.3240791 0.26859375,23.4835367 C0.47546875,23.6775593 2.34242187,25.3767797 4.15203125,25.3767797 L5.3415625,25.3767797 C5.98179687,26.8747006 7.45507812,27.9262034 9.16765625,27.9262034 C10.8796094,27.9262034 12.3535156,26.8746215 12.99375,25.3767797 L27.0065625,25.3767797 C27.64625,26.8747006 29.1207031,27.9262034 30.8321094,27.9262034 C32.5458594,27.9262034 34.0191406,26.8746215 34.6586719,25.3767797 L39.1664062,25.3767797 C39.6253906,25.3767797 39.9989062,24.9986215 39.9989062,24.5326667 C39.99875,19.6525198 39.99875,17.2031525 38.4790625,15.794452 Z M26.6670312,23.6887119 L13.3335156,23.6887119 C13.323125,21.3728588 11.4585937,19.4893446 9.1675,19.4893446 L9.1675,16.0959661 L28.3344531,16.0959661 L28.3344531,20.3347232 C27.3261719,21.1009266 26.671875,22.3194011 26.6670312,23.6887119 Z M27.5374219,14.4090056 L16.6671094,14.4090056 L16.6671094,10.2116949 C16.93875,10.1987232 17.2157813,10.1906554 17.5002344,10.1906554 C20.8399219,10.1906554 23.69125,11.1064294 25.97625,12.9112429 C26.6377344,13.4340678 27.1528906,13.9598192 27.5374219,14.4090056 Z M16.6652344,7.66654237 L18.3332812,7.66654237 L18.3332812,8.52236158 C18.0610937,8.5100226 17.7839844,8.50385311 17.5001562,8.50385311 C17.2163281,8.50385311 16.9380469,8.5100226 16.6652344,8.52236158 L16.6652344,7.66654237 Z M15.0003125,10.3796949 L15.0003125,14.4089266 L7.44765625,14.4089266 C8.6103125,13.0583616 10.9825781,11.0062938 15.0003125,10.3796949 Z M2.84648437,16.0959661 L3.33414062,16.0959661 L3.33414062,16.9399209 L2.0128125,16.9399209 L2.84648437,16.0959661 Z M4.16109375,23.6887119 L4.15132812,23.6887119 C3.33109375,23.6887119 2.23796875,22.9397514 1.66796875,22.4750621 L1.66796875,18.6268814 L4.1678125,18.6268814 C4.62804687,18.6268814 5.0009375,18.2487232 5.0009375,17.7840339 L5.0009375,16.0959661 L5.81570312,16.0959661 L7.50078125,16.0959661 L7.50078125,19.8428249 C6.03601562,20.4929153 5.00890625,21.9708249 5.0015625,23.6887119 L4.1678125,23.6887119 L4.16109375,23.6887119 Z M9.1675,26.2394011 C7.78882813,26.2394011 6.66765625,25.103661 6.66765625,23.7084859 C6.66765625,22.3119661 7.78882813,21.1775706 9.1675,21.1775706 C10.545625,21.1775706 11.6673438,22.3119661 11.6673438,23.7084859 C11.6673438,25.103661 10.545625,26.2394011 9.1675,26.2394011 Z M30.831875,26.2394011 C29.4549219,26.2394011 28.3320313,25.103661 28.3320313,23.7084859 C28.3320313,22.3119661 29.4549219,21.1775706 30.831875,21.1775706 C32.2110938,21.1775706 33.3317188,22.3119661 33.3317188,23.7084859 C33.3317188,25.103661 32.2111719,26.2394011 30.831875,26.2394011 Z M34.9990625,23.6887119 C34.9892969,21.3728588 33.1242187,19.4893446 30.831875,19.4893446 C30.5486719,19.4893446 30.2703125,19.5190056 30.0017969,19.5733446 L30.0017969,16.0996045 C33.9444531,16.103322 36.2245312,16.1527571 37.2376562,16.9398418 L35.821875,16.9398418 C35.3604687,16.9398418 34.988125,17.3168136 34.988125,17.7839548 C34.988125,18.2486441 35.3604687,18.6268023 35.821875,18.6268023 L38.08,18.6268023 C38.3046094,19.7698192 38.3290625,21.4271186 38.3314844,23.6886328 L34.9990625,23.6886328 L34.9990625,23.6887119 Z"></path>
                            <path d="M30.831875,22.8643729 C30.3728906,22.8643729 29.999375,23.2413446 29.999375,23.7084859 C29.999375,24.1731751 30.3728906,24.5511751 30.831875,24.5511751 C31.2932031,24.5511751 31.6667187,24.1731751 31.6667187,23.7084859 C31.6667187,23.2413446 31.2932812,22.8643729 30.831875,22.8643729 Z"></path>
                            <path d="M17.4916406,5.13562712 C17.9517969,5.13562712 18.3253125,4.75818079 18.3253125,4.29222599 L18.3253125,0.917276836 C18.3253125,0.451322034 17.9517969,0.0737966102 17.4916406,0.0737966102 C17.0314844,0.0737966102 16.6585156,0.451322034 16.6585156,0.917276836 L16.6585156,4.29222599 C16.6585156,4.75810169 17.0314063,5.13562712 17.4916406,5.13562712 Z"></path>
                            <path d="M10.8635938,4.60117514 L13.7503906,6.2879774 C13.8816406,6.36462147 14.0250781,6.40108475 14.1660156,6.40108475 C14.4541406,6.40108475 14.7342188,6.24969492 14.8886719,5.97910734 C15.11875,5.57555932 14.9820313,5.05961582 14.5835156,4.82667797 L11.6973438,3.13987571 C11.2988281,2.90693785 10.7892188,3.04472316 10.5591406,3.44819209 C10.3289063,3.85158192 10.4650781,4.36760452 10.8635938,4.60117514 Z"></path>
                            <path d="M20.834375,6.40108475 C20.9753125,6.40108475 21.11875,6.36462147 21.2499219,6.2879774 L24.1366406,4.60117514 C24.5357813,4.36760452 24.6713281,3.85158192 24.440625,3.44819209 C24.2110938,3.04464407 23.7009375,2.90685876 23.3030469,3.13987571 L20.416875,4.82667797 C20.0182813,5.05961582 19.8815625,5.57563842 20.1117188,5.97910734 C20.2660938,6.25024859 20.54625,6.40108475 20.834375,6.40108475 Z"></path>
                            <path d="M21.7869531,18.4315932 L20.4925781,18.2412881 L19.9139844,17.0548475 C19.7735937,16.7658305 19.48375,16.5841469 19.1669531,16.5841469 C18.8496094,16.5841469 18.5596875,16.7658305 18.4192969,17.0548475 L17.8407031,18.2412881 L16.546875,18.4315932 C16.233125,18.4785763 15.9725,18.7009944 15.8742969,19.0050395 C15.7766406,19.3115367 15.8578125,19.6462712 16.0854687,19.8700339 L17.0217187,20.7945085 L16.8001562,22.099435 C16.7470312,22.4158192 16.8752344,22.7346554 17.1321875,22.9250395 C17.2774219,23.0313446 17.4489062,23.0856836 17.6216406,23.0856836 C17.7546875,23.0856836 17.8877344,23.0535706 18.0097656,22.9892655 L19.1669531,22.3725537 L20.3241406,22.9892655 C20.4467969,23.0534915 20.5798437,23.0856836 20.7141406,23.0856836 C21.1736719,23.0856836 21.5453906,22.7075254 21.5453906,22.2415706 C21.5453906,22.1773446 21.5392969,22.1143051 21.5258594,22.0549831 L21.3122656,20.7945085 L22.2484375,19.8700339 C22.4754687,19.6463503 22.5572656,19.3115367 22.4584375,19.0050395 C22.3607031,18.7010734 22.0994531,18.4785763 21.7869531,18.4315932 Z M19.8352344,19.8959774 C19.63875,20.09 19.5490625,20.3692881 19.5954688,20.6424859 L19.6052344,20.7005424 L19.5546094,20.6733333 C19.433125,20.6078418 19.3000781,20.5757288 19.1670313,20.5757288 C19.0339844,20.5757288 18.9003125,20.6078418 18.7788281,20.6733333 L18.72875,20.7005424 L18.7378906,20.6424859 C18.7842969,20.3693672 18.6951563,20.0900791 18.4986719,19.8959774 L18.4578125,19.8551638 L18.5139844,19.8477288 C18.785625,19.8081808 19.02,19.6351186 19.1414063,19.3854915 L19.1670313,19.3337627 L19.1920313,19.3854915 C19.3135156,19.6351186 19.5478906,19.8081808 19.819375,19.8477288 L19.8761719,19.8551638 L19.8352344,19.8959774 Z"></path>
                        </g>
                    </g>
                    <circle id="Oval-12" stroke="#fff" stroke-width="2" cx="32.5" cy="32.5" r="32.5"></circle>
                </g>
            </g>
        </g>
    </g>
</svg>
