<?xml version="1.0" encoding="UTF-8"?>
<svg width="80px" height="81px" viewBox="0 0 80 81" version="1.1" xmlns="http://www.w3.org/2000/svg" xmlns:xlink="http://www.w3.org/1999/xlink">
    <!-- Generator: Sketch 42 (36781) - http://www.bohemiancoding.com/sketch -->
    <title>noun_325002_cc</title>
    <desc>Created with Sketch.</desc>
    <defs></defs>
    <g id="Website" stroke="none" stroke-width="1" fill="none" fill-rule="evenodd">
        <g id="Final-concept" transform="translate(-1029.000000, -893.000000)" fill="#FFFFFF">
            <g id="services" transform="translate(278.000000, 893.000000)">
                <g id="bloomington" transform="translate(703.000000, 0.000000)">
                    <g id="noun_325002_cc" transform="translate(48.000000, 0.000000)">
                        <g id="Group">
                            <g transform="translate(0.000000, 0.637800)" id="Shape">
                                <path d="M40,0 C17.9234097,0 0,17.9235 0,40 C0,62.0765 17.9234097,80 40,80 C62.076565,80 80,62.0765 80,40 C80,17.9235 62.076565,0 40,0 Z M40,2.5 C60.72548,2.5 77.5,19.2745 77.5,40 C77.5,60.7255 60.72548,77.5 40,77.5 C19.274495,77.5 2.5,60.7255 2.5,40 C2.5,19.2745 19.274495,2.5 40,2.5 Z M38.515625,21.25 C38.248,21.3375 38.032925,21.59375 38.046875,21.875 L38.046875,41.875 L21.875,41.875 L21.71875,41.875 C21.421775,41.9325 21.24465,42.275875 21.25,42.578125 L21.25,58.125 C21.250025,58.46425 21.535775,58.828125 21.875,58.828125 L38.671875,58.828125 L40.703125,58.828125 L40.703125,51.640625 C40.70125,51.326625 40.938625,51.054625 41.25,51.015625 L41.328125,51.015625 L46.484375,51.015625 C46.823575,51.015625 47.187475,51.301375 47.1875,51.640625 L47.1875,58.828125 L49.0625,58.828125 C49.075,58.828625 49.128875,58.828125 49.140625,58.828125 L58.125,58.828125 C58.464225,58.828125 58.74995,58.46425 58.75,58.125 L58.75,32.265625 C58.74995,31.926375 58.464225,31.5625 58.125,31.5625 L49.6875,31.5625 L49.6875,21.875 C49.68745,21.536 49.4017,21.25 49.0625,21.25 L38.671875,21.25 C38.604875,21.225 38.582875,21.225 38.515625,21.25 Z M27.65625,22.8125 C26.621425,24.59075 24.9502,25.6635 21.875,25.625 C21.535775,25.625 21.250025,25.91075 21.25,26.25 C21.25,27.38 21.373575,28.522875 21.5625,29.609375 L27.65625,29.609375 L27.65625,22.8125 Z M28.984375,22.890625 L28.984375,29.609375 L35.078125,29.609375 C35.271625,28.517875 35.390625,27.3745 35.390625,26.25 C35.391225,25.92375 35.169225,25.6455 34.84375,25.625 C31.5461,25.321 29.686325,24.375875 28.984375,22.890625 Z M40.625,23.671875 L41.328125,23.671875 L42.578125,23.671875 L43.203125,23.671875 L43.203125,24.296875 L43.203125,25.625 L43.203125,26.25 L42.578125,26.25 L41.328125,26.25 L40.625,26.25 L40.625,25.625 L40.625,24.296875 L40.625,23.671875 Z M44.53125,23.671875 L45.15625,23.671875 L46.484375,23.671875 L47.109375,23.671875 L47.109375,24.296875 L47.109375,25.625 L47.109375,26.25 L46.484375,26.25 L45.15625,26.25 L44.53125,26.25 L44.53125,25.625 L44.53125,24.296875 L44.53125,23.671875 Z M40.625,27.578125 L41.328125,27.578125 L42.578125,27.578125 L43.203125,27.578125 L43.203125,28.203125 L43.203125,29.53125 L43.203125,30.15625 L42.578125,30.15625 L41.328125,30.15625 L40.625,30.15625 L40.625,29.53125 L40.625,28.203125 L40.625,27.578125 Z M44.53125,27.578125 L45.15625,27.578125 L46.484375,27.578125 L47.109375,27.578125 L47.109375,28.203125 L47.109375,29.53125 L47.109375,30.15625 L46.484375,30.15625 L45.15625,30.15625 L44.53125,30.15625 L44.53125,29.53125 L44.53125,28.203125 L44.53125,27.578125 Z M21.875,30.9375 C22.10625,31.814 22.33745,32.649 22.734375,33.4375 C23.739375,35.4335 25.328125,37.06775 27.65625,37.96875 L27.65625,30.9375 L21.875,30.9375 Z M28.984375,30.9375 L28.984375,37.96875 C31.314975,37.06375 32.902175,35.44225 33.90625,33.4375 C34.297025,32.65725 34.6135,31.798 34.84375,30.9375 L28.984375,30.9375 Z M40.625,31.484375 L41.328125,31.484375 L42.578125,31.484375 L43.203125,31.484375 L43.203125,32.109375 L43.203125,33.4375 L43.203125,34.0625 L42.578125,34.0625 L41.328125,34.0625 L40.625,34.0625 L40.625,33.4375 L40.625,32.109375 L40.625,31.484375 Z M44.53125,31.484375 L45.15625,31.484375 L46.484375,31.484375 L47.109375,31.484375 L47.109375,32.109375 L47.109375,33.4375 L47.109375,34.0625 L46.484375,34.0625 L45.15625,34.0625 L44.53125,34.0625 L44.53125,33.4375 L44.53125,32.109375 L44.53125,31.484375 Z M51.015625,34.0625 L56.171875,34.0625 L56.171875,35.3125 L51.015625,35.3125 L51.015625,34.0625 Z M40.625,35.3125 L41.328125,35.3125 L42.578125,35.3125 L43.203125,35.3125 L43.203125,36.015625 L43.203125,37.265625 L43.203125,37.96875 L42.578125,37.96875 L41.328125,37.96875 L40.625,37.96875 L40.625,37.265625 L40.625,36.015625 L40.625,35.3125 Z M44.53125,35.3125 L45.15625,35.3125 L46.484375,35.3125 L47.109375,35.3125 L47.109375,36.015625 L47.109375,37.265625 L47.109375,37.96875 L46.484375,37.96875 L45.15625,37.96875 L44.53125,37.96875 L44.53125,37.265625 L44.53125,36.015625 L44.53125,35.3125 Z M51.015625,36.640625 L56.171875,36.640625 L56.171875,37.96875 L51.015625,37.96875 L51.015625,36.640625 Z M40.625,39.21875 L41.328125,39.21875 L42.578125,39.21875 L43.203125,39.21875 L43.203125,39.921875 L43.203125,41.171875 L43.203125,41.796875 L42.578125,41.796875 L41.328125,41.796875 L40.625,41.796875 L40.625,41.171875 L40.625,39.921875 L40.625,39.21875 Z M44.53125,39.21875 L45.15625,39.21875 L46.484375,39.21875 L47.109375,39.21875 L47.109375,39.921875 L47.109375,41.171875 L47.109375,41.796875 L46.484375,41.796875 L45.15625,41.796875 L44.53125,41.796875 L44.53125,41.171875 L44.53125,39.921875 L44.53125,39.21875 Z M51.015625,39.21875 L56.171875,39.21875 L56.171875,40.546875 L51.015625,40.546875 L51.015625,39.21875 Z M51.015625,41.796875 L56.171875,41.796875 L56.171875,43.125 L51.015625,43.125 L51.015625,41.796875 Z M40.625,43.125 L41.328125,43.125 L42.578125,43.125 L43.203125,43.125 L43.203125,43.75 L43.203125,45.078125 L43.203125,45.703125 L42.578125,45.703125 L41.328125,45.703125 L40.625,45.703125 L40.625,45.078125 L40.625,43.75 L40.625,43.125 Z M44.53125,43.125 L45.15625,43.125 L46.484375,43.125 L47.109375,43.125 L47.109375,43.75 L47.109375,45.078125 L47.109375,45.703125 L46.484375,45.703125 L45.15625,45.703125 L44.53125,45.703125 L44.53125,45.078125 L44.53125,43.75 L44.53125,43.125 Z M23.828125,44.453125 L36.796875,44.453125 L36.796875,45.703125 L23.828125,45.703125 L23.828125,44.453125 Z M51.015625,44.453125 L56.171875,44.453125 L56.171875,45.703125 L51.015625,45.703125 L51.015625,44.453125 Z M23.828125,47.03125 L36.796875,47.03125 L36.796875,48.28125 L23.828125,48.28125 L23.828125,47.03125 Z M40.625,47.03125 L41.328125,47.03125 L42.578125,47.03125 L43.203125,47.03125 L43.203125,47.65625 L43.203125,48.984375 L43.203125,49.609375 L42.578125,49.609375 L41.328125,49.609375 L40.625,49.609375 L40.625,48.984375 L40.625,47.65625 L40.625,47.03125 Z M44.53125,47.03125 L45.15625,47.03125 L46.484375,47.03125 L47.109375,47.03125 L47.109375,47.65625 L47.109375,48.984375 L47.109375,49.609375 L46.484375,49.609375 L45.15625,49.609375 L44.53125,49.609375 L44.53125,48.984375 L44.53125,47.65625 L44.53125,47.03125 Z M51.015625,47.03125 L56.171875,47.03125 L56.171875,48.28125 L51.015625,48.28125 L51.015625,47.03125 Z M23.828125,49.609375 L36.796875,49.609375 L36.796875,50.859375 L23.828125,50.859375 L23.828125,49.609375 Z M51.015625,49.609375 L56.171875,49.609375 L56.171875,50.859375 L51.015625,50.859375 L51.015625,49.609375 Z M23.828125,52.1875 L36.796875,52.1875 L36.796875,53.515625 L23.828125,53.515625 L23.828125,52.1875 Z M51.015625,52.1875 L56.171875,52.1875 L56.171875,53.515625 L51.015625,53.515625 L51.015625,52.1875 Z M41.953125,52.265625 L41.953125,58.828125 L45.859375,58.828125 L45.859375,52.265625 L41.953125,52.265625 Z M23.828125,54.765625 L36.796875,54.765625 L36.796875,56.09375 L23.828125,56.09375 L23.828125,54.765625 Z M51.015625,54.765625 L56.171875,54.765625 L56.171875,56.09375 L51.015625,56.09375 L51.015625,54.765625 Z"></path>
                            </g>
                        </g>
                    </g>
                </g>
            </g>
        </g>
    </g>
</svg>