<?xml version="1.0" encoding="UTF-8"?>
<svg width="68px" height="52px" viewBox="0 0 68 52" version="1.1" xmlns="http://www.w3.org/2000/svg" xmlns:xlink="http://www.w3.org/1999/xlink">
    <!-- Generator: Sketch 42 (36781) - http://www.bohemiancoding.com/sketch -->
    <title>noun_630666_cc</title>
    <desc>Created with Sketch.</desc>
    <defs></defs>
    <g id="Website" stroke="none" stroke-width="1" fill="none" fill-rule="evenodd">
        <g id="Final-concept" transform="translate(-295.000000, -62.000000)">
            <g id="top-nav" transform="translate(0.000000, 47.000000)">
                <g id="Top-Nav" transform="translate(209.000000, 13.000000)">
                    <g id="Services" transform="translate(0.000000, 3.000000)">
                        <g id="noun_630666_cc" transform="translate(86.000000, 0.000000)">
                            <g id="22Artboard-1" transform="translate(21.000000, 0.000000)" stroke-width="2" stroke="#fff">
                                <g id="noun_736357_cc">
                                    <g id="27--Web-Service--(development,-coding,-code,-programming)">
                                        <g id="Group">
                                            <g id="Shape">
                                                <g>
                                                    <path d="M20.25,13 C20.25,9.40983333 17.22825,6.5 13.5,6.5 C9.77175,6.5 6.75,9.40983333 6.75,13 C6.75,16.5901667 9.77175,19.5 13.5,19.5 C17.22825,19.5 20.25,16.5901667 20.25,13 L20.25,13 Z"></path>
                                                    <path d="M27,15.1666667 L27,10.8333333 L26.83875,10.8333333 C25.536,10.8333333 24.40425,10.0453889 23.90775,8.88622222 C23.901,8.87033333 23.89425,8.85444444 23.8875,8.83855556 C23.38275,7.67577778 23.598,6.34038889 24.5235,5.44916667 L24.63675,5.33938889 L21.45525,2.27572222 L21.34125,2.38477778 C20.41575,3.276 19.029,3.484 17.8215,2.99722222 C17.805,2.99072222 17.7885,2.98422222 17.772,2.97772222 C16.56825,2.49961111 15.75,1.40977778 15.75,0.155277778 L15.75,0 L11.25,0 L11.25,0.155277778 C11.25,1.40977778 10.43175,2.49961111 9.228,2.97772222 C9.2115,2.98422222 9.195,2.99072222 9.1785,2.99722222 C7.971,3.484 6.58425,3.276 5.65875,2.38477778 L5.54475,2.27572222 L2.36325,5.33938889 L2.4765,5.44916667 C3.402,6.34038889 3.61725,7.67577778 3.1125,8.83855556 C3.10575,8.85444444 3.099,8.87033333 3.09225,8.88622222 C2.59575,10.0453889 1.464,10.8333333 0.16125,10.8333333 L0,10.8333333 L0,15.1666667 L0.16125,15.1666667 C1.464,15.1666667 2.59575,15.9546111 3.09225,17.1137778 C3.099,17.1296667 3.10575,17.1455556 3.1125,17.1614444 C3.61725,18.3242222 3.402,19.6596111 2.4765,20.5508333 L2.36325,20.6606111 L5.54475,23.7242778 L5.65875,23.6152222 C6.58425,22.724 7.971,22.516 9.1785,23.0027778 C9.195,23.0092778 9.2115,23.0157778 9.228,23.0222778 C10.43175,23.5003889 11.25,24.5902222 11.25,25.8447222 L11.25,26 L15.75,26 L15.75,25.8447222 C15.75,24.5902222 16.56825,23.5003889 17.772,23.0222778 C17.7885,23.0157778 17.805,23.0092778 17.8215,23.0027778 C19.029,22.516 20.41575,22.724 21.34125,23.6152222 L21.45525,23.7242778 L24.63675,20.6606111 L24.5235,20.5508333 C23.598,19.6596111 23.38275,18.3242222 23.8875,17.1614444 C23.89425,17.1455556 23.901,17.1296667 23.90775,17.1137778 C24.40425,15.9546111 25.536,15.1666667 26.83875,15.1666667 L27,15.1666667 L27,15.1666667 Z"></path>
                                                </g>
                                            </g>
                                        </g>
                                    </g>
                                </g>
                            </g>
                            <path d="M66.8915097,30.3519692 C67.7004607,31.2338835 68.0972643,32.4310052 67.9796882,33.6349082 C67.8621121,34.8388111 67.2416535,35.9317717 66.2781672,36.6321999 L50.6038585,47.9017251 C47.771696,49.9246339 44.400263,51.0063173 40.9471214,50.9999722 L39.9453286,50.9999722 L15.3298491,49.325244 L15.254885,49.325244 C14.8439784,49.3249919 14.4368919,49.2444679 14.0554596,49.0879909 C13.3148304,49.891632 12.2984231,50.3694696 11.2204542,50.4207954 L5.4141451,50.6859607 C2.95498765,50.8331388 0.841619798,48.9186337 0.684592827,46.4014477 L0.0031011459,33.2059852 C-0.0407399427,32.0248731 0.3817567,30.8754404 1.17526684,30.0170236 C1.99282901,29.0968102 3.13700246,28.5512556 4.35101807,28.5027901 L10.1845869,28.2306468 C11.3832856,28.1771095 12.5469131,28.6521769 13.3807829,29.5355392 C16.2975672,28.6004826 21.5041637,27.1420735 29.5457655,30.4705958 C30.4894393,30.8368219 31.4700191,31.0942707 32.4693648,31.2381795 L37.4442541,32.1104338 L44.0410936,32.6058742 C46.0004697,32.7225686 47.5195584,34.4038342 47.4810817,36.4131134 C47.442605,38.4223925 45.860318,40.0413913 43.8979803,40.0793488 L30.1454782,40.9236909 C29.5857776,40.9478007 29.1087668,40.5119248 29.0687214,39.9397881 C29.0377205,39.3639906 29.467397,38.8709847 30.0296246,38.8372587 L43.8093864,38.0138507 C44.3031242,38.0175277 44.7718376,37.7916773 45.0837759,37.3997837 C45.4647138,36.9165996 45.5478186,36.2550873 45.2987096,35.688917 C45.0496005,35.1227466 44.510639,34.7481962 43.9047953,34.7202186 L37.2261768,34.203844 L37.123953,34.203844 L32.1490638,33.3036776 C30.983637,33.1402811 29.8403508,32.8405944 28.7416053,32.4104893 C21.0884538,29.2354837 16.4134208,30.714827 13.6329348,31.6498835 L13.3058188,31.7545541 C12.8665428,31.8954567 12.3894761,31.718345 12.140468,31.3219159 C11.7288514,30.6741565 11.0135738,30.2973431 10.259551,30.3310351 L4.45324183,30.5962004 C3.78167934,30.6145724 3.1455696,30.9088049 2.68817837,31.4126304 C2.2762685,31.868266 2.06021145,32.4741302 2.08846569,33.0943366 L2.76995737,46.2897992 C2.87161264,47.6559621 4.03163937,48.681641 5.36644068,48.5855724 L11.1727498,48.3204071 C11.904206,48.2957113 12.5669798,47.8725608 12.9105536,47.2108997 C13.0568329,46.9310258 13.3192473,46.7342439 13.62398,46.6759085 C13.9287126,46.6175731 14.2428349,46.7039878 14.4779845,46.9108442 C14.7016292,47.1145301 14.9896644,47.2285365 15.2889596,47.2318338 L15.4593325,47.2318338 L40.1088866,48.906562 L40.9880109,48.906562 C44.0218749,48.9120397 46.9839758,47.9619434 49.4725823,46.1851287 L65.146891,34.9156035 C65.6099016,34.5544333 65.9006163,34.0083091 65.9461537,33.4141425 C65.9916912,32.819976 65.7877338,32.234103 65.3854131,31.8034003 L65.3854131,31.747576 C64.7071161,31.0286342 63.6351717,30.8813245 62.7957447,31.3916963 C57.8890046,34.4341192 49.8133281,39.4094575 49.7111044,39.4583038 C49.4036033,39.7386577 48.9618532,39.8027493 48.5903919,39.6209032 C48.2189306,39.4390571 47.9902732,39.0467724 48.010292,38.6256836 C48.0303108,38.2045948 48.2950977,37.8369052 48.6820519,37.6928611 C48.757016,37.6509929 55.2380019,33.6665354 60.0834078,30.6520247 C59.8329176,30.6549833 59.5901999,30.5630283 59.4019161,30.3938374 C58.8073761,29.8268111 57.9288245,29.7038871 57.2075129,30.0868039 L49.3635436,34.3364267 C49.0391799,34.5310892 48.6366371,34.5277258 48.3154191,34.327669 C47.9942011,34.1276123 47.8061586,33.7631553 47.8258018,33.3787107 C47.8454449,32.9942661 48.069603,32.6518908 48.4094553,32.4872476 L53.922723,29.5076271 C53.8632947,29.4828926 53.8062555,29.4525222 53.7523501,29.4169126 C53.2160246,29.0406845 52.5279802,28.9747188 51.9327673,29.2424618 L46.0855686,31.5940593 C45.7436066,31.7425778 45.349875,31.6894706 45.0571403,31.4553429 C44.7644056,31.2212152 44.6187424,30.8429173 44.6766675,30.4672276 C44.7345927,30.0915378 44.9869891,29.7775873 45.3359278,29.6471877 L51.1422369,27.3165243 C52.3674508,26.7919653 53.7671747,26.9253495 54.8768113,27.6724041 C55.2238174,27.9082851 55.3963557,28.3361529 55.312966,28.7539994 L56.2602394,28.2446029 C57.7237435,27.4682162 59.5020249,27.6868283 60.7444547,28.7958676 C61.0968074,29.1186693 61.1869939,29.6467682 60.962532,30.0728478 L61.7121729,29.6053195 C63.36401,28.5661755 65.5014522,28.8576007 66.8301754,30.303123 L66.8915097,30.3519692 Z M9.76206202,42.5356168 C10.320257,43.1036926 10.6267012,43.881181 10.6099601,44.6868435 C10.5932191,45.492506 10.2547556,46.2559445 9.6734681,46.7991957 C9.11611766,47.3242925 8.38637419,47.6157045 7.62899306,47.6156257 L7.56084389,47.6156257 C6.77706565,47.6019265 6.02922144,47.2766104 5.47547935,46.7084812 C4.91728438,46.1404054 4.61084018,45.3629171 4.62758123,44.5572546 C4.64432229,43.7515921 4.98278577,42.9881536 5.56407327,42.4449024 C6.13930133,41.8952383 6.90396192,41.6016272 7.69032731,41.6284724 C8.46935992,41.6457629 9.21169313,41.9708062 9.76206202,42.5356168 L9.76206202,42.5356168 Z M8.56263666,44.6290271 C8.56566786,44.3932514 8.47459528,44.1664211 8.31048474,44.001004 C8.12890149,43.8167199 7.88463063,43.7116705 7.62899306,43.7079266 L7.62899306,43.7079266 C7.37700325,43.7034315 7.13298379,43.7983783 6.94750138,43.9730919 C6.77764379,44.1342051 6.68109321,44.3605463 6.68109321,44.5976259 C6.68109321,44.8347056 6.77764379,45.0610467 6.94750138,45.22216 C7.12908463,45.406444 7.37335549,45.5114934 7.62899306,45.5152374 L7.62899306,45.5152374 C7.88098287,45.5197325 8.12500233,45.4247856 8.31048474,45.2500721 C8.46559252,45.097755 8.55819581,44.8906487 8.56945158,44.6708953 L8.56263666,44.6290271 Z" id="Shape" fill="#fff"></path>
                        </g>
                    </g>
                </g>
            </g>
        </g>
    </g>
</svg>
