<?xml version="1.0" encoding="UTF-8"?>
<svg width="82px" height="82px" viewBox="0 0 82 82" version="1.1" xmlns="http://www.w3.org/2000/svg" xmlns:xlink="http://www.w3.org/1999/xlink">
    <!-- Generator: Sketch 42 (36781) - http://www.bohemiancoding.com/sketch -->
    <title>noun_773326_cc</title>
    <desc>Created with Sketch.</desc>
    <defs></defs>
    <g id="Website" stroke="none" stroke-width="1" fill="none" fill-rule="evenodd">
        <g id="Final-concept" transform="translate(-772.000000, -1082.000000)">
            <g id="services" transform="translate(278.000000, 893.000000)">
                <g id="parking" transform="translate(456.000000, 190.000000)">
                    <g id="noun_773326_cc" transform="translate(39.000000, 0.000000)">
                        <g id="Group" transform="translate(20.000000, 20.000000)" fill="#FFFFFF">
                            <path d="M30.3130435,19.1552174 C30.0591304,18.9013043 29.6456522,18.9004348 29.3908696,19.156087 C29.1365217,19.4108696 29.1365217,19.8234783 29.3917391,20.0782609 L29.73,20.416087 C29.8569565,20.5430435 30.023913,20.6065217 30.1908696,20.6065217 C30.3578261,20.6065217 30.5252174,20.5430435 30.6526087,20.4152174 C30.9069565,20.1604348 30.9069565,19.7478261 30.6517391,19.4930435 L30.3130435,19.1552174 Z M28.6230435,17.4647826 C28.3682609,17.2091304 27.9547826,17.21 27.7008696,17.463913 C27.4456522,17.7186957 27.4456522,18.1313043 27.7,18.386087 L28.0378261,18.7243478 C28.1652174,18.8521739 28.3326087,18.9156522 28.4995652,18.9156522 C28.6665217,18.9156522 28.8334783,18.8521739 28.9604348,18.7252174 C29.2156522,18.4704348 29.2156522,18.0578261 28.9613043,17.8030435 L28.6230435,17.4647826 Z M25.2408696,14.0826087 C24.986087,13.8278261 24.5734783,13.8278261 24.3186957,14.0826087 C24.063913,14.3373913 24.063913,14.75 24.3186957,15.0047826 L24.6569565,15.3430435 C24.7843478,15.4704348 24.9513043,15.533913 25.1182609,15.533913 C25.2852174,15.533913 25.4521739,15.4704348 25.5795652,15.3430435 C25.8343478,15.0882609 25.8343478,14.6756522 25.5795652,14.4208696 L25.2408696,14.0826087 Z M19.5847826,10.2704348 C19.7117391,10.3973913 19.8786957,10.4608696 20.0456522,10.4608696 C20.2126087,10.4608696 20.38,10.3973913 20.5073913,10.2695652 C20.7617391,10.0147826 20.7617391,9.60217391 20.5065217,9.3473913 L20.1682609,9.00956522 C19.9143478,8.75565217 19.5008696,8.75478261 19.246087,9.01043478 C18.9917391,9.26521739 18.9917391,9.67782609 19.2469565,9.9326087 L19.5847826,10.2704348 Z M26.9317391,15.7734783 C26.6769565,15.5186957 26.2643478,15.5186957 26.0095652,15.7734783 C25.7547826,16.0282609 25.7547826,16.4408696 26.0095652,16.6956522 L26.3473913,17.0334783 C26.4747826,17.1608696 26.6417391,17.2243478 26.8086957,17.2243478 C26.9756522,17.2243478 27.1426087,17.1608696 27.27,17.0334783 C27.5247826,16.7786957 27.5247826,16.366087 27.27,16.1113043 L26.9317391,15.7734783 Z M23.55,12.3917391 C23.2952174,12.1369565 22.8826087,12.1369565 22.6278261,12.3917391 C22.3730435,12.6465217 22.3730435,13.0591304 22.6278261,13.313913 L22.9656522,13.6517391 C23.0930435,13.7791304 23.26,13.8426087 23.4269565,13.8426087 C23.593913,13.8426087 23.7608696,13.7791304 23.8882609,13.6517391 C24.1430435,13.3969565 24.1430435,12.9843478 23.8882609,12.7295652 L23.55,12.3917391 Z M21.8595652,10.7008696 C21.6047826,10.4452174 21.1913043,10.446087 20.9373913,10.7 C20.6821739,10.9547826 20.6821739,11.3673913 20.9365217,11.6221739 L21.2743478,11.9604348 C21.4017391,12.0882609 21.5691304,12.1517391 21.736087,12.1517391 C21.9030435,12.1517391 22.07,12.0882609 22.1969565,11.9613043 C22.4521739,11.7065217 22.4521739,11.293913 22.1978261,11.0391304 L21.8595652,10.7008696 Z M21.6273913,22.673913 L21.2678261,19.4604348 C21.2573913,19.1913043 21.1478261,18.9395652 20.956087,18.7478261 C20.7543478,18.5456522 20.486087,18.4343478 20.2008696,18.4343478 L11.5152174,18.4343478 C10.9413043,18.4343478 10.4717391,18.8904348 10.4482609,19.4595652 L10.0895652,22.6726087 C9.70956522,22.8369565 9.4426087,23.2147826 9.4426087,23.6543478 L9.4426087,28.7391304 C9.4426087,29.0252174 9.55434783,29.293913 9.75695652,29.496087 C9.95869565,29.6969565 10.226087,29.8073913 10.5086957,29.8073913 L11.6847826,29.8073913 C11.9686957,29.8073913 12.2365217,29.6969565 12.4378261,29.4965217 C12.6408696,29.2947826 12.7530435,29.026087 12.7534783,28.7382609 L12.7530435,27.6895652 L18.9643478,27.6904348 L18.9643478,28.7413043 C18.9656522,29.3291304 19.4447826,29.8073913 20.0334783,29.8073913 L21.2052174,29.8073913 C21.793913,29.8073913 22.2730435,29.3278261 22.2730435,28.7391304 L22.2730435,23.6547826 C22.2730435,23.2156522 22.0065217,22.8382609 21.6273913,22.673913 Z M11.73,19.7391304 L19.9865217,19.7391304 L20.3056522,22.5856522 L11.4121739,22.5856522 L11.73,19.7391304 Z M10.7469565,28.503913 L10.7469565,27.6904348 L11.4482609,27.6904348 L11.4486957,28.503913 L10.7469565,28.503913 Z M20.9686957,28.503913 L20.2686957,28.503913 L20.2686957,27.6913043 L20.9686957,27.6913043 L20.9686957,28.503913 Z M20.9686957,26.3865217 L19.6234783,26.3865217 C19.6208696,26.3865217 19.6186957,26.3856522 19.616087,26.3856522 C19.6134783,26.3856522 19.6113043,26.3865217 19.6086957,26.3865217 L10.7465217,26.3856522 L10.7465217,23.89 L20.9682609,23.89 L20.9682609,26.3865217 L20.9686957,26.3865217 Z M19.846087,26.1369565 C20.3826087,26.1369565 20.8195652,25.7004348 20.8195652,25.163913 C20.8195652,24.6278261 20.3826087,24.1917391 19.8443478,24.1917391 C19.3095652,24.1917391 18.873913,24.6278261 18.873913,25.163913 C18.873913,25.7004348 19.31,26.1369565 19.846087,26.1369565 Z M11.8691304,26.1369565 C12.406087,26.1369565 12.8430435,25.7004348 12.8430435,25.1621739 C12.8417391,24.6273913 12.4056522,24.1917391 11.8695652,24.1917391 C11.3330435,24.1917391 10.896087,24.6278261 10.896087,25.163913 C10.896087,25.7004348 11.3321739,26.1369565 11.8691304,26.1369565 Z M14.2434783,25.7904348 L17.4726087,25.7904348 C17.8326087,25.7904348 18.1247826,25.4982609 18.1247826,25.1382609 C18.1247826,24.7782609 17.8326087,24.486087 17.4726087,24.486087 L14.2434783,24.486087 C13.8834783,24.486087 13.5913043,24.7782609 13.5913043,25.1382609 C13.5913043,25.4982609 13.8834783,25.7904348 14.2434783,25.7904348 Z M38.9382609,11.2313043 L36.8847826,11.2313043 L36.8852174,9.17869565 C36.8852174,9.00608696 36.8165217,8.84 36.6943478,8.7173913 C36.5721739,8.59478261 36.406087,8.52652174 36.2330435,8.52652174 L34.1795652,8.52652174 L34.1795652,6.47217391 C34.1795652,6.11217391 33.8873913,5.82 33.5273913,5.82 L31.473913,5.82 L31.473913,3.76652174 C31.473913,3.40652174 31.1817391,3.11434783 30.8217391,3.11434783 L28.7686957,3.11434783 L28.7686957,1.06217391 C28.7686957,0.702173913 28.4765217,0.41 28.1165217,0.41 L25.4108696,0.41 C25.2382609,0.41 25.0721739,0.478695652 24.9495652,0.600869565 L0.618695652,24.9321739 C0.497391304,25.0530435 0.428695652,25.2173913 0.427391304,25.3891304 L0.409565217,28.1126087 C0.40826087,28.2869565 0.476956522,28.4547826 0.600434783,28.5778261 C0.722608696,28.7 0.888695652,28.7686957 1.06173913,28.7686957 L1.06608696,28.7686957 L3.12826087,28.7552174 L3.11521739,30.8178261 C3.11391304,30.9921739 3.1826087,31.16 3.30608696,31.2830435 C3.42826087,31.4052174 3.59434783,31.473913 3.7673913,31.473913 L3.77173913,31.473913 L5.83434783,31.4604348 L5.82043478,33.5221739 C5.81913043,33.6965217 5.88782609,33.863913 6.01130435,33.9873913 C6.13434783,34.1104348 6.29695652,34.1904348 6.47652174,34.1782609 L8.53913043,34.1647826 L8.52565217,36.2282609 C8.52434783,36.4026087 8.59304348,36.5704348 8.71652174,36.6934783 C8.83869565,36.8156522 9.00478261,36.8843478 9.17782609,36.8843478 L9.18217391,36.8843478 L11.2447826,36.8708696 L11.2313043,38.9326087 C11.23,39.1069565 11.2986957,39.2743478 11.4221739,39.3978261 C11.5443478,39.52 11.7104348,39.5886957 11.8834783,39.5886957 L11.8878261,39.5886957 L14.6117391,39.5717391 C14.7834783,39.5704348 14.9469565,39.5021739 15.0686957,39.3808696 L39.3995652,15.0491304 C39.5217391,14.9269565 39.5904348,14.7608696 39.5904348,14.5878261 L39.5904348,11.8821739 C39.5904348,11.5234783 39.2982609,11.2313043 38.9382609,11.2313043 Z M38.286087,14.3191304 L31.8569565,20.7482609 C31.6082609,20.6095652 31.2930435,20.6352174 31.0826087,20.846087 C30.8713043,21.0573913 30.8452174,21.3726087 30.983913,21.6208696 L14.3356522,38.27 L12.54,38.2808696 L12.5534783,36.2191304 C12.5547826,36.0447826 12.486087,35.8769565 12.3626087,35.753913 C12.2404348,35.6317391 12.0743478,35.5630435 11.9013043,35.5630435 L11.8969565,35.5630435 L9.83434783,35.5765217 L9.84782609,33.5130435 C9.84913043,33.3386957 9.78043478,33.1708696 9.65695652,33.0478261 C9.53391304,32.9247826 9.3726087,32.8565217 9.19173913,32.8569565 L7.12913043,32.8704348 L7.14304348,30.8086957 C7.14434783,30.6343478 7.07565217,30.4669565 6.95217391,30.3434783 C6.83,30.2213043 6.66391304,30.1526087 6.49086957,30.1526087 L6.48652174,30.1526087 L4.42391304,30.166087 L4.43695652,28.1034783 C4.43826087,27.9291304 4.36956522,27.7613043 4.24608696,27.6382609 C4.12391304,27.516087 3.95782609,27.4473913 3.78478261,27.4473913 L3.78043478,27.4473913 L1.71826087,27.4608696 L1.73,25.6656522 L25.6808696,1.71434783 L27.4643478,1.71434783 L27.4643478,3.76695652 C27.4643478,4.12695652 27.7565217,4.41913043 28.1165217,4.41913043 L30.1695652,4.41913043 L30.1695652,6.4726087 C30.1695652,6.8326087 30.4617391,7.12478261 30.8217391,7.12478261 L32.8756522,7.12478261 L32.8756522,9.17913043 C32.8756522,9.53913043 33.1678261,9.83130435 33.5278261,9.83130435 L35.5813043,9.83130435 L35.5808696,11.883913 C35.5808696,12.0565217 35.6495652,12.2226087 35.7717391,12.3452174 C35.893913,12.4678261 36.06,12.536087 36.2330435,12.536087 L38.2865217,12.536087 L38.2865217,14.3191304 L38.286087,14.3191304 Z" id="Shape"></path>
                        </g>
                        <circle id="Oval-6" stroke="#FFFFFF" stroke-width="2" cx="40" cy="40" r="40"></circle>
                    </g>
                </g>
            </g>
        </g>
    </g>
</svg>