<?xml version="1.0" encoding="UTF-8"?>
<svg width="31px" height="31px" viewBox="0 0 31 31" version="1.1" xmlns="http://www.w3.org/2000/svg" xmlns:xlink="http://www.w3.org/1999/xlink">
    <!-- Generator: Sketch 42 (36781) - http://www.bohemiancoding.com/sketch -->
    <title>Group 6</title>
    <desc>Created with Sketch.</desc>
    <defs>
        <rect id="path-1" x="0" y="0" width="31" height="31" rx="3"></rect>
        <mask id="mask-2" maskContentUnits="userSpaceOnUse" maskUnits="objectBoundingBox" x="0" y="0" width="31" height="31" fill="white">
            <use xlink:href="#path-1"></use>
        </mask>
    </defs>
    <g id="Website" stroke="none" stroke-width="1" fill="none" fill-rule="evenodd">
        <g id="Final-concept" transform="translate(-195.000000, -5412.000000)">
            <g id="t" transform="translate(195.000000, 5412.000000)">
                <g id="Group-6">
                    <use id="Rectangle" stroke="#FFFFFF" mask="url(#mask-2)" stroke-width="4" xlink:href="#path-1"></use>
                    <path d="M12.5539709,24.3717422 C8.6266482,24.3717422 5.41866826,22.4858613 5.36625468,22.4542787 C5.05916485,22.2691513 4.92443507,21.8941926 5.04236562,21.5555202 C5.16130413,21.2178558 5.49728863,21.0041697 5.857464,21.0575912 C7.98458183,21.3421701 9.46593746,20.671881 10.2595328,20.1420335 C8.29267961,18.6516062 3.88993881,14.4457524 6.59091815,8.20988016 C6.70212902,7.95285202 6.9473977,7.7778041 7.22592885,7.75596511 C7.49874825,7.73714998 7.77425554,7.86919188 7.92376864,8.10538898 C8.00440492,8.23138317 9.89834951,11.0808677 14.632035,11.6775761 C14.6427865,9.09654324 16.7453775,7 19.3274183,7 C20.4791732,7 21.5647391,7.41326093 22.4241874,8.1722499 C23.6663221,8.04020799 24.6447089,8.01164931 24.6900668,8.00996939 C24.7925421,8.01097734 24.8899776,8.0247527 24.9783415,8.05835115 C25.1446538,7.99720198 25.3317972,7.99249819 25.5118849,8.05935911 C25.9016269,8.2068563 26.0985138,8.64296417 25.9510166,9.03270618 C25.8062073,9.41673646 25.1103834,11.1695676 24.1635791,12.0663102 C24.3997762,14.2465136 23.8585052,17.4514696 20.3629225,21.0512075 C17.8920926,23.5949461 15.0748626,24.3717422 12.5539709,24.3717422 Z M8.98783153,22.3578512 C11.6975465,23.1669019 15.8546826,23.5223734 19.2780286,19.9985681 C22.5814281,16.5963891 22.9130448,13.6975149 22.6099868,11.8657274 C22.5599251,11.5606535 22.7007026,11.2555796 22.9654584,11.094979 C23.3061467,10.8903644 23.7244474,10.2328428 24.0678235,9.55348215 C23.6092047,9.58103288 22.9553789,9.6304226 22.2467876,9.71408274 C22.0146223,9.73760165 21.7790972,9.65898128 21.6148008,9.48863714 C21.0056609,8.85866622 20.1925784,8.5122662 19.3270823,8.5122662 C17.5718993,8.5122662 16.1436293,9.94154424 16.1436293,11.6973992 C16.1436293,11.9268766 16.1661402,12.1462745 16.2125061,12.3488731 C16.2635757,12.5810384 16.2037705,12.8232832 16.0502256,13.0043789 C15.8956727,13.1854745 15.6614915,13.283918 15.4289903,13.2691347 C11.2553909,13.0171463 8.76608176,11.2021581 7.55351373,9.9942938 C5.8900545,15.8736865 11.6256458,19.2795613 11.8863698,19.4310903 C12.0822487,19.544317 12.2179864,19.741204 12.2546088,19.9646336 C12.2898871,20.1890713 12.2240342,20.4175407 12.0735131,20.5875489 C12.011692,20.6587776 10.9624124,21.8125484 8.98783153,22.3578512 Z" id="Shape" fill="#FFFFFF" fill-rule="nonzero"></path>
                </g>
            </g>
        </g>
    </g>
</svg>