<?xml version="1.0" encoding="UTF-8"?>
<svg width="49px" height="50px" viewBox="0 0 49 50" version="1.1" xmlns="http://www.w3.org/2000/svg" xmlns:xlink="http://www.w3.org/1999/xlink">
    <!-- Generator: Sketch 42 (36781) - http://www.bohemiancoding.com/sketch -->
    <title>noun_710803_cc</title>
    <desc>Created with Sketch.</desc>
    <defs></defs>
    <g id="Website" stroke="none" stroke-width="1" fill="none" fill-rule="evenodd">
        <g id="Final-concept" transform="translate(-356.000000, -4088.000000)" fill="#FFFFFF">
            <g id="ureport" transform="translate(0.000000, 3934.000000)">
                <g id="noun_710803_cc" transform="translate(356.000000, 154.000000)">
                    <g id="Group">
                        <path d="M37.7153846,27.4298077 C36.0019231,27.4298077 34.3778846,27.8211538 32.9278846,28.5197115 C31.2389423,27.2572115 29.3519231,26.2495192 27.3211538,25.5543269 C31.3596154,23.2278846 34.0860577,18.8697115 34.0860577,13.8841346 C34.0860577,6.46153846 28.0471154,0.422596154 20.6245192,0.422596154 C13.2019231,0.422596154 7.16298077,6.46153846 7.16298077,13.8841346 C7.16298077,18.9072115 9.93028846,23.29375 14.01875,25.6067308 C6.03413462,28.4052885 0.288461538,36.0365385 0.288461538,44.99375 L3.17307692,44.99375 C3.17307692,35.2625 11.0557692,27.3451923 20.7447115,27.3451923 C24.2927885,27.3451923 27.5956731,28.4105769 30.3600962,30.2350962 C28.0807692,32.2649038 26.6418269,35.21875 26.6418269,38.5033654 C26.6418269,44.6096154 31.6096154,49.5778846 37.7153846,49.5778846 C43.8216346,49.5778846 48.7899038,44.6096154 48.7899038,38.5033654 C48.7899038,32.3975962 43.8216346,27.4298077 37.7153846,27.4298077 Z M10.0471154,13.8836538 C10.0471154,8.05144231 14.7918269,3.30673077 20.6240385,3.30673077 C26.45625,3.30673077 31.2009615,8.05144231 31.2009615,13.8836538 C31.2009615,19.7158654 26.45625,24.4605769 20.6240385,24.4605769 C14.7923077,24.4605769 10.0471154,19.7158654 10.0471154,13.8836538 Z M37.7153846,46.6932692 C33.1995192,46.6932692 29.5264423,43.0192308 29.5264423,38.5033654 C29.5264423,33.9875 33.2,30.3144231 37.7153846,30.3144231 C42.2317308,30.3144231 45.9052885,33.9879808 45.9052885,38.5033654 C45.9052885,43.0192308 42.23125,46.6932692 37.7153846,46.6932692 Z" id="Shape"></path>
                        <rect id="Rectangle-path" x="36.2730769" y="41.6668269" width="2.88461538" height="2.42548077"></rect>
                        <rect id="Rectangle-path" x="36.2730769" y="32.9144231" width="2.88461538" height="7.31057692"></rect>
                    </g>
                </g>
            </g>
        </g>
    </g>
</svg>