<?xml version="1.0" encoding="UTF-8"?>
<svg width="67px" height="67px" viewBox="0 0 67 67" version="1.1" xmlns="http://www.w3.org/2000/svg" xmlns:xlink="http://www.w3.org/1999/xlink">
    <!-- Generator: Sketch 42 (36781) - http://www.bohemiancoding.com/sketch -->
    <title>noun_152040_cc</title>
    <desc>Created with Sketch.</desc>
    <defs></defs>
    <g id="Website" stroke="none" stroke-width="1" fill="none" fill-rule="evenodd">
        <g id="Final-concept" transform="translate(-1145.000000, -3365.000000)" fill="#fff">
            <g id="city-govt" transform="translate(150.000000, 3132.000000)">
                <g id="council" transform="translate(916.000000, 233.000000)">
                    <g id="noun_152040_cc" transform="translate(79.000000, 0.000000)">
                        <g id="Group">
                            <g id="Shape">
                                <path d="M32.0109043,39.7758511 C36.2915426,39.7758511 39.7758511,35.5385106 39.7758511,30.3293085 C39.7758511,25.1183511 36.2921277,20.8821809 32.0109043,20.8821809 C29.892234,20.8821809 27.9145745,21.8955851 26.4424468,23.7334043 C25.024734,25.5068617 24.2442021,27.8484574 24.2465426,30.3293085 C24.2471277,35.5385106 27.7285106,39.7758511 32.0109043,39.7758511 Z M32.0109043,22.9528723 C35.1488298,22.9528723 37.7045745,26.2610638 37.7045745,30.3293085 C37.7045745,34.3952128 35.1488298,37.7063298 32.0109043,37.7063298 C28.8712234,37.7063298 26.317234,34.3957979 26.3154787,30.3293085 C26.3154787,26.2616489 28.868883,22.9528723 32.0109043,22.9528723 Z M38.5325,38.7407979 C37.9596809,38.7407979 37.4968617,39.2047872 37.4968617,39.7764362 C37.4968617,40.3492553 37.9596809,40.8120745 38.5325,40.8120745 C42.0712234,40.8120745 44.9522872,43.6919681 44.9522872,47.2324468 C44.9522872,47.6882447 44.5801596,48.0597872 44.1231915,48.0597872 L19.8974468,48.0597872 C19.4404787,48.0597872 19.0706915,47.6882447 19.0706915,47.2324468 C19.0706915,43.6919681 21.95,40.8120745 25.4881383,40.8120745 C26.0609574,40.8120745 26.5237766,40.3492553 26.5237766,39.7764362 C26.5237766,39.2047872 26.0609574,38.7407979 25.4881383,38.7407979 C20.8072872,38.7407979 17,42.5486702 17,47.2318617 C17,48.8292021 18.3001064,50.1298936 19.8974468,50.1298936 L44.1226064,50.1298936 C45.7199468,50.1298936 47.0223936,48.8292021 47.0223936,47.2318617 C47.0223936,42.5480851 43.2133511,38.7407979 38.5325,38.7407979 Z M32.7674468,19.7324468 C33.5099468,19.293617 34.2998404,19.0706915 35.117234,19.0706915 C38.2551596,19.0706915 40.8109043,22.3812234 40.8109043,26.4471277 C40.8109043,27.1761702 40.7295745,27.8929255 40.5680851,28.5763298 C40.4387766,29.1315957 40.7845745,29.6903723 41.3404255,29.8196809 C41.4194149,29.8401596 41.4984043,29.8483511 41.5768085,29.8483511 C42.0484043,29.8483511 42.4726064,29.5259574 42.5837766,29.0496809 C42.7803723,28.2106383 42.8815957,27.3341489 42.8815957,26.4477128 C42.8815957,21.2390957 39.3972872,17 35.117234,17 C33.94,17 32.7639362,17.3276596 31.7142553,17.9484574 C31.222766,18.2398404 31.0595213,18.8740957 31.3503191,19.3679255 C31.641117,19.8594149 32.2782979,20.0226596 32.7674468,19.7324468 Z M41.8465426,34.6 C41.2737234,34.6 40.8109043,35.0628191 40.8109043,35.6356383 C40.8109043,36.2072872 41.2737234,36.6712766 41.8465426,36.6712766 C45.385266,36.6712766 48.0580319,39.6184574 48.0580319,43.1601064 C48.0580319,43.2777128 48.0334574,43.3918085 47.987234,43.4971277 C47.7543617,44.0196277 47.9889894,44.6316489 48.5126596,44.8651064 C48.6478191,44.9259574 48.7917553,44.9528723 48.9310106,44.9528723 C49.3300532,44.9528723 49.7074468,44.7240957 49.8794681,44.3390957 C50.0432979,43.966383 50.1281383,43.570266 50.1281383,43.1595213 C50.1281383,38.4775 46.5273936,34.6 41.8465426,34.6 Z"></path>
                                <path d="M33.4976365,66.4127678 C15.3473073,66.4127678 0.583351064,51.6459496 0.583351064,33.4977669 C0.583351064,15.3481532 15.3473073,0.582765957 33.4976365,0.582765957 C51.6479657,0.582765957 66.4119219,15.3481532 66.4119219,33.4977669 C66.4119219,51.6459496 51.6472502,66.4127678 33.4976365,66.4127678 Z M33.4976365,3.11485422 C16.7446423,3.11485422 3.11472384,16.7440572 3.11472384,33.4977669 C3.11472384,50.2500456 16.7453578,63.8806795 33.4976365,63.8806795 C50.2506307,63.8806795 63.8805492,50.2500456 63.8805492,33.4977669 C63.8798337,16.7440572 50.2506307,3.11485422 33.4976365,3.11485422 Z"></path>
                            </g>
                        </g>
                    </g>
                </g>
            </g>
        </g>
    </g>
</svg>
