<?xml version="1.0" encoding="UTF-8"?>
<svg width="283px" height="430px" viewBox="0 0 283 430" version="1.1" xmlns="http://www.w3.org/2000/svg" xmlns:xlink="http://www.w3.org/1999/xlink">
    <!-- Generator: Sketch 42 (36781) - http://www.bohemiancoding.com/sketch -->
    <title>Indiana state</title>
    <desc>Created with Sketch.</desc>
    <defs></defs>
    <g id="Website" stroke="none" stroke-width="1" fill="none" fill-rule="evenodd">
        <g id="Final-concept" transform="translate(-228.000000, -2504.000000)">
            <g id="About" transform="translate(150.000000, 2400.000000)">
                <g id="Indiana-state" transform="translate(78.000000, 104.000000)">
                    <g id="Group">
                        <g id="Oval">
                            <ellipse fill="#183365" cx="111.268133" cy="5.16" rx="5.18260584" ry="5.16"></ellipse>
                            <ellipse fill="#183365" cx="126.384066" cy="5.16" rx="5.18260584" ry="5.16"></ellipse>
                            <ellipse fill="#183365" cx="141.5" cy="5.16" rx="5.18260584" ry="5.16"></ellipse>
                            <ellipse fill="#183365" cx="156.615934" cy="5.16" rx="5.18260584" ry="5.16"></ellipse>
                            <ellipse fill="#183365" cx="171.731867" cy="5.16" rx="5.18260584" ry="5.16"></ellipse>
                            <ellipse fill="#183365" cx="186.847801" cy="5.16" rx="5.18260584" ry="5.16"></ellipse>
                            <ellipse fill="#183365" cx="201.531851" cy="5.16" rx="5.18260584" ry="5.16"></ellipse>
                            <ellipse fill="#183365" cx="216.647785" cy="5.16" rx="5.18260584" ry="5.16"></ellipse>
                            <ellipse fill="#183365" cx="231.763718" cy="5.16" rx="5.18260584" ry="5.16"></ellipse>
                            <ellipse fill="#183365" cx="246.879652" cy="5.16" rx="5.18260584" ry="5.16"></ellipse>
                            <ellipse fill="#183365" cx="261.995586" cy="5.16" rx="5.18260584" ry="5.16"></ellipse>
                            <ellipse fill="#183365" cx="277.11152" cy="5.16" rx="5.18260584" ry="5.16"></ellipse>
                            <ellipse fill="#183365" cx="66.3522153" cy="20.21" rx="5.18260584" ry="5.16"></ellipse>
                            <ellipse fill="#183365" cx="81.468149" cy="20.21" rx="5.18260584" ry="5.16"></ellipse>
                            <ellipse fill="#183365" cx="96.1521989" cy="20.21" rx="5.18260584" ry="5.16"></ellipse>
                            <ellipse fill="#183365" cx="111.268133" cy="20.21" rx="5.18260584" ry="5.16"></ellipse>
                            <ellipse fill="#183365" cx="126.384066" cy="20.21" rx="5.18260584" ry="5.16"></ellipse>
                            <ellipse fill="#183365" cx="141.5" cy="20.21" rx="5.18260584" ry="5.16"></ellipse>
                            <ellipse fill="#183365" cx="156.615934" cy="20.21" rx="5.18260584" ry="5.16"></ellipse>
                            <ellipse fill="#183365" cx="171.731867" cy="20.21" rx="5.18260584" ry="5.16"></ellipse>
                            <ellipse fill="#183365" cx="186.847801" cy="20.21" rx="5.18260584" ry="5.16"></ellipse>
                            <ellipse fill="#183365" cx="201.531851" cy="20.21" rx="5.18260584" ry="5.16"></ellipse>
                            <ellipse fill="#183365" cx="216.647785" cy="20.21" rx="5.18260584" ry="5.16"></ellipse>
                            <ellipse fill="#183365" cx="231.763718" cy="20.21" rx="5.18260584" ry="5.16"></ellipse>
                            <ellipse fill="#183365" cx="246.879652" cy="20.21" rx="5.18260584" ry="5.16"></ellipse>
                            <ellipse fill="#183365" cx="261.995586" cy="20.21" rx="5.18260584" ry="5.16"></ellipse>
                            <ellipse fill="#183365" cx="277.11152" cy="20.21" rx="5.18260584" ry="5.16"></ellipse>
                            <ellipse fill="#183365" cx="66.3522153" cy="35.26" rx="5.18260584" ry="5.16"></ellipse>
                            <ellipse fill="#183365" cx="81.468149" cy="35.26" rx="5.18260584" ry="5.16"></ellipse>
                            <ellipse fill="#183365" cx="96.1521989" cy="35.26" rx="5.18260584" ry="5.16"></ellipse>
                            <ellipse fill="#183365" cx="111.268133" cy="35.26" rx="5.18260584" ry="5.16"></ellipse>
                            <ellipse fill="#183365" cx="126.384066" cy="35.26" rx="5.18260584" ry="5.16"></ellipse>
                            <ellipse fill="#183365" cx="141.5" cy="35.26" rx="5.18260584" ry="5.16"></ellipse>
                            <ellipse fill="#183365" cx="156.615934" cy="35.26" rx="5.18260584" ry="5.16"></ellipse>
                            <ellipse fill="#183365" cx="171.731867" cy="35.26" rx="5.18260584" ry="5.16"></ellipse>
                            <ellipse fill="#183365" cx="186.847801" cy="35.26" rx="5.18260584" ry="5.16"></ellipse>
                            <ellipse fill="#183365" cx="201.531851" cy="35.26" rx="5.18260584" ry="5.16"></ellipse>
                            <ellipse fill="#183365" cx="216.647785" cy="35.26" rx="5.18260584" ry="5.16"></ellipse>
                            <ellipse fill="#183365" cx="231.763718" cy="35.26" rx="5.18260584" ry="5.16"></ellipse>
                            <ellipse fill="#183365" cx="246.879652" cy="35.26" rx="5.18260584" ry="5.16"></ellipse>
                            <ellipse fill="#183365" cx="261.995586" cy="35.26" rx="5.18260584" ry="5.16"></ellipse>
                            <ellipse fill="#183365" cx="277.11152" cy="35.26" rx="5.18260584" ry="5.16"></ellipse>
                            <ellipse fill="#183365" cx="66.3522153" cy="50.31" rx="5.18260584" ry="5.16"></ellipse>
                            <ellipse fill="#183365" cx="81.468149" cy="50.31" rx="5.18260584" ry="5.16"></ellipse>
                            <ellipse fill="#183365" cx="96.1521989" cy="50.31" rx="5.18260584" ry="5.16"></ellipse>
                            <ellipse fill="#183365" cx="111.268133" cy="50.31" rx="5.18260584" ry="5.16"></ellipse>
                            <ellipse fill="#183365" cx="126.384066" cy="50.31" rx="5.18260584" ry="5.16"></ellipse>
                            <ellipse fill="#183365" cx="141.5" cy="50.31" rx="5.18260584" ry="5.16"></ellipse>
                            <ellipse fill="#183365" cx="156.615934" cy="50.31" rx="5.18260584" ry="5.16"></ellipse>
                            <ellipse fill="#183365" cx="171.731867" cy="50.31" rx="5.18260584" ry="5.16"></ellipse>
                            <ellipse fill="#183365" cx="186.847801" cy="50.31" rx="5.18260584" ry="5.16"></ellipse>
                            <ellipse fill="#183365" cx="201.531851" cy="50.31" rx="5.18260584" ry="5.16"></ellipse>
                            <ellipse fill="#183365" cx="216.647785" cy="50.31" rx="5.18260584" ry="5.16"></ellipse>
                            <ellipse fill="#183365" cx="231.763718" cy="50.31" rx="5.18260584" ry="5.16"></ellipse>
                            <ellipse fill="#183365" cx="246.879652" cy="50.31" rx="5.18260584" ry="5.16"></ellipse>
                            <ellipse fill="#183365" cx="261.995586" cy="50.31" rx="5.18260584" ry="5.16"></ellipse>
                            <ellipse fill="#183365" cx="277.11152" cy="50.31" rx="5.18260584" ry="5.16"></ellipse>
                            <ellipse fill="#183365" cx="66.3522153" cy="65.36" rx="5.18260584" ry="5.16"></ellipse>
                            <ellipse fill="#183365" cx="81.468149" cy="65.36" rx="5.18260584" ry="5.16"></ellipse>
                            <ellipse fill="#183365" cx="96.1521989" cy="65.36" rx="5.18260584" ry="5.16"></ellipse>
                            <ellipse fill="#183365" cx="111.268133" cy="65.36" rx="5.18260584" ry="5.16"></ellipse>
                            <ellipse fill="#183365" cx="126.384066" cy="65.36" rx="5.18260584" ry="5.16"></ellipse>
                            <ellipse fill="#183365" cx="141.5" cy="65.36" rx="5.18260584" ry="5.16"></ellipse>
                            <ellipse fill="#183365" cx="156.615934" cy="65.36" rx="5.18260584" ry="5.16"></ellipse>
                            <ellipse fill="#183365" cx="171.731867" cy="65.36" rx="5.18260584" ry="5.16"></ellipse>
                            <ellipse fill="#183365" cx="186.847801" cy="65.36" rx="5.18260584" ry="5.16"></ellipse>
                            <ellipse fill="#183365" cx="201.531851" cy="65.36" rx="5.18260584" ry="5.16"></ellipse>
                            <ellipse fill="#183365" cx="216.647785" cy="65.36" rx="5.18260584" ry="5.16"></ellipse>
                            <ellipse fill="#183365" cx="231.763718" cy="65.36" rx="5.18260584" ry="5.16"></ellipse>
                            <ellipse fill="#183365" cx="246.879652" cy="65.36" rx="5.18260584" ry="5.16"></ellipse>
                            <ellipse fill="#183365" cx="261.995586" cy="65.36" rx="5.18260584" ry="5.16"></ellipse>
                            <ellipse fill="#183365" cx="277.11152" cy="65.36" rx="5.18260584" ry="5.16"></ellipse>
                            <ellipse fill="#183365" cx="66.3522153" cy="79.98" rx="5.18260584" ry="5.16"></ellipse>
                            <ellipse fill="#183365" cx="81.468149" cy="79.98" rx="5.18260584" ry="5.16"></ellipse>
                            <ellipse fill="#183365" cx="96.1521989" cy="79.98" rx="5.18260584" ry="5.16"></ellipse>
                            <ellipse fill="#183365" cx="111.268133" cy="79.98" rx="5.18260584" ry="5.16"></ellipse>
                            <ellipse fill="#183365" cx="126.384066" cy="79.98" rx="5.18260584" ry="5.16"></ellipse>
                            <ellipse fill="#183365" cx="141.5" cy="79.98" rx="5.18260584" ry="5.16"></ellipse>
                            <ellipse fill="#183365" cx="156.615934" cy="79.98" rx="5.18260584" ry="5.16"></ellipse>
                            <ellipse fill="#183365" cx="171.731867" cy="79.98" rx="5.18260584" ry="5.16"></ellipse>
                            <ellipse fill="#183365" cx="186.847801" cy="79.98" rx="5.18260584" ry="5.16"></ellipse>
                            <ellipse fill="#183365" cx="201.531851" cy="79.98" rx="5.18260584" ry="5.16"></ellipse>
                            <ellipse fill="#183365" cx="216.647785" cy="79.98" rx="5.18260584" ry="5.16"></ellipse>
                            <ellipse fill="#183365" cx="231.763718" cy="79.98" rx="5.18260584" ry="5.16"></ellipse>
                            <ellipse fill="#183365" cx="246.879652" cy="79.98" rx="5.18260584" ry="5.16"></ellipse>
                            <ellipse fill="#183365" cx="261.995586" cy="79.98" rx="5.18260584" ry="5.16"></ellipse>
                            <ellipse fill="#183365" cx="277.11152" cy="79.98" rx="5.18260584" ry="5.16"></ellipse>
                            <ellipse fill="#183365" cx="66.3522153" cy="95.03" rx="5.18260584" ry="5.16"></ellipse>
                            <ellipse fill="#183365" cx="81.468149" cy="95.03" rx="5.18260584" ry="5.16"></ellipse>
                            <ellipse fill="#183365" cx="96.1521989" cy="95.03" rx="5.18260584" ry="5.16"></ellipse>
                            <ellipse fill="#183365" cx="111.268133" cy="95.03" rx="5.18260584" ry="5.16"></ellipse>
                            <ellipse fill="#183365" cx="126.384066" cy="95.03" rx="5.18260584" ry="5.16"></ellipse>
                            <ellipse fill="#183365" cx="141.5" cy="95.03" rx="5.18260584" ry="5.16"></ellipse>
                            <ellipse fill="#183365" cx="156.615934" cy="95.03" rx="5.18260584" ry="5.16"></ellipse>
                            <ellipse fill="#183365" cx="171.731867" cy="95.03" rx="5.18260584" ry="5.16"></ellipse>
                            <ellipse fill="#183365" cx="186.847801" cy="95.03" rx="5.18260584" ry="5.16"></ellipse>
                            <ellipse fill="#183365" cx="201.531851" cy="95.03" rx="5.18260584" ry="5.16"></ellipse>
                            <ellipse fill="#183365" cx="216.647785" cy="95.03" rx="5.18260584" ry="5.16"></ellipse>
                            <ellipse fill="#183365" cx="231.763718" cy="95.03" rx="5.18260584" ry="5.16"></ellipse>
                            <ellipse fill="#183365" cx="246.879652" cy="95.03" rx="5.18260584" ry="5.16"></ellipse>
                            <ellipse fill="#183365" cx="261.995586" cy="95.03" rx="5.18260584" ry="5.16"></ellipse>
                            <ellipse fill="#183365" cx="277.11152" cy="95.03" rx="5.18260584" ry="5.16"></ellipse>
                            <ellipse fill="#183365" cx="66.3522153" cy="110.08" rx="5.18260584" ry="5.16"></ellipse>
                            <ellipse fill="#183365" cx="81.468149" cy="110.08" rx="5.18260584" ry="5.16"></ellipse>
                            <ellipse fill="#183365" cx="96.1521989" cy="110.08" rx="5.18260584" ry="5.16"></ellipse>
                            <ellipse fill="#183365" cx="111.268133" cy="110.08" rx="5.18260584" ry="5.16"></ellipse>
                            <ellipse fill="#183365" cx="126.384066" cy="110.08" rx="5.18260584" ry="5.16"></ellipse>
                            <ellipse fill="#183365" cx="141.5" cy="110.08" rx="5.18260584" ry="5.16"></ellipse>
                            <ellipse fill="#183365" cx="156.615934" cy="110.08" rx="5.18260584" ry="5.16"></ellipse>
                            <ellipse fill="#183365" cx="171.731867" cy="110.08" rx="5.18260584" ry="5.16"></ellipse>
                            <ellipse fill="#183365" cx="186.847801" cy="110.08" rx="5.18260584" ry="5.16"></ellipse>
                            <ellipse fill="#183365" cx="201.531851" cy="110.08" rx="5.18260584" ry="5.16"></ellipse>
                            <ellipse fill="#183365" cx="216.647785" cy="110.08" rx="5.18260584" ry="5.16"></ellipse>
                            <ellipse fill="#183365" cx="231.763718" cy="110.08" rx="5.18260584" ry="5.16"></ellipse>
                            <ellipse fill="#183365" cx="246.879652" cy="110.08" rx="5.18260584" ry="5.16"></ellipse>
                            <ellipse fill="#183365" cx="261.995586" cy="110.08" rx="5.18260584" ry="5.16"></ellipse>
                            <ellipse fill="#183365" cx="277.11152" cy="110.08" rx="5.18260584" ry="5.16"></ellipse>
                            <ellipse fill="#183365" cx="66.3522153" cy="125.13" rx="5.18260584" ry="5.16"></ellipse>
                            <ellipse fill="#183365" cx="81.468149" cy="125.13" rx="5.18260584" ry="5.16"></ellipse>
                            <ellipse fill="#183365" cx="96.1521989" cy="125.13" rx="5.18260584" ry="5.16"></ellipse>
                            <ellipse fill="#183365" cx="111.268133" cy="125.13" rx="5.18260584" ry="5.16"></ellipse>
                            <ellipse fill="#183365" cx="126.384066" cy="125.13" rx="5.18260584" ry="5.16"></ellipse>
                            <ellipse fill="#183365" cx="141.5" cy="125.13" rx="5.18260584" ry="5.16"></ellipse>
                            <ellipse fill="#183365" cx="156.615934" cy="125.13" rx="5.18260584" ry="5.16"></ellipse>
                            <ellipse fill="#183365" cx="171.731867" cy="125.13" rx="5.18260584" ry="5.16"></ellipse>
                            <ellipse fill="#183365" cx="186.847801" cy="125.13" rx="5.18260584" ry="5.16"></ellipse>
                            <ellipse fill="#183365" cx="201.531851" cy="125.13" rx="5.18260584" ry="5.16"></ellipse>
                            <ellipse fill="#183365" cx="216.647785" cy="125.13" rx="5.18260584" ry="5.16"></ellipse>
                            <ellipse fill="#183365" cx="231.763718" cy="125.13" rx="5.18260584" ry="5.16"></ellipse>
                            <ellipse fill="#183365" cx="246.879652" cy="125.13" rx="5.18260584" ry="5.16"></ellipse>
                            <ellipse fill="#183365" cx="261.995586" cy="125.13" rx="5.18260584" ry="5.16"></ellipse>
                            <ellipse fill="#183365" cx="277.11152" cy="125.13" rx="5.18260584" ry="5.16"></ellipse>
                            <ellipse fill="#183365" cx="66.3522153" cy="140.18" rx="5.18260584" ry="5.16"></ellipse>
                            <ellipse fill="#183365" cx="81.468149" cy="140.18" rx="5.18260584" ry="5.16"></ellipse>
                            <ellipse fill="#183365" cx="96.1521989" cy="140.18" rx="5.18260584" ry="5.16"></ellipse>
                            <ellipse fill="#183365" cx="111.268133" cy="140.18" rx="5.18260584" ry="5.16"></ellipse>
                            <ellipse fill="#183365" cx="126.384066" cy="140.18" rx="5.18260584" ry="5.16"></ellipse>
                            <ellipse fill="#183365" cx="141.5" cy="140.18" rx="5.18260584" ry="5.16"></ellipse>
                            <ellipse fill="#183365" cx="156.615934" cy="140.18" rx="5.18260584" ry="5.16"></ellipse>
                            <ellipse fill="#183365" cx="171.731867" cy="140.18" rx="5.18260584" ry="5.16"></ellipse>
                            <ellipse fill="#183365" cx="186.847801" cy="140.18" rx="5.18260584" ry="5.16"></ellipse>
                            <ellipse fill="#183365" cx="201.531851" cy="140.18" rx="5.18260584" ry="5.16"></ellipse>
                            <ellipse fill="#183365" cx="216.647785" cy="140.18" rx="5.18260584" ry="5.16"></ellipse>
                            <ellipse fill="#183365" cx="231.763718" cy="140.18" rx="5.18260584" ry="5.16"></ellipse>
                            <ellipse fill="#183365" cx="246.879652" cy="140.18" rx="5.18260584" ry="5.16"></ellipse>
                            <ellipse fill="#183365" cx="261.995586" cy="140.18" rx="5.18260584" ry="5.16"></ellipse>
                            <ellipse fill="#183365" cx="277.11152" cy="140.18" rx="5.18260584" ry="5.16"></ellipse>
                            <ellipse fill="#183365" cx="66.3522153" cy="155.23" rx="5.18260584" ry="5.16"></ellipse>
                            <ellipse fill="#183365" cx="81.468149" cy="155.23" rx="5.18260584" ry="5.16"></ellipse>
                            <ellipse fill="#183365" cx="96.1521989" cy="155.23" rx="5.18260584" ry="5.16"></ellipse>
                            <ellipse fill="#183365" cx="111.268133" cy="155.23" rx="5.18260584" ry="5.16"></ellipse>
                            <ellipse fill="#183365" cx="126.384066" cy="155.23" rx="5.18260584" ry="5.16"></ellipse>
                            <ellipse fill="#183365" cx="141.5" cy="155.23" rx="5.18260584" ry="5.16"></ellipse>
                            <ellipse fill="#183365" cx="156.615934" cy="155.23" rx="5.18260584" ry="5.16"></ellipse>
                            <ellipse fill="#183365" cx="171.731867" cy="155.23" rx="5.18260584" ry="5.16"></ellipse>
                            <ellipse fill="#183365" cx="186.847801" cy="155.23" rx="5.18260584" ry="5.16"></ellipse>
                            <ellipse fill="#183365" cx="201.531851" cy="155.23" rx="5.18260584" ry="5.16"></ellipse>
                            <ellipse fill="#183365" cx="216.647785" cy="155.23" rx="5.18260584" ry="5.16"></ellipse>
                            <ellipse fill="#183365" cx="231.763718" cy="155.23" rx="5.18260584" ry="5.16"></ellipse>
                            <ellipse fill="#183365" cx="246.879652" cy="155.23" rx="5.18260584" ry="5.16"></ellipse>
                            <ellipse fill="#183365" cx="261.995586" cy="155.23" rx="5.18260584" ry="5.16"></ellipse>
                            <ellipse fill="#183365" cx="277.11152" cy="155.23" rx="5.18260584" ry="5.16"></ellipse>
                            <ellipse fill="#183365" cx="66.3522153" cy="169.85" rx="5.18260584" ry="5.16"></ellipse>
                            <ellipse fill="#183365" cx="81.468149" cy="169.85" rx="5.18260584" ry="5.16"></ellipse>
                            <ellipse fill="#183365" cx="96.1521989" cy="169.85" rx="5.18260584" ry="5.16"></ellipse>
                            <ellipse fill="#183365" cx="111.268133" cy="169.85" rx="5.18260584" ry="5.16"></ellipse>
                            <ellipse fill="#183365" cx="126.384066" cy="169.85" rx="5.18260584" ry="5.16"></ellipse>
                            <ellipse fill="#183365" cx="141.5" cy="169.85" rx="5.18260584" ry="5.16"></ellipse>
                            <ellipse fill="#183365" cx="156.615934" cy="169.85" rx="5.18260584" ry="5.16"></ellipse>
                            <ellipse fill="#183365" cx="171.731867" cy="169.85" rx="5.18260584" ry="5.16"></ellipse>
                            <ellipse fill="#183365" cx="186.847801" cy="169.85" rx="5.18260584" ry="5.16"></ellipse>
                            <ellipse fill="#183365" cx="201.531851" cy="169.85" rx="5.18260584" ry="5.16"></ellipse>
                            <ellipse fill="#183365" cx="216.647785" cy="169.85" rx="5.18260584" ry="5.16"></ellipse>
                            <ellipse fill="#183365" cx="231.763718" cy="169.85" rx="5.18260584" ry="5.16"></ellipse>
                            <ellipse fill="#183365" cx="246.879652" cy="169.85" rx="5.18260584" ry="5.16"></ellipse>
                            <ellipse fill="#183365" cx="261.995586" cy="169.85" rx="5.18260584" ry="5.16"></ellipse>
                            <ellipse fill="#183365" cx="277.11152" cy="169.85" rx="5.18260584" ry="5.16"></ellipse>
                            <ellipse fill="#183365" cx="66.3522153" cy="184.9" rx="5.18260584" ry="5.16"></ellipse>
                            <ellipse fill="#183365" cx="81.468149" cy="184.9" rx="5.18260584" ry="5.16"></ellipse>
                            <ellipse fill="#183365" cx="96.1521989" cy="184.9" rx="5.18260584" ry="5.16"></ellipse>
                            <ellipse fill="#183365" cx="111.268133" cy="184.9" rx="5.18260584" ry="5.16"></ellipse>
                            <ellipse fill="#183365" cx="126.384066" cy="184.9" rx="5.18260584" ry="5.16"></ellipse>
                            <ellipse fill="#183365" cx="141.5" cy="184.9" rx="5.18260584" ry="5.16"></ellipse>
                            <ellipse fill="#183365" cx="156.615934" cy="184.9" rx="5.18260584" ry="5.16"></ellipse>
                            <ellipse fill="#183365" cx="171.731867" cy="184.9" rx="5.18260584" ry="5.16"></ellipse>
                            <ellipse fill="#183365" cx="186.847801" cy="184.9" rx="5.18260584" ry="5.16"></ellipse>
                            <ellipse fill="#183365" cx="201.531851" cy="184.9" rx="5.18260584" ry="5.16"></ellipse>
                            <ellipse fill="#183365" cx="216.647785" cy="184.9" rx="5.18260584" ry="5.16"></ellipse>
                            <ellipse fill="#183365" cx="231.763718" cy="184.9" rx="5.18260584" ry="5.16"></ellipse>
                            <ellipse fill="#183365" cx="246.879652" cy="184.9" rx="5.18260584" ry="5.16"></ellipse>
                            <ellipse fill="#183365" cx="261.995586" cy="184.9" rx="5.18260584" ry="5.16"></ellipse>
                            <ellipse fill="#183365" cx="277.11152" cy="184.9" rx="5.18260584" ry="5.16"></ellipse>
                            <ellipse fill="#183365" cx="66.3522153" cy="199.95" rx="5.18260584" ry="5.16"></ellipse>
                            <ellipse fill="#183365" cx="81.468149" cy="199.95" rx="5.18260584" ry="5.16"></ellipse>
                            <ellipse fill="#183365" cx="96.1521989" cy="199.95" rx="5.18260584" ry="5.16"></ellipse>
                            <ellipse fill="#183365" cx="111.268133" cy="199.95" rx="5.18260584" ry="5.16"></ellipse>
                            <ellipse fill="#183365" cx="126.384066" cy="199.95" rx="5.18260584" ry="5.16"></ellipse>
                            <ellipse fill="#183365" cx="141.5" cy="199.95" rx="5.18260584" ry="5.16"></ellipse>
                            <ellipse fill="#183365" cx="156.615934" cy="199.95" rx="5.18260584" ry="5.16"></ellipse>
                            <ellipse fill="#183365" cx="171.731867" cy="199.95" rx="5.18260584" ry="5.16"></ellipse>
                            <ellipse fill="#183365" cx="186.847801" cy="199.95" rx="5.18260584" ry="5.16"></ellipse>
                            <ellipse fill="#183365" cx="201.531851" cy="199.95" rx="5.18260584" ry="5.16"></ellipse>
                            <ellipse fill="#183365" cx="216.647785" cy="199.95" rx="5.18260584" ry="5.16"></ellipse>
                            <ellipse fill="#183365" cx="231.763718" cy="199.95" rx="5.18260584" ry="5.16"></ellipse>
                            <ellipse fill="#183365" cx="246.879652" cy="199.95" rx="5.18260584" ry="5.16"></ellipse>
                            <ellipse fill="#183365" cx="261.995586" cy="199.95" rx="5.18260584" ry="5.16"></ellipse>
                            <ellipse fill="#183365" cx="277.11152" cy="199.95" rx="5.18260584" ry="5.16"></ellipse>
                            <ellipse fill="#183365" cx="66.3522153" cy="215" rx="5.18260584" ry="5.16"></ellipse>
                            <ellipse fill="#183365" cx="81.468149" cy="215" rx="5.18260584" ry="5.16"></ellipse>
                            <ellipse fill="#183365" cx="96.1521989" cy="215" rx="5.18260584" ry="5.16"></ellipse>
                            <ellipse fill="#183365" cx="111.268133" cy="215" rx="5.18260584" ry="5.16"></ellipse>
                            <ellipse fill="#183365" cx="126.384066" cy="215" rx="5.18260584" ry="5.16"></ellipse>
                            <ellipse fill="#183365" cx="141.5" cy="215" rx="5.18260584" ry="5.16"></ellipse>
                            <ellipse fill="#183365" cx="156.615934" cy="215" rx="5.18260584" ry="5.16"></ellipse>
                            <ellipse fill="#183365" cx="171.731867" cy="215" rx="5.18260584" ry="5.16"></ellipse>
                            <ellipse fill="#183365" cx="186.847801" cy="215" rx="5.18260584" ry="5.16"></ellipse>
                            <ellipse fill="#183365" cx="201.531851" cy="215" rx="5.18260584" ry="5.16"></ellipse>
                            <ellipse fill="#183365" cx="216.647785" cy="215" rx="5.18260584" ry="5.16"></ellipse>
                            <ellipse fill="#183365" cx="231.763718" cy="215" rx="5.18260584" ry="5.16"></ellipse>
                            <ellipse fill="#183365" cx="246.879652" cy="215" rx="5.18260584" ry="5.16"></ellipse>
                            <ellipse fill="#183365" cx="261.995586" cy="215" rx="5.18260584" ry="5.16"></ellipse>
                            <ellipse fill="#183365" cx="277.11152" cy="215" rx="5.18260584" ry="5.16"></ellipse>
                            <ellipse fill="#183365" cx="66.3522153" cy="230.05" rx="5.18260584" ry="5.16"></ellipse>
                            <ellipse fill="#183365" cx="81.468149" cy="230.05" rx="5.18260584" ry="5.16"></ellipse>
                            <ellipse fill="#183365" cx="96.1521989" cy="230.05" rx="5.18260584" ry="5.16"></ellipse>
                            <ellipse fill="#183365" cx="111.268133" cy="230.05" rx="5.18260584" ry="5.16"></ellipse>
                            <ellipse fill="#183365" cx="126.384066" cy="230.05" rx="5.18260584" ry="5.16"></ellipse>
                            <ellipse fill="#183365" cx="141.5" cy="230.05" rx="5.18260584" ry="5.16"></ellipse>
                            <ellipse fill="#183365" cx="156.615934" cy="230.05" rx="5.18260584" ry="5.16"></ellipse>
                            <ellipse fill="#183365" cx="171.731867" cy="230.05" rx="5.18260584" ry="5.16"></ellipse>
                            <ellipse fill="#183365" cx="186.847801" cy="230.05" rx="5.18260584" ry="5.16"></ellipse>
                            <ellipse fill="#183365" cx="201.531851" cy="230.05" rx="5.18260584" ry="5.16"></ellipse>
                            <ellipse fill="#183365" cx="216.647785" cy="230.05" rx="5.18260584" ry="5.16"></ellipse>
                            <ellipse fill="#183365" cx="231.763718" cy="230.05" rx="5.18260584" ry="5.16"></ellipse>
                            <ellipse fill="#183365" cx="246.879652" cy="230.05" rx="5.18260584" ry="5.16"></ellipse>
                            <ellipse fill="#183365" cx="261.995586" cy="230.05" rx="5.18260584" ry="5.16"></ellipse>
                            <ellipse fill="#183365" cx="277.11152" cy="230.05" rx="5.18260584" ry="5.16"></ellipse>
                            <ellipse fill="#183365" cx="66.3522153" cy="245.1" rx="5.18260584" ry="5.16"></ellipse>
                            <ellipse fill="#183365" cx="81.468149" cy="245.1" rx="5.18260584" ry="5.16"></ellipse>
                            <ellipse fill="#183365" cx="96.1521989" cy="245.1" rx="5.18260584" ry="5.16"></ellipse>
                            <ellipse fill="#183365" cx="111.268133" cy="245.1" rx="5.18260584" ry="5.16"></ellipse>
                            <ellipse fill="#183365" cx="126.384066" cy="245.1" rx="5.18260584" ry="5.16"></ellipse>
                            <ellipse fill="#183365" cx="141.5" cy="245.1" rx="5.18260584" ry="5.16"></ellipse>
                            <ellipse fill="#183365" cx="156.615934" cy="245.1" rx="5.18260584" ry="5.16"></ellipse>
                            <ellipse fill="#183365" cx="171.731867" cy="245.1" rx="5.18260584" ry="5.16"></ellipse>
                            <ellipse fill="#183365" cx="186.847801" cy="245.1" rx="5.18260584" ry="5.16"></ellipse>
                            <ellipse fill="#183365" cx="201.531851" cy="245.1" rx="5.18260584" ry="5.16"></ellipse>
                            <ellipse fill="#183365" cx="216.647785" cy="245.1" rx="5.18260584" ry="5.16"></ellipse>
                            <ellipse fill="#183365" cx="231.763718" cy="245.1" rx="5.18260584" ry="5.16"></ellipse>
                            <ellipse fill="#183365" cx="246.879652" cy="245.1" rx="5.18260584" ry="5.16"></ellipse>
                            <ellipse fill="#183365" cx="261.995586" cy="245.1" rx="5.18260584" ry="5.16"></ellipse>
                            <ellipse fill="#183365" cx="277.11152" cy="245.1" rx="5.18260584" ry="5.16"></ellipse>
                            <ellipse fill="#183365" cx="51.2362816" cy="260.15" rx="5.18260584" ry="5.16"></ellipse>
                            <ellipse fill="#183365" cx="66.3522153" cy="260.15" rx="5.18260584" ry="5.16"></ellipse>
                            <ellipse fill="#183365" cx="81.468149" cy="260.15" rx="5.18260584" ry="5.16"></ellipse>
                            <ellipse fill="#183365" cx="96.1521989" cy="260.15" rx="5.18260584" ry="5.16"></ellipse>
                            <ellipse fill="#183365" cx="111.268133" cy="260.15" rx="5.18260584" ry="5.16"></ellipse>
                            <ellipse fill="#F1C763" cx="126.384066" cy="260.15" rx="5.18260584" ry="5.16"></ellipse>
                            <ellipse fill="#F1C763" cx="141.5" cy="260.15" rx="5.18260584" ry="5.16"></ellipse>
                            <ellipse fill="#183365" cx="156.615934" cy="260.15" rx="5.18260584" ry="5.16"></ellipse>
                            <ellipse fill="#183365" cx="171.731867" cy="260.15" rx="5.18260584" ry="5.16"></ellipse>
                            <ellipse fill="#183365" cx="186.847801" cy="260.15" rx="5.18260584" ry="5.16"></ellipse>
                            <ellipse fill="#183365" cx="201.531851" cy="260.15" rx="5.18260584" ry="5.16"></ellipse>
                            <ellipse fill="#183365" cx="216.647785" cy="260.15" rx="5.18260584" ry="5.16"></ellipse>
                            <ellipse fill="#183365" cx="231.763718" cy="260.15" rx="5.18260584" ry="5.16"></ellipse>
                            <ellipse fill="#183365" cx="246.879652" cy="260.15" rx="5.18260584" ry="5.16"></ellipse>
                            <ellipse fill="#183365" cx="261.995586" cy="260.15" rx="5.18260584" ry="5.16"></ellipse>
                            <ellipse fill="#183365" cx="277.11152" cy="260.15" rx="5.18260584" ry="5.16"></ellipse>
                            <ellipse fill="#183365" cx="51.2362816" cy="274.77" rx="5.18260584" ry="5.16"></ellipse>
                            <ellipse fill="#183365" cx="66.3522153" cy="274.77" rx="5.18260584" ry="5.16"></ellipse>
                            <ellipse fill="#183365" cx="81.468149" cy="274.77" rx="5.18260584" ry="5.16"></ellipse>
                            <ellipse fill="#183365" cx="96.1521989" cy="274.77" rx="5.18260584" ry="5.16"></ellipse>
                            <ellipse fill="#183365" cx="111.268133" cy="274.77" rx="5.18260584" ry="5.16"></ellipse>
                            <ellipse fill="#F1C763" cx="126.384066" cy="274.77" rx="5.18260584" ry="5.16"></ellipse>
                            <ellipse fill="#F1C763" cx="141.5" cy="274.77" rx="5.18260584" ry="5.16"></ellipse>
                            <ellipse fill="#183365" cx="156.615934" cy="274.77" rx="5.18260584" ry="5.16"></ellipse>
                            <ellipse fill="#183365" cx="171.731867" cy="274.77" rx="5.18260584" ry="5.16"></ellipse>
                            <ellipse fill="#183365" cx="186.847801" cy="274.77" rx="5.18260584" ry="5.16"></ellipse>
                            <ellipse fill="#183365" cx="201.531851" cy="274.77" rx="5.18260584" ry="5.16"></ellipse>
                            <ellipse fill="#183365" cx="216.647785" cy="274.77" rx="5.18260584" ry="5.16"></ellipse>
                            <ellipse fill="#183365" cx="231.763718" cy="274.77" rx="5.18260584" ry="5.16"></ellipse>
                            <ellipse fill="#183365" cx="246.879652" cy="274.77" rx="5.18260584" ry="5.16"></ellipse>
                            <ellipse fill="#183365" cx="261.995586" cy="274.77" rx="5.18260584" ry="5.16"></ellipse>
                            <ellipse fill="#183365" cx="277.11152" cy="274.77" rx="5.18260584" ry="5.16"></ellipse>
                            <ellipse fill="#183365" cx="51.2362816" cy="289.82" rx="5.18260584" ry="5.16"></ellipse>
                            <ellipse fill="#183365" cx="66.3522153" cy="289.82" rx="5.18260584" ry="5.16"></ellipse>
                            <ellipse fill="#183365" cx="81.468149" cy="289.82" rx="5.18260584" ry="5.16"></ellipse>
                            <ellipse fill="#183365" cx="96.1521989" cy="289.82" rx="5.18260584" ry="5.16"></ellipse>
                            <ellipse fill="#183365" cx="111.268133" cy="289.82" rx="5.18260584" ry="5.16"></ellipse>
                            <ellipse fill="#183365" cx="126.384066" cy="289.82" rx="5.18260584" ry="5.16"></ellipse>
                            <ellipse fill="#183365" cx="141.5" cy="289.82" rx="5.18260584" ry="5.16"></ellipse>
                            <ellipse fill="#183365" cx="156.615934" cy="289.82" rx="5.18260584" ry="5.16"></ellipse>
                            <ellipse fill="#183365" cx="171.731867" cy="289.82" rx="5.18260584" ry="5.16"></ellipse>
                            <ellipse fill="#183365" cx="186.847801" cy="289.82" rx="5.18260584" ry="5.16"></ellipse>
                            <ellipse fill="#183365" cx="201.531851" cy="289.82" rx="5.18260584" ry="5.16"></ellipse>
                            <ellipse fill="#183365" cx="216.647785" cy="289.82" rx="5.18260584" ry="5.16"></ellipse>
                            <ellipse fill="#183365" cx="231.763718" cy="289.82" rx="5.18260584" ry="5.16"></ellipse>
                            <ellipse fill="#183365" cx="246.879652" cy="289.82" rx="5.18260584" ry="5.16"></ellipse>
                            <ellipse fill="#183365" cx="261.995586" cy="289.82" rx="5.18260584" ry="5.16"></ellipse>
                            <ellipse fill="#183365" cx="277.11152" cy="289.82" rx="5.18260584" ry="5.16"></ellipse>
                            <ellipse fill="#183365" cx="51.2362816" cy="304.87" rx="5.18260584" ry="5.16"></ellipse>
                            <ellipse fill="#183365" cx="66.3522153" cy="304.87" rx="5.18260584" ry="5.16"></ellipse>
                            <ellipse fill="#183365" cx="81.468149" cy="304.87" rx="5.18260584" ry="5.16"></ellipse>
                            <ellipse fill="#183365" cx="96.1521989" cy="304.87" rx="5.18260584" ry="5.16"></ellipse>
                            <ellipse fill="#183365" cx="111.268133" cy="304.87" rx="5.18260584" ry="5.16"></ellipse>
                            <ellipse fill="#183365" cx="126.384066" cy="304.87" rx="5.18260584" ry="5.16"></ellipse>
                            <ellipse fill="#183365" cx="141.5" cy="304.87" rx="5.18260584" ry="5.16"></ellipse>
                            <ellipse fill="#183365" cx="156.615934" cy="304.87" rx="5.18260584" ry="5.16"></ellipse>
                            <ellipse fill="#183365" cx="171.731867" cy="304.87" rx="5.18260584" ry="5.16"></ellipse>
                            <ellipse fill="#183365" cx="186.847801" cy="304.87" rx="5.18260584" ry="5.16"></ellipse>
                            <ellipse fill="#183365" cx="201.531851" cy="304.87" rx="5.18260584" ry="5.16"></ellipse>
                            <ellipse fill="#183365" cx="216.647785" cy="304.87" rx="5.18260584" ry="5.16"></ellipse>
                            <ellipse fill="#183365" cx="231.763718" cy="304.87" rx="5.18260584" ry="5.16"></ellipse>
                            <ellipse fill="#183365" cx="246.879652" cy="304.87" rx="5.18260584" ry="5.16"></ellipse>
                            <ellipse fill="#183365" cx="261.995586" cy="304.87" rx="5.18260584" ry="5.16"></ellipse>
                            <ellipse fill="#183365" cx="277.11152" cy="304.87" rx="5.18260584" ry="5.16"></ellipse>
                            <ellipse fill="#183365" cx="66.3522153" cy="319.92" rx="5.18260584" ry="5.16"></ellipse>
                            <ellipse fill="#183365" cx="81.468149" cy="319.92" rx="5.18260584" ry="5.16"></ellipse>
                            <ellipse fill="#183365" cx="96.1521989" cy="319.92" rx="5.18260584" ry="5.16"></ellipse>
                            <ellipse fill="#183365" cx="111.268133" cy="319.92" rx="5.18260584" ry="5.16"></ellipse>
                            <ellipse fill="#183365" cx="126.384066" cy="319.92" rx="5.18260584" ry="5.16"></ellipse>
                            <ellipse fill="#183365" cx="141.5" cy="319.92" rx="5.18260584" ry="5.16"></ellipse>
                            <ellipse fill="#183365" cx="156.615934" cy="319.92" rx="5.18260584" ry="5.16"></ellipse>
                            <ellipse fill="#183365" cx="171.731867" cy="319.92" rx="5.18260584" ry="5.16"></ellipse>
                            <ellipse fill="#183365" cx="186.847801" cy="319.92" rx="5.18260584" ry="5.16"></ellipse>
                            <ellipse fill="#183365" cx="201.531851" cy="319.92" rx="5.18260584" ry="5.16"></ellipse>
                            <ellipse fill="#183365" cx="216.647785" cy="319.92" rx="5.18260584" ry="5.16"></ellipse>
                            <ellipse fill="#183365" cx="231.763718" cy="319.92" rx="5.18260584" ry="5.16"></ellipse>
                            <ellipse fill="#183365" cx="246.879652" cy="319.92" rx="5.18260584" ry="5.16"></ellipse>
                            <ellipse fill="#183365" cx="261.995586" cy="319.92" rx="5.18260584" ry="5.16"></ellipse>
                            <ellipse fill="#183365" cx="277.11152" cy="319.92" rx="5.18260584" ry="5.16"></ellipse>
                            <ellipse fill="#183365" cx="51.2362816" cy="334.97" rx="5.18260584" ry="5.16"></ellipse>
                            <ellipse fill="#183365" cx="66.3522153" cy="334.97" rx="5.18260584" ry="5.16"></ellipse>
                            <ellipse fill="#183365" cx="81.468149" cy="334.97" rx="5.18260584" ry="5.16"></ellipse>
                            <ellipse fill="#183365" cx="96.1521989" cy="334.97" rx="5.18260584" ry="5.16"></ellipse>
                            <ellipse fill="#183365" cx="111.268133" cy="334.97" rx="5.18260584" ry="5.16"></ellipse>
                            <ellipse fill="#183365" cx="126.384066" cy="334.97" rx="5.18260584" ry="5.16"></ellipse>
                            <ellipse fill="#183365" cx="141.5" cy="334.97" rx="5.18260584" ry="5.16"></ellipse>
                            <ellipse fill="#183365" cx="156.615934" cy="334.97" rx="5.18260584" ry="5.16"></ellipse>
                            <ellipse fill="#183365" cx="171.731867" cy="334.97" rx="5.18260584" ry="5.16"></ellipse>
                            <ellipse fill="#183365" cx="186.847801" cy="334.97" rx="5.18260584" ry="5.16"></ellipse>
                            <ellipse fill="#183365" cx="201.531851" cy="334.97" rx="5.18260584" ry="5.16"></ellipse>
                            <ellipse fill="#183365" cx="216.647785" cy="334.97" rx="5.18260584" ry="5.16"></ellipse>
                            <ellipse fill="#183365" cx="51.2362816" cy="350.02" rx="5.18260584" ry="5.16"></ellipse>
                            <ellipse fill="#183365" cx="66.3522153" cy="350.02" rx="5.18260584" ry="5.16"></ellipse>
                            <ellipse fill="#183365" cx="81.468149" cy="350.02" rx="5.18260584" ry="5.16"></ellipse>
                            <ellipse fill="#183365" cx="96.1521989" cy="350.02" rx="5.18260584" ry="5.16"></ellipse>
                            <ellipse fill="#183365" cx="111.268133" cy="350.02" rx="5.18260584" ry="5.16"></ellipse>
                            <ellipse fill="#183365" cx="126.384066" cy="350.02" rx="5.18260584" ry="5.16"></ellipse>
                            <ellipse fill="#183365" cx="141.5" cy="350.02" rx="5.18260584" ry="5.16"></ellipse>
                            <ellipse fill="#183365" cx="156.615934" cy="350.02" rx="5.18260584" ry="5.16"></ellipse>
                            <ellipse fill="#183365" cx="171.731867" cy="350.02" rx="5.18260584" ry="5.16"></ellipse>
                            <ellipse fill="#183365" cx="186.847801" cy="350.02" rx="5.18260584" ry="5.16"></ellipse>
                            <ellipse fill="#183365" cx="201.531851" cy="350.02" rx="5.18260584" ry="5.16"></ellipse>
                            <ellipse fill="#183365" cx="216.647785" cy="350.02" rx="5.18260584" ry="5.16"></ellipse>
                            <ellipse fill="#183365" cx="36.1203479" cy="364.64" rx="5.18260584" ry="5.16"></ellipse>
                            <ellipse fill="#183365" cx="51.2362816" cy="364.64" rx="5.18260584" ry="5.16"></ellipse>
                            <ellipse fill="#183365" cx="66.3522153" cy="364.64" rx="5.18260584" ry="5.16"></ellipse>
                            <ellipse fill="#183365" cx="81.468149" cy="364.64" rx="5.18260584" ry="5.16"></ellipse>
                            <ellipse fill="#183365" cx="96.1521989" cy="364.64" rx="5.18260584" ry="5.16"></ellipse>
                            <ellipse fill="#183365" cx="111.268133" cy="364.64" rx="5.18260584" ry="5.16"></ellipse>
                            <ellipse fill="#183365" cx="126.384066" cy="364.64" rx="5.18260584" ry="5.16"></ellipse>
                            <ellipse fill="#183365" cx="141.5" cy="364.64" rx="5.18260584" ry="5.16"></ellipse>
                            <ellipse fill="#183365" cx="156.615934" cy="364.64" rx="5.18260584" ry="5.16"></ellipse>
                            <ellipse fill="#183365" cx="171.731867" cy="364.64" rx="5.18260584" ry="5.16"></ellipse>
                            <ellipse fill="#183365" cx="186.847801" cy="364.64" rx="5.18260584" ry="5.16"></ellipse>
                            <ellipse fill="#183365" cx="201.531851" cy="364.64" rx="5.18260584" ry="5.16"></ellipse>
                            <ellipse fill="#183365" cx="21.0044142" cy="379.69" rx="5.18260584" ry="5.16"></ellipse>
                            <ellipse fill="#183365" cx="36.1203479" cy="379.69" rx="5.18260584" ry="5.16"></ellipse>
                            <ellipse fill="#183365" cx="51.2362816" cy="379.69" rx="5.18260584" ry="5.16"></ellipse>
                            <ellipse fill="#183365" cx="66.3522153" cy="379.69" rx="5.18260584" ry="5.16"></ellipse>
                            <ellipse fill="#183365" cx="81.468149" cy="379.69" rx="5.18260584" ry="5.16"></ellipse>
                            <ellipse fill="#183365" cx="96.1521989" cy="379.69" rx="5.18260584" ry="5.16"></ellipse>
                            <ellipse fill="#183365" cx="111.268133" cy="379.69" rx="5.18260584" ry="5.16"></ellipse>
                            <ellipse fill="#183365" cx="126.384066" cy="379.69" rx="5.18260584" ry="5.16"></ellipse>
                            <ellipse fill="#183365" cx="141.5" cy="379.69" rx="5.18260584" ry="5.16"></ellipse>
                            <ellipse fill="#183365" cx="156.615934" cy="379.69" rx="5.18260584" ry="5.16"></ellipse>
                            <ellipse fill="#183365" cx="171.731867" cy="379.69" rx="5.18260584" ry="5.16"></ellipse>
                            <ellipse fill="#183365" cx="186.847801" cy="379.69" rx="5.18260584" ry="5.16"></ellipse>
                            <ellipse fill="#183365" cx="21.0044142" cy="394.74" rx="5.18260584" ry="5.16"></ellipse>
                            <ellipse fill="#183365" cx="36.1203479" cy="394.74" rx="5.18260584" ry="5.16"></ellipse>
                            <ellipse fill="#183365" cx="51.2362816" cy="394.74" rx="5.18260584" ry="5.16"></ellipse>
                            <ellipse fill="#183365" cx="66.3522153" cy="394.74" rx="5.18260584" ry="5.16"></ellipse>
                            <ellipse fill="#183365" cx="81.468149" cy="394.74" rx="5.18260584" ry="5.16"></ellipse>
                            <ellipse fill="#183365" cx="96.1521989" cy="394.74" rx="5.18260584" ry="5.16"></ellipse>
                            <ellipse fill="#183365" cx="111.268133" cy="394.74" rx="5.18260584" ry="5.16"></ellipse>
                            <ellipse fill="#183365" cx="126.384066" cy="394.74" rx="5.18260584" ry="5.16"></ellipse>
                            <ellipse fill="#183365" cx="156.615934" cy="394.74" rx="5.18260584" ry="5.16"></ellipse>
                            <ellipse fill="#183365" cx="171.731867" cy="394.74" rx="5.18260584" ry="5.16"></ellipse>
                            <ellipse fill="#183365" cx="186.847801" cy="394.74" rx="5.18260584" ry="5.16"></ellipse>
                            <ellipse fill="#183365" cx="5.88848047" cy="409.79" rx="5.18260584" ry="5.16"></ellipse>
                            <ellipse fill="#183365" cx="21.0044142" cy="409.79" rx="5.18260584" ry="5.16"></ellipse>
                            <ellipse fill="#183365" cx="36.1203479" cy="409.79" rx="5.18260584" ry="5.16"></ellipse>
                            <ellipse fill="#183365" cx="51.2362816" cy="409.79" rx="5.18260584" ry="5.16"></ellipse>
                            <ellipse fill="#183365" cx="66.3522153" cy="409.79" rx="5.18260584" ry="5.16"></ellipse>
                            <ellipse fill="#183365" cx="81.468149" cy="409.79" rx="5.18260584" ry="5.16"></ellipse>
                            <ellipse fill="#183365" cx="96.1521989" cy="409.79" rx="5.18260584" ry="5.16"></ellipse>
                            <ellipse fill="#183365" cx="111.268133" cy="409.79" rx="5.18260584" ry="5.16"></ellipse>
                            <ellipse fill="#183365" cx="126.384066" cy="409.79" rx="5.18260584" ry="5.16"></ellipse>
                            <ellipse fill="#183365" cx="5.88848047" cy="424.84" rx="5.18260584" ry="5.16"></ellipse>
                            <ellipse fill="#183365" cx="21.0044142" cy="424.84" rx="5.18260584" ry="5.16"></ellipse>
                            <ellipse fill="#183365" cx="81.468149" cy="424.84" rx="5.18260584" ry="5.16"></ellipse>
                        </g>
                    </g>
                </g>
            </g>
        </g>
    </g>
</svg>
