<?xml version="1.0" encoding="UTF-8"?>
<svg width="67px" height="67px" viewBox="0 0 67 67" version="1.1" xmlns="http://www.w3.org/2000/svg" xmlns:xlink="http://www.w3.org/1999/xlink">
    <!-- Generator: Sketch 42 (36781) - http://www.bohemiancoding.com/sketch -->
    <title>noun_774154_cc</title>
    <desc>Created with Sketch.</desc>
    <defs></defs>
    <g id="Website" stroke="none" stroke-width="1" fill="none" fill-rule="evenodd">
        <g id="Final-concept" transform="translate(-687.000000, -3656.000000)">
            <g id="city-govt" transform="translate(150.000000, 3132.000000)">
                <g id="noun_774154_cc" transform="translate(538.000000, 525.000000)">
                    <g id="Group" transform="translate(19.000000, 15.000000)" fill="#183365">
                        <g transform="translate(0.000000, 0.209345)" id="Shape">
                            <g transform="translate(0.000661, 0.107889)">
                                <path d="M12.6968945,0.282978821 C10.8311995,1.47250968 8.67659348,2.15041293 6.41118272,1.91895298 C6.18812626,1.85767452 5.94246963,1.87185357 5.72909436,1.95837207 C4.9869071,2.35535279 4.46348508,2.98920907 4.45935806,3.72254848 C4.46204448,4.08559138 4.64363303,4.50370939 4.9420674,4.77711571 C6.00008695,6.07088881 6.00225254,7.69498142 6.01240721,8.93627235 C6.18496602,10.5620061 6.51090262,12.6447189 7.5549763,14.4259955 C8.59904998,16.2072065 10.5320801,17.6727365 13.368476,17.6783819 C16.3591663,17.6728022 18.3360052,16.3230677 19.3498735,14.5639459 C20.3637384,12.8048897 20.5898543,10.7252621 20.7875077,8.92639297 C20.97641,7.25690769 20.8842423,5.75648796 21.8788321,4.83626075 C22.1820953,4.57142094 22.373946,4.1597032 22.3930229,3.80138666 C22.3868777,3.02724963 21.853338,2.28626272 21.1967434,2.00767054 C21.0007657,1.92564865 20.7765168,1.90457699 20.5671239,1.94849268 C18.42233,1.87060634 15.7856056,1.76731586 14.1240046,0.282880355 C13.5634664,-0.105599498 13.2310186,-0.0527562598 12.6968945,0.282978821 L12.6968945,0.282978821 Z M8.00620415,7.90156237 L18.8042012,7.90156237 C18.7934555,8.18980418 18.7843888,8.47158008 18.7832135,8.73930821 C18.5880921,10.5151364 18.3211057,12.3752184 17.5764402,13.6672191 C16.8317747,14.9592199 15.7898938,15.7817364 13.368476,15.7862001 C11.2072513,15.7819333 10.1315181,14.8796924 9.32840958,13.5095428 C8.52529768,12.1393603 8.178904,10.2773747 8.01669798,8.7491876 C8.01501896,8.45306854 8.01434736,8.1539955 8.00622094,7.90156237 L8.00620415,7.90156237 Z M13.4314356,18.2502048 C10.0006525,18.250172 6.56361017,18.8067656 2.71738947,19.9256637 C1.16434325,20.503132 0.369448533,22.2353727 0.335324286,23.3357921 C0.280111644,25.9589173 0.22352557,28.5860139 0.16742641,31.2105505 C0.156344928,31.7124956 0.64029663,32.1764986 1.17482028,32.1764329 L25.6880544,32.1764329 C26.2225781,32.1764986 26.7065299,31.7124956 26.6954484,31.2105505 C26.6422002,28.5860796 26.5790358,25.9589829 26.5275505,23.3359234 C26.3491722,21.764674 25.6775774,20.503132 24.1349915,19.9257622 C20.2887738,18.8068968 16.8622219,18.2503033 13.4314356,18.2503033 L13.4314356,18.2502048 Z M13.4314356,20.1129125 C16.5766387,20.1129125 19.7209587,20.6383581 23.3479645,21.6800264 C24.0810448,22.1723875 24.5127626,22.85098 24.5127626,23.3554852 C24.5609737,25.6633234 24.6105718,27.9750345 24.6596728,30.2842512 L2.20319856,30.2842512 C2.25179925,27.9751001 2.30235095,25.6633562 2.35011214,23.3555837 C2.35011214,22.8511441 2.77133614,22.1725516 3.50441643,21.6801248 C7.13142528,20.6384894 10.2862358,20.1130438 13.4314356,20.1130438 L13.4314356,20.1129125 Z M5.80254779,23.6314188 C5.44447155,23.8486669 5.03553801,23.8554938 4.67972508,23.8679005 C4.44591589,23.9706658 4.41626118,24.1167232 4.36491362,24.3015761 C4.36558522,24.4039804 4.42206384,24.528441 4.50133337,24.5972685 C4.62063056,24.70092 4.62725594,24.839494 4.62725594,25.119596 C4.68834177,25.4777812 4.75468962,25.8353101 4.91058592,26.0954235 C5.10932389,26.4168482 5.50529209,26.6956045 6.0334083,26.6965892 C6.57951042,26.693307 6.9808481,26.4379199 7.17722202,26.1150838 C7.3515438,25.7963833 7.41697491,25.4394125 7.45005481,25.119596 C7.45139802,24.8527212 7.46305037,24.7006246 7.57598074,24.607115 C7.65603269,24.5408477 7.71725284,24.4218355 7.72289096,24.3213021 C7.71271615,24.0800284 7.54117179,23.9891117 7.40808286,23.8777799 C6.98609333,23.8577585 6.64103615,23.8038978 6.26426914,23.6315173 C6.02777689,23.4953721 6.01063417,23.5569788 5.80254779,23.6314188 L5.80254779,23.6314188 Z"></path>
                            </g>
                        </g>
                    </g>
                    <circle id="Oval-11" stroke="#183365" stroke-width="2" cx="32.5" cy="32.5" r="32.5"></circle>
                </g>
            </g>
        </g>
    </g>
</svg>
