<?xml version="1.0" encoding="UTF-8"?>
<svg width="45px" height="53px" viewBox="0 0 45 53" version="1.1" xmlns="http://www.w3.org/2000/svg" xmlns:xlink="http://www.w3.org/1999/xlink">
    <!-- Generator: Sketch 42 (36781) - http://www.bohemiancoding.com/sketch -->
    <title>noun_769569_cc</title>
    <desc>Created with Sketch.</desc>
    <defs></defs>
    <g id="Website" stroke="none" stroke-width="1" fill="none" fill-rule="evenodd">
        <g id="Final-concept" transform="translate(-849.000000, -58.000000)" stroke="#183365">
            <g id="top-nav" transform="translate(0.000000, 47.000000)">
                <g id="Top-Nav" transform="translate(209.000000, 13.000000)">
                    <g id="about" transform="translate(560.000000, 0.000000)">
                        <g id="noun_769569_cc">
                            <g transform="translate(82.000000, 0.000000)">
                                <g id="512---Search-Location-(interaction,-communication,-interface)">
                                    <g id="Group">
                                        <g id="Shape">
                                            <g>
                                                <path d="M24.3155684,18.1818182 C24.3155684,21.9477273 21.3468316,25 17.6839895,25 C14.0211474,25 11.0524105,21.9477273 11.0524105,18.1818182 C11.0524105,14.4159091 14.0211474,11.3636364 17.6839895,11.3636364 C21.3468316,11.3636364 24.3155684,14.4159091 24.3155684,18.1818182 L24.3155684,18.1818182 Z" stroke-width="2.5"></path>
                                                <path d="M34.2388421,24.9995455 C36.582,18.3518182 35.2534737,9.92681818 30.4831579,5.02227273 C26.9706316,1.41090909 22.2821053,-0.234545455 17.6842105,0.0495454545 C13.0863158,-0.234545455 8.39778947,1.41090909 4.88526316,5.02227273 C-0.983684211,11.0563636 -1.64463158,22.4177273 3.33568421,29.245 L17.6842105,49.9995455" stroke-width="2.5"></path>
                                                <path d="M37.5787263,38.6363636 C37.5787263,42.4022727 34.6099895,45.4545455 30.9471474,45.4545455 C27.2843053,45.4545455 24.3155684,42.4022727 24.3155684,38.6363636 C24.3155684,34.8704545 27.2843053,31.8181818 30.9471474,31.8181818 C34.6099895,31.8181818 37.5787263,34.8704545 37.5787263,38.6363636 L37.5787263,38.6363636 Z" stroke-width="2.5"></path>
                                                <path d="M35.6358947,43.4570455 L42,50.0002273" stroke-width="2"></path>
                                            </g>
                                        </g>
                                    </g>
                                </g>
                            </g>
                        </g>
                    </g>
                </g>
            </g>
        </g>
    </g>
</svg>
