<svg xmlns="http://www.w3.org/2000/svg" id="cob-logo" width="499.89214" height="499.891" viewBox="0 0 499.89214 499.891">
  <polygon points="106.148 73.584 75.477 43.213 75.477 76.435 42.383 76.435 70.796 108.984 42.383 137.435 136.477 137.435 136.477 43.213 106.148 73.584" />
  <polygon points="73.626 392.765 43.255 423.435 76.477 423.435 76.477 456.529 109.026 428.117 137.477 456.529 137.477 362.435 43.255 362.435 73.626 392.765" />
  <polygon points="426.328 107.106 456.699 76.435 423.477 76.435 423.477 43.341 390.928 71.754 362.477 43.341 362.477 137.435 456.699 137.435 426.328 107.106" />
  <polygon points="392.807 426.286 423.477 456.657 423.477 423.435 456.571 423.435 428.159 390.886 456.571 362.435 362.477 362.435 362.477 456.657 392.807 426.286" />
  <polygon points="189.678 202.722 142.46 155.435 48.053 155.435 94.584 203.435 0 203.435 48.117 249.908 0 298.435 94.64 298.435 47.99 344.435 142.475 344.441 189.675 297.15 142.47 249.931 189.678 202.722" />
  <polygon points="310.214 297.149 357.432 344.435 451.839 344.435 405.308 296.435 499.892 296.435 451.775 249.963 499.892 201.435 405.253 201.435 451.902 155.435 357.417 155.429 310.217 202.72 357.422 249.94 310.214 297.149" />
  <polygon points="297.19 189.678 344.477 142.46 344.477 48.053 296.477 94.584 296.477 0 250.005 48.117 201.477 0 201.477 94.64 155.477 47.99 155.471 142.475 202.762 189.675 249.982 142.47 297.19 189.678" />
  <polygon points="202.764 310.213 155.477 357.431 155.477 451.838 203.477 405.307 203.477 499.891 249.95 451.774 298.477 499.891 298.477 405.251 344.477 451.901 344.483 357.416 297.192 310.216 249.973 357.421 202.764 310.213" />
</svg>
