<svg viewBox="0 0 1792 1792" height="1792" width="1792" xmlns="http://www.w3.org/2000/svg">
  <path style="fill:#4a4a4a" d="M 416 128 C 336.66667 128 268.83333 156.16667 212.5 212.5 C 156.16667 268.83333 128 336.66667 128 416 L 128 1376 C 128 1455.3333 156.16667 1523.1667 212.5 1579.5 C 268.83333 1635.8333 336.66667 1664 416 1664 L 1376 1664 C 1455.3333 1664 1523.1667 1635.8333 1579.5 1579.5 C 1635.8333 1523.1667 1664 1455.3333 1664 1376 L 1664 416 C 1664 336.66667 1635.8333 268.83333 1579.5 212.5 C 1523.1667 156.16667 1455.3333 128 1376 128 L 416 128 z M 896 380.80664 C 1070.4119 380.80664 1212.1406 523.47558 1212.1406 696.94727 C 1212.1406 805.32475 1173.014 929.12031 1110.4199 1038.3359 C 1168.5026 1053.0376 1218.0935 1073.7405 1256.0508 1099.4434 C 1299.5181 1128.8761 1329.2305 1167.3059 1329.2305 1212.1406 C 1329.2305 1243.7735 1314.1791 1272.9823 1290.4453 1297.0312 C 1266.7115 1321.0791 1234.0062 1341.0301 1194.9434 1357.7715 C 1116.8177 1391.2532 1011.8787 1411.1934 896 1411.1934 C 780.12129 1411.1934 675.18227 1391.2532 597.05664 1357.7715 C 557.99383 1341.0301 525.28846 1321.0791 501.55469 1297.0312 C 477.82091 1272.9823 462.76953 1243.7735 462.76953 1212.1406 C 462.76953 1167.3059 492.48189 1128.8761 535.94922 1099.4434 C 573.90651 1073.7405 623.49743 1053.0376 681.58008 1038.3359 C 618.98596 929.12031 579.85938 805.32475 579.85938 696.94727 C 579.85938 523.47558 721.58813 380.80664 896 380.80664 z M 896 427.64258 C 747.07844 427.64258 626.69531 548.93292 626.69531 696.94727 C 626.69531 870.45875 749.11744 1107.9127 896 1217.2637 C 1042.8826 1107.9127 1165.3047 870.45875 1165.3047 696.94727 C 1165.3047 548.93292 1044.9216 427.64258 896 427.64258 z M 896 521.31445 C 992.72255 521.31445 1071.6348 600.22463 1071.6348 696.94727 C 1071.6348 793.66989 992.72255 872.58203 896 872.58203 C 799.27744 872.58203 720.36523 793.66989 720.36523 696.94727 C 720.36523 600.22463 799.27744 521.31445 896 521.31445 z M 896 568.15039 C 824.58936 568.15039 767.20117 625.53655 767.20117 696.94727 C 767.20117 768.35798 824.58936 825.74609 896 825.74609 C 967.41065 825.74609 1024.7988 768.35798 1024.7988 696.94727 C 1024.7988 625.53655 967.41065 568.15039 896 568.15039 z M 707.55859 1080.416 C 647.08621 1094.3894 596.61729 1114.9873 562.29492 1138.2285 C 526.09655 1162.7388 509.60547 1188.2731 509.60547 1212.1406 C 509.60547 1229.0074 517.4772 1246.1229 535.21875 1264.0996 C 552.9603 1282.0763 580.25282 1299.9185 615.35156 1314.9609 C 685.54904 1345.0459 785.54523 1364.3574 896 1364.3574 C 1006.4548 1364.3574 1106.451 1345.0459 1176.6484 1314.9609 C 1211.7472 1299.9185 1239.0397 1282.0763 1256.7812 1264.0996 C 1274.5228 1246.1229 1282.3945 1229.0074 1282.3945 1212.1406 C 1282.3945 1188.2731 1265.9034 1162.7388 1229.7051 1138.2285 C 1195.3827 1114.9873 1144.9138 1094.3894 1084.4414 1080.416 C 1035.2443 1155.6452 975.22535 1221.5099 909.17188 1266.6621 C 901.2226 1272.0695 890.7774 1272.0695 882.82812 1266.6621 C 816.77467 1221.5099 756.75576 1155.6452 707.55859 1080.416 z " />
</svg>
