<?xml version="1.0" encoding="UTF-8"?>
<svg width="39px" height="39px" viewBox="0 0 39 39" version="1.1" xmlns="http://www.w3.org/2000/svg" xmlns:xlink="http://www.w3.org/1999/xlink">
    <!-- Generator: Sketch 42 (36781) - http://www.bohemiancoding.com/sketch -->
    <title>Shape</title>
    <desc>Created with Sketch.</desc>
    <defs></defs>
    <g id="Website" stroke="none" stroke-width="1" fill="none" fill-rule="evenodd">
        <g id="BEAD-last-page" transform="translate(-885.000000, -800.000000)" fill-rule="nonzero" fill="#4A4A4A">
            <path d="M916.5,800 L892.5,800 C888.4,800 885,803.4 885,807.5 L885,831.5 C885,835.6 888.4,839 892.5,839 L916.5,839 C920.6,839 924,835.6 924,831.5 L924,807.5 C924,803.4 920.7,800 916.5,800 Z M906.2,813.1 L906.2,816.5 L910.9,816.5 L910.9,819.4 L906.2,819.4 L906.2,831 L902.7,831 L902.7,819.4 L898.6,819.4 L898.6,816.5 L902.7,816.5 L902.7,812.5 C902.7,810.2 904.5,808.3 906.7,808.3 L910.9,808.3 L910.9,811.4 L907.7,811.4 C906.9,811.4 906.2,812.2 906.2,813.1 Z" id="Shape"></path>
        </g>
    </g>
</svg>