<?xml version="1.0" encoding="UTF-8"?>
<svg width="39px" height="40px" viewBox="0 0 39 40" version="1.1" xmlns="http://www.w3.org/2000/svg" xmlns:xlink="http://www.w3.org/1999/xlink">
    <!-- Generator: Sketch 42 (36781) - http://www.bohemiancoding.com/sketch -->
    <title>pinterest-seeklogo.com</title>
    <desc>Created with Sketch.</desc>
    <defs></defs>
    <g id="Website" stroke="none" stroke-width="1" fill="none" fill-rule="evenodd">
        <g id="BEAD-last-page" transform="translate(-885.000000, -938.000000)">
            <g id="pinterest-seeklogo.com" transform="translate(885.000000, 938.000000)">
                <path d="M0,6.50411568 L0,33.5469268 C0,33.5469268 0.30049303,39.7090909 6.58207084,39.7090909 L33.1097033,39.7090909 C33.1097033,39.7090909 38.9859706,39.1096264 38.9859706,33.332991 L38.9859706,6.50411568 C38.9859706,6.50411568 39.6036099,0 32.6426779,0 L6.27080219,0 C6.27080219,0 0,0.342445326 0,6.50411568" id="Fill-1" fill="#4A4A4A"></path>
                <path d="M20.2083107,6.38181818 C11.9592605,6.38181818 7.8,12.3476904 7.8,17.3225584 C7.8,20.3346525 8.93047937,23.0144925 11.3553989,24.01346 C11.7529128,24.1771368 12.1092543,24.0190955 12.2246341,23.5749875 C12.3047927,23.2677259 12.4945014,22.4923439 12.5792752,22.1695232 C12.6955052,21.7303157 12.6503249,21.5763174 12.329569,21.1934656 C11.6303673,20.3613602 11.1835437,19.2842297 11.1835437,17.7590707 C11.1835437,13.3329365 14.4664033,9.37063488 19.7317313,9.37063488 C24.3942907,9.37063488 26.9560872,12.2444123 26.9560872,16.0824861 C26.9560872,21.1320868 24.7404302,25.3940541 21.4513765,25.3940541 C19.6350551,25.3940541 18.275395,23.8789412 18.7112878,22.020548 C19.2330475,19.8019678 20.2438962,17.4075821 20.2438962,15.8059752 C20.2438962,14.3724556 19.4812963,13.1767329 17.9022931,13.1767329 C16.0456495,13.1767329 14.554092,15.1142693 14.554092,17.7098206 C14.554092,19.3628827 15.1077937,20.4811775 15.1077937,20.4811775 C15.1077937,20.4811775 13.2076702,28.6024134 12.8746476,30.0245393 C12.2110314,32.8569074 12.7748137,36.3295263 12.822423,36.6801573 C12.8503571,36.8878161 13.1152449,36.9374337 13.2351184,36.78025 C13.4063664,36.5548269 15.617894,33.8007443 16.3696846,31.0489894 C16.5823479,30.2698095 17.590889,26.2349804 17.590889,26.2349804 C18.1942647,27.395787 19.957147,28.4180319 21.8320084,28.4180319 C27.4133556,28.4180319 31.2,23.2851227 31.2,16.4151078 C31.2,11.2197171 26.8379139,6.38181818 20.2083107,6.38181818" id="Fill-3" fill="#FFFFFF"></path>
            </g>
        </g>
    </g>
</svg>