<?xml version="1.0" encoding="UTF-8"?>
<svg width="39px" height="39px" viewBox="0 0 39 39" version="1.1" xmlns="http://www.w3.org/2000/svg" xmlns:xlink="http://www.w3.org/1999/xlink">
    <!-- Generator: Sketch 42 (36781) - http://www.bohemiancoding.com/sketch -->
    <title>Group</title>
    <desc>Created with Sketch.</desc>
    <defs></defs>
    <g id="Website" stroke="none" stroke-width="1" fill="none" fill-rule="evenodd">
        <g id="BEAD-last-page" transform="translate(-885.000000, -869.000000)">
            <g id="twitter" transform="translate(885.000000, 869.000000)">
                <g id="noun_202393_cc">
                    <g id="Group">
                        <rect id="Rectangle-43" fill="#4A4A4A" x="0" y="0" width="39" height="39" rx="8"></rect>
                        <path d="M25.281624,13.2697304 L19.2223423,18.3124939 C20.1674606,17.4274257 20.6986254,16.1236576 20.5463334,14.7373465 C20.2530991,12.073062 17.2759763,10.3179896 14.8859412,11.2548536 C13.3293849,11.8654661 12.356821,13.1620116 11.8083222,14.6814235 L11.8087349,14.6781218 L9,14.987452 L11.3093492,16.8390998 C11.194408,17.7914407 11.200186,18.7493532 11.295936,19.6193574 C11.9119138,25.2172232 16.9495184,29.2556437 22.5475906,28.6394596 C24.7496338,28.3971956 26.7100321,27.4704431 28.241,26.0950689 C27.372234,25.4157393 25.4578535,23.9089152 24.5059253,23.1065964 C29.1679589,18.7225267 25.281624,13.2697304 25.281624,13.2697304 Z M16.0004792,15.909871 C15.4592029,15.9695084 14.9719924,15.5788732 14.912355,15.0375969 C14.852924,14.4961143 15.2435591,14.0091101 15.7846291,13.9494727 C16.3259054,13.8900417 16.8131159,14.2804705 16.8727533,14.8221595 C16.9321843,15.3634358 16.5417555,15.8502336 16.0004792,15.909871 Z" id="Shape" fill="#FFFFFF" fill-rule="nonzero"></path>
                    </g>
                </g>
            </g>
        </g>
    </g>
</svg>