<svg height="236.25" viewBox="0 0 236.25 236.25" width="236.25" xmlns="http://www.w3.org/2000/svg"><g transform="matrix(1.25,0,0,-1.25,0,236.25)"><g fill="#fff" transform="scale(.1)"><path d="m765 1890 180-180 180 180v-360l180 180v-360l-180-180-180 180-180-180-180 180v360l180-180v360"/><path d="m422.54 1592.5-114.02 114.02v-127.28h-127.28l114.03-113.9-115.27-115.3h360v360l-117.46-117.46"/><path d="m0 765 180 180-180 180h360l-180 180h360l180-180-180-180 180-180-180-180h-360l180 180h-360"/><path d="m540 540h-360l117.46-117.47-114.02-114.02h127.28v-127.27l114.02 114.02 115.26-115.26v360"/><path d="m1125 0-180 180-180-180v360l-180-180v360l180 180 180-180 180 180 180-180v-360l-180 180v-360"/><path d="m1710 540h-360v-360l117.47 117.46 114.02-114.03v127.29h127.27l-114.1 114.01 115.3 115.27"/><path d="m1890 1125-180-180 180-180h-360l180-180h-360l-180 180 180 180-180 180 180 180h360l-180-180h360"/><path d="m1592.5 1467.5 114.03 114.02h-127.29v127.28l-113.9-114.1-115.3 115.3v-360h360l-117.46 117.46"/></g></g></svg>
