<?xml version="1.0" encoding="UTF-8"?>
<svg width="26px" height="26px" viewBox="0 0 26 26" version="1.1" xmlns="http://www.w3.org/2000/svg" xmlns:xlink="http://www.w3.org/1999/xlink">
    <!-- Generator: Sketch 42 (36781) - http://www.bohemiancoding.com/sketch -->
    <title>Shape</title>
    <desc>Created with Sketch.</desc>
    <defs></defs>
    <g id="Website" stroke="none" stroke-width="1" fill="none" fill-rule="evenodd">
        <g id="Final-concept" transform="translate(-1244.000000, -11.000000)" fill="#212121">
            <g id="topmost-nav">
                <path d="M1269.48202,33.9819778 L1264.26498,28.7649333 C1267.4442,24.3868222 1267.06142,18.2265556 1263.11404,14.2791778 C1260.92773,12.0931556 1258.06224,11 1255.19676,11 C1252.33127,11 1249.46578,12.0931556 1247.27947,14.2794667 C1242.90684,18.6520889 1242.90684,25.7414222 1247.27947,30.1140444 C1249.46578,32.3003556 1252.33127,33.3935111 1255.19676,33.3935111 C1257.50469,33.3935111 1259.81176,32.6831333 1261.76493,31.2649778 L1266.98198,36.4820222 C1267.32691,36.8272444 1267.7796,37 1268.232,37 C1268.6844,37 1269.13709,36.8272444 1269.48202,36.4820222 C1270.17247,35.7918667 1270.17247,34.6724222 1269.48202,33.9819778 Z M1249.02956,28.3639556 C1245.62904,24.9634444 1245.62904,19.4300667 1249.02956,16.0295556 C1250.6768,14.3823111 1252.86716,13.4749111 1255.19676,13.4749111 C1257.52636,13.4749111 1259.71671,14.3820222 1261.36396,16.0295556 C1264.76447,19.4300667 1264.76447,24.9634444 1261.36396,28.3639556 C1259.71671,30.0112 1257.52636,30.9186 1255.19676,30.9186 C1252.86716,30.9186 1250.67709,30.0112 1249.02956,28.3639556 Z" id="Shape"></path>
            </g>
        </g>
    </g>
</svg>
